<svg width="84" height="87" viewBox="0 0 84 87" fill="none" xmlns="http://www.w3.org/2000/svg">
<path d="M13.0229 71.6936L23.2773 67.5597C25.4113 69.1879 27.7446 70.5366 30.2205 71.5732L31.7657 82.4697C31.8339 82.9519 32.075 83.3928 32.4442 83.7103C32.8134 84.0278 33.2855 84.2003 33.7724 84.1955H50.2276C50.7145 84.2003 51.1866 84.0278 51.5558 83.7103C51.925 83.3928 52.1661 82.9519 52.2343 82.4697L53.7795 71.5732C56.2584 70.5426 58.5925 69.1935 60.7227 67.5597L70.9771 71.6936C71.4309 71.8779 71.9365 71.8899 72.3985 71.7273C72.8606 71.5646 73.2472 71.2386 73.4855 70.8106L81.713 56.5428C81.9675 56.1197 82.057 55.6176 81.9644 55.1326C81.8719 54.6476 81.6037 54.2137 81.2114 53.914L72.6025 47.1112C72.775 45.7801 72.8689 44.44 72.8835 43.0978C72.8689 41.7556 72.775 40.4155 72.6025 39.0843L81.2916 32.2815M71.0573 14.502L60.803 18.6358C58.669 17.0077 56.3357 15.659 53.8597 14.6224L52.3146 3.72588C52.2464 3.24371 52.0053 2.80277 51.636 2.48526C51.2668 2.16774 50.7948 1.9953 50.3078 2.0001H33.8126C33.3256 1.9953 32.8536 2.16774 32.4844 2.48526C32.1152 2.80277 31.874 3.24371 31.8058 3.72588L30.2607 14.6224C27.7817 15.6529 25.4477 17.0021 23.3174 18.6358L13.0229 14.502C12.5691 14.3176 12.0635 14.3057 11.6015 14.4683C11.1394 14.631 10.7528 14.957 10.5145 15.3849L2.28695 29.6527C2.03252 30.0759 1.94302 30.578 2.03558 31.063C2.12814 31.548 2.39625 31.9818 2.78863 32.2815L11.4577 39.0843C11.2852 40.4155 11.1913 41.7556 11.1767 43.0978C11.1913 44.44 11.2852 45.7801 11.4577 47.1112L2.78863 53.914M42.0401 57.5061C39.1905 57.51 36.4036 56.6689 34.032 55.089C31.6603 53.5091 29.8105 51.2614 28.7163 48.6301C27.6221 45.9989 27.3327 43.1023 27.8848 40.3066C28.4368 37.5109 29.8055 34.9416 31.8177 32.9238C33.8299 30.906 36.3953 29.5301 39.1895 28.9703C41.9836 28.4105 44.8811 28.6918 47.5153 29.7786C50.1496 30.8655 52.4025 32.7091 53.989 35.0763C55.5755 37.4435 56.4244 40.228 56.4283 43.0777V43.0978C56.431 44.9873 56.0614 46.8588 55.3408 48.6054C54.6201 50.3521 53.5625 51.9397 52.2283 53.2777C50.8941 54.6156 49.3095 55.6776 47.5648 56.4031C45.8202 57.1287 43.9497 57.5034 42.0602 57.5061H42.0401Z" stroke="#AAAAAA" stroke-width="4" stroke-linecap="round" stroke-linejoin="round"/>
</svg>
