<svg width="80" height="71" viewBox="0 0 80 71" fill="none" xmlns="http://www.w3.org/2000/svg">
<g clip-path="url(#clip0_3173_1702)">
<path fill-rule="evenodd" clip-rule="evenodd" d="M76.9996 28.0504C76.9996 35.6044 76.1514 42.336 74.8407 47.0858C74.1795 49.4819 73.4463 51.2038 72.7593 52.2567C72.4311 52.7597 72.2002 52.9872 72.0824 53.0827C71.9701 53.0687 71.8002 53.0444 71.5622 53.0022C71.3871 52.9711 71.1914 52.9333 70.9758 52.8887C70.9572 52.861 70.9385 52.8326 70.9195 52.8035C70.1528 51.6286 69.386 49.7962 68.7116 47.353C67.3708 42.4947 66.5162 35.6695 66.5162 28.0504C66.5162 20.4313 67.3708 13.6061 68.7116 8.74788C69.386 6.30461 70.1528 4.47221 70.9195 3.2973C70.9385 3.26825 70.9573 3.23985 70.9759 3.21208C71.1914 3.1675 71.387 3.12975 71.5621 3.09867C71.8002 3.05641 71.9702 3.03209 72.0825 3.01817C72.2003 3.1136 72.4312 3.34101 72.7594 3.84396C73.4463 4.89664 74.1795 6.61833 74.8407 9.01429C76.1514 13.7637 76.9996 20.4953 76.9996 28.0504ZM64.5162 28.0504C64.5162 38.3649 66.0527 47.3791 68.3416 52.2521C67.1353 51.93 65.7327 51.5225 64.186 51.0349C59.7824 49.6464 54.3034 47.6367 48.9723 45.1626C44.2938 42.9912 39.8406 40.5129 36.3394 37.8504C34.2634 31.957 34.2636 24.1422 36.3399 18.2491C39.8411 15.5867 44.294 13.1086 48.9723 10.9375C54.3033 8.46343 59.7823 6.45402 64.1859 5.0657C65.7326 4.57806 67.1353 4.17065 68.3417 3.84854C66.0527 8.72157 64.5162 17.7358 64.5162 28.0504ZM35.4305 15.1899C35.4415 15.1819 35.4525 15.174 35.4635 15.166C35.5507 14.9886 35.6402 14.8133 35.7319 14.6402L8.55762 16.5812L8.48647 16.5863H8.41513C6.56387 16.5863 5.02822 17.6481 3.8521 19.7651C2.65815 21.9142 2 24.9218 2 28.0505C2 31.1792 2.65815 34.1867 3.8521 36.3358C5.02822 38.4528 6.56387 39.5147 8.41513 39.5147H8.48647L8.55762 39.5198L12.5716 39.8065L12.5328 39.8828L35.4996 41.4999L35.4798 41.4428L35.7319 41.4608C35.6399 41.2871 35.5502 41.1112 35.4627 40.9332C35.3915 40.882 35.3207 40.8306 35.2501 40.7791L33.3532 35.2994C33.4335 35.3778 33.515 35.4563 33.5978 35.535C33.0451 33.1086 32.7825 30.5481 32.7825 28.0505C32.7825 25.5524 33.0452 22.9914 33.5981 20.5646C33.5386 20.6213 33.4797 20.6778 33.4214 20.7342L33.4996 20.4999L35.4305 15.1899ZM39.7992 12.3446L37.0395 12.5417L8.41513 14.5863C-2.80504 14.5863 -2.80504 41.5147 8.41513 41.5147L12.8292 41.83L10.6202 61.711C10.0008 66.6681 13.5172 70.6871 18.4743 70.6871C23.4313 70.6871 27.9531 68.9121 28.5724 63.955C28.5724 63.955 24.6314 51.9396 29.81 43.0429L37.0395 43.5593L39.8012 43.7565C52.3655 51.2045 69.5888 56.1009 72.2577 56.1009L72.2828 56.1007C72.408 56.0993 72.5325 56.0871 72.6562 56.0643C76.7469 55.3135 80 43.0584 80 28.0504C80 20.9514 79.2721 14.4683 78.0721 9.52734C76.6536 3.68638 74.575 0.000353391 72.2581 0C69.5891 0 52.3636 4.89604 39.7992 12.3446ZM27.6153 42.8861L14.8256 41.9726L12.6079 61.9318L12.6064 61.9454L12.6047 61.9589C12.1323 65.7401 14.738 68.6871 18.4743 68.6871C20.7538 68.6871 22.7324 68.2728 24.1441 67.4513C25.3713 66.7372 26.2267 65.6937 26.5268 64.0991C26.5089 64.0373 26.4898 63.9699 26.4694 63.8971C26.3529 63.4801 26.1973 62.8834 26.0336 62.1426C25.7069 60.6643 25.344 58.5944 25.2005 56.2217C24.9634 52.3025 25.3129 47.348 27.6153 42.8861ZM71.9945 53.1435L71.9922 53.1448C71.9922 53.145 71.9949 53.1438 72.0001 53.141L71.9945 53.1435ZM71.9928 2.95615C71.9928 2.95612 71.9925 2.95606 71.9928 2.95615C71.9928 2.9563 71.995 2.95766 72.0003 2.95995L71.9941 2.95672L71.9928 2.95615ZM71.6406 37.8928C73.4996 37.8928 75.0067 33.5244 75.0067 28.1357C75.0067 22.747 73.4996 18.3786 71.6406 18.3786C69.7816 18.3786 68.2746 22.747 68.2746 28.1357C68.2746 33.5244 69.7816 37.8928 71.6406 37.8928Z" fill="#AAAAAA"/>
</g>
<defs>
<clipPath id="clip0_3173_1702">
<rect width="80" height="71" fill="white"/>
</clipPath>
</defs>
</svg>
