<svg width="19" height="19" viewBox="0 0 19 19" fill="none" xmlns="http://www.w3.org/2000/svg">
<g clip-path="url(#clip0_2805_5090)">
<path d="M8.78777 0.955269L1.73432 3.64625C1.10018 3.88774 0.679688 4.50874 0.679688 5.19873V12.9646C0.679688 13.5925 1.02897 14.1652 1.57833 14.4447L8.63178 18.0326C9.08958 18.2672 9.62876 18.2672 10.0866 18.0326L17.14 14.4447C17.6928 14.1652 18.0387 13.5891 18.0387 12.9646V5.19873C18.0387 4.50874 17.6182 3.89119 16.984 3.6497L9.93057 0.958719C9.56433 0.81382 9.1574 0.81382 8.78777 0.955269ZM9.36087 3.0977L15.8718 5.58168V5.61963L9.36087 8.31061L2.84998 5.61963V5.58168L9.36087 3.0977ZM10.446 15.3796V10.2426L15.8718 8.00011V12.6196L10.446 15.3796Z" fill="#0266FF"/>
</g>
<defs>
<clipPath id="clip0_2805_5090">
<rect width="17.359" height="17.359" fill="white" transform="translate(0.679688 0.849609)"/>
</clipPath>
</defs>
</svg>
