<svg width="30" height="30" viewBox="0 0 30 30" fill="none" xmlns="http://www.w3.org/2000/svg">
<path d="M10.2 13.425L13.425 10.1625L11.325 8.025L9.675 9.675L7.575 7.575L9.1875 5.925L7.5 4.2375L4.2375 7.5L10.2 13.425ZM22.5 25.7625L25.7625 22.5L24.075 20.8125L22.425 22.425L20.325 20.325L21.9375 18.675L19.8 16.575L16.575 19.8L22.5 25.7625ZM7.875 28.5H1.5V22.125L8.0625 15.5625L0 7.5L7.5 0L15.6 8.1L21.2625 2.4C21.5625 2.1 21.9 1.875 22.275 1.725C22.65 1.575 23.0375 1.5 23.4375 1.5C23.8375 1.5 24.225 1.575 24.6 1.725C24.975 1.875 25.3125 2.1 25.6125 2.4L27.6 4.425C27.9 4.725 28.125 5.0625 28.275 5.4375C28.425 5.8125 28.5 6.2 28.5 6.6C28.5 7 28.425 7.3815 28.275 7.7445C28.125 8.1075 27.9 8.4385 27.6 8.7375L21.9375 14.4375L30 22.5L22.5 30L14.4375 21.9375L7.875 28.5ZM4.5 25.5H6.6L21.3 10.8375L19.1625 8.7L4.5 23.4V25.5ZM20.25 9.7875L19.1625 8.7L21.3 10.8375L20.25 9.7875Z" fill="#0266FF"/>
</svg>
