<svg width="37" height="37" viewBox="0 0 37 37" fill="none" xmlns="http://www.w3.org/2000/svg">
<path d="M36.2222 28.724L27.9275 20.4202C27.5494 20.0422 26.9362 20.0422 26.558 20.4202C26.1798 20.7981 26.1798 21.4109 26.558 21.7888L34.8527 30.0926C35.1325 30.3753 35.1325 30.8304 34.8527 31.1131L31.107 34.8514C30.8201 35.1211 30.3728 35.1211 30.0859 34.8514L28.1502 32.917L28.9777 32.09C29.2223 31.8455 29.3179 31.4891 29.2283 31.1552C29.1388 30.8212 28.8778 30.5603 28.5436 30.4708C28.2094 30.3813 27.8528 30.4768 27.6081 30.7213L26.7951 31.5435L24.3754 29.1254L26.408 27.0942C26.6824 26.8558 26.7999 26.4838 26.7124 26.1312C26.6248 25.7786 26.3468 25.5047 25.9928 25.4222C25.6387 25.3397 25.2682 25.4625 25.0336 25.74L23.0011 27.7712L21.8251 26.5912C21.5804 26.3467 21.2239 26.2512 20.8897 26.3407C20.5555 26.4302 20.2944 26.6911 20.2049 27.025C20.1153 27.359 20.2109 27.7154 20.4555 27.9598L28.7212 36.2201C29.2187 36.7186 29.8943 36.9988 30.5989 36.9988C31.3034 36.9988 31.979 36.7186 32.4766 36.2201L36.2222 32.4769C37.2585 31.4402 37.2585 29.7606 36.2222 28.724Z" fill="#3D4755"/>
<path d="M9.40297 16.5186C9.79618 16.5209 10.1517 16.2852 10.3025 15.9222C10.4533 15.5593 10.3694 15.1413 10.0902 14.8646L9.2094 13.9892L11.2419 11.958C11.6201 11.5801 11.6201 10.9673 11.2419 10.5894C10.8637 10.2114 10.2506 10.2114 9.87239 10.5894L7.83017 12.6206L5.41048 10.2025L6.23802 9.37547C6.61621 8.99753 6.61621 8.38477 6.23802 8.00683C5.85983 7.62888 5.24666 7.62888 4.86847 8.00683L4.05062 8.81447L2.11487 6.87999C1.9783 6.74627 1.90134 6.56325 1.90134 6.37218C1.90134 6.18112 1.9783 5.9981 2.11487 5.86438L5.89442 2.14533C6.02887 2.01007 6.21177 1.934 6.40255 1.934C6.59334 1.934 6.77624 2.01007 6.91069 2.14533L15.0892 10.3185C15.4674 10.6965 16.0806 10.6965 16.4588 10.3185C16.837 9.94059 16.837 9.32783 16.4588 8.94989L8.28023 0.776681C7.24291 -0.258894 5.5622 -0.258894 4.52488 0.776681L0.779196 4.51991C0.280356 5.01713 0 5.69228 0 6.39636C0 7.10045 0.280356 7.7756 0.779196 8.27282L8.72062 16.2332C8.9013 16.4149 9.14669 16.5175 9.40297 16.5186Z" fill="#3D4755"/>
<path d="M31.1947 13.313L35.8454 8.66542C36.2206 8.28816 36.2206 7.67887 35.8454 7.3016L29.6945 1.15477C29.513 0.973147 29.2666 0.871094 29.0097 0.871094C28.7529 0.871094 28.5065 0.973147 28.325 1.15477L23.6792 5.79754L4.35552 25.1086C4.25294 25.2124 4.17518 25.338 4.12807 25.4761L0.900205 34.8439C0.798618 35.1393 0.846044 35.4655 1.02754 35.7198C1.20904 35.9742 1.50227 36.1255 1.81485 36.1255C1.92162 36.1264 2.02784 36.11 2.12941 36.0771L11.5033 32.8513C11.6437 32.8035 11.7711 32.7241 11.8759 32.6192L31.1947 13.313ZM29.0122 3.20533L33.7886 7.98351L30.5124 11.2625L25.7359 6.48428L29.0122 3.20533ZM5.41051 27.6331L9.34976 31.5456L3.37797 33.6009L5.41051 27.6331ZM11.1307 30.6122L6.37838 25.834L24.3615 7.8481L29.1235 12.6311L11.1307 30.6122Z" fill="#3D4755"/>
</svg>
