<svg width="30" height="30" viewBox="0 0 30 30" fill="none" xmlns="http://www.w3.org/2000/svg">
<path d="M18.4955 0.0908751C18.7488 0.175667 18.9856 0.319356 19.1924 0.513726C19.3992 0.708097 19.572 0.94934 19.7009 1.22366C19.8298 1.49799 19.9122 1.80002 19.9435 2.11248C19.9748 2.42495 19.9543 2.74173 19.8832 3.04471L13.9709 28.2513C13.8276 28.863 13.4871 29.3815 13.0243 29.6928C12.5615 30.004 12.0143 30.0826 11.5032 29.9111C10.992 29.7396 10.5587 29.3321 10.2986 28.7783C10.0385 28.2245 9.97284 27.5697 10.1162 26.958L16.0284 1.74822C16.0994 1.4453 16.2196 1.16209 16.3821 0.914766C16.5446 0.667442 16.7462 0.46085 16.9754 0.306794C17.2046 0.152737 17.457 0.0542345 17.718 0.0169125C17.9791 -0.0204095 18.2437 0.00418089 18.4968 0.0892785L18.4955 0.0908751ZM9.07542 6.53343C9.45022 6.9825 9.66074 7.59123 9.66074 8.2259C9.66074 8.86058 9.45022 9.46931 9.07542 9.91837L4.83237 15.0006L9.07809 20.0812C9.45337 20.5305 9.66413 21.1398 9.66401 21.775C9.66388 22.4102 9.45288 23.0194 9.07742 23.4685C8.70196 23.9176 8.19279 24.1698 7.66193 24.1696C7.13107 24.1695 6.62201 23.917 6.24672 23.4677L0.585327 16.693C0.210523 16.244 0 15.6352 0 15.0006C0 14.3659 0.210523 13.7572 0.585327 13.3081L6.24539 6.53343C6.43125 6.31087 6.65195 6.13432 6.89486 6.01387C7.13777 5.89341 7.39813 5.83141 7.66107 5.83141C7.92401 5.83141 8.18437 5.89341 8.42728 6.01387C8.67019 6.13432 8.88955 6.31087 9.07542 6.53343ZM20.9239 9.91837C20.7273 9.69911 20.5696 9.4347 20.4602 9.14091C20.3508 8.84713 20.292 8.52999 20.2872 8.20841C20.2825 7.88683 20.3319 7.56741 20.4326 7.26919C20.5332 6.97097 20.6831 6.70006 20.8731 6.47264C21.0632 6.24521 21.2896 6.06592 21.5388 5.94547C21.788 5.82501 22.0549 5.76586 22.3236 5.77153C22.5924 5.7772 22.8574 5.84759 23.1029 5.97849C23.3484 6.10939 23.5694 6.29813 23.7526 6.53343L29.414 13.3065C29.7892 13.7556 30 14.3647 30 14.9998C30 15.6348 29.7892 16.2439 29.414 16.693L23.7539 23.4677C23.5681 23.6902 23.3475 23.8667 23.1047 23.9871C22.8619 24.1075 22.6016 24.1696 22.3387 24.1696C22.0759 24.1697 21.8156 24.1078 21.5727 23.9875C21.3298 23.8672 21.1092 23.6909 20.9233 23.4685C20.7373 23.2461 20.5898 22.9821 20.4892 22.6916C20.3886 22.401 20.3367 22.0895 20.3367 21.775C20.3366 21.4605 20.3883 21.149 20.4888 20.8584C20.5894 20.5677 20.7368 20.3036 20.9226 20.0812L25.1683 15.0006L20.9239 9.91837Z" fill="#0266FF"/>
</svg>
