<svg width="40" height="40" viewBox="0 0 40 40" fill="none" xmlns="http://www.w3.org/2000/svg">
<path fill-rule="evenodd" clip-rule="evenodd" d="M8.74374 37.2911C9.20948 37.5945 9.68435 37.8676 10.1652 38.1057C13.904 39.9573 18.651 40.7009 24.4057 39.1891C25.8942 38.7982 26.982 38.3395 27.7742 37.8949C27.6453 37.8996 27.514 37.9043 27.3804 37.9084C24.9606 37.9827 21.7502 37.9366 18.7005 37.4312C15.8775 36.9637 13.5019 35.6686 11.7234 34.3312L8.74374 37.2911ZM7.53134 12.3993C6.51406 14.0133 5.80209 15.8174 5.44142 17.7176C4.90782 20.529 4.77007 22.8363 5.77879 25.935C6.33513 27.6442 7.07571 29.6208 8.95771 31.7772L6.50863 35.5488C4.35746 33.5821 2.57366 31.0571 1.56722 28.6061C0.0262187 24.8363 -0.390763 20.6789 0.371274 16.6627C0.90149 13.8683 1.98513 11.2334 3.53823 8.91461L7.53134 12.3993ZM24.4674 18.4018H34.719L34.1418 16.5088C33.4115 14.1153 32.048 11.3894 30.1337 9.54747C28.2758 7.75952 25.9941 6.49035 23.5081 5.86891C21.0218 5.24742 18.4205 5.29626 15.9585 6.01043C14.9806 6.29412 14.0385 6.67868 13.1459 7.15556L9.22759 3.26334C10.4793 2.44077 11.8192 1.76197 13.2234 1.24174C15.9122 0.245605 18.7751 -0.146184 21.6197 0.0902363L21.8922 0.116654C23.8687 0.308246 25.8071 0.80279 27.6431 1.5846C31.2991 3.14463 34.4303 5.7876 36.6334 9.18678C38.8368 12.5865 40.0106 16.5865 39.9999 20.6794C39.9973 21.4138 39.7109 22.107 39.219 22.6099C38.7289 23.1111 38.0767 23.3822 37.4084 23.3819H22.7459L26.1134 20.0369L24.4674 18.4018Z" fill="white"/>
<path d="M4.70804 40.002L4.68507 39.9837L17.6542 20.0102L0.305123 4.87011L4.69696 0.00195312L24.8363 20.0075L4.70804 40.002Z" fill="white"/>
</svg>
