<svg width="80" height="80" viewBox="0 0 80 80" fill="none" xmlns="http://www.w3.org/2000/svg">
<path d="M50.4245 76.8666C46.3569 76.8403 41.7179 76.5875 37.2377 75.845C37.2376 75.845 37.2376 75.845 37.2375 75.845L50.4245 76.8666ZM50.4245 76.8666C49.8428 77.0519 49.2214 77.2327 48.5575 77.4071L48.5574 77.4071C37.2739 80.3714 28.0284 78.904 20.7741 75.3114C20.209 75.0315 19.647 74.7259 19.0895 74.3964L23.5445 69.971L50.4245 76.8666ZM74.8168 45.76H47.9175L52.9315 40.7793L53.6457 40.0699L52.9315 39.3604L51.3604 37.7998H69.438H70.7884L70.3946 36.5081L69.2401 32.722L69.24 32.7219C67.7491 27.8348 64.9523 22.211 60.9607 18.3704C57.1204 14.6748 52.4022 12.0495 47.2587 10.7638C42.1145 9.4779 36.7322 9.57897 31.6384 11.0565L31.6384 11.0566C29.8543 11.5741 28.1281 12.2539 26.479 13.0837L20.0484 6.69589C22.1853 5.38701 24.4436 4.28811 26.7942 3.4173L26.5576 2.77862L26.7942 3.4173C32.0327 1.47657 37.6092 0.71308 43.1497 1.17257L43.6879 1.22474L43.7843 0.229776L43.6879 1.22474C47.5388 1.59802 51.3161 2.56161 54.8944 4.08534C62.0204 7.12619 68.128 12.2798 72.4276 18.9136C76.7282 25.5489 79.0207 33.3587 78.9999 41.3523C78.9952 42.5644 78.5221 43.6998 77.7231 44.5165L77.723 44.5167C76.9285 45.3293 75.8808 45.7605 74.8172 45.76H74.8168ZM36.1471 40.561L36.6195 39.8334L35.9659 39.263L2.03373 9.65131L9.43357 1.44892L48.2537 40.0111L15.1567 72.8881L36.1471 40.561ZM1.72502 33.5079C2.68828 28.4312 4.5867 23.6254 7.28722 19.3365L13.7693 24.9933C11.9057 28.1374 10.591 31.6061 9.90038 35.2448C8.81423 40.9674 8.51981 45.765 10.6067 52.1757C11.6879 55.4972 13.1375 59.3943 16.6703 63.6317L12.8313 69.5438C9.01714 65.8338 5.8777 61.2561 4.05974 56.829C1.05135 49.4691 0.236904 41.3508 1.72502 33.5079L0.743267 33.3217L1.72502 33.5079Z" stroke="#AAAAAA" stroke-width="2"/>
</svg>
