<svg width="99" height="98" viewBox="0 0 99 98" fill="none" xmlns="http://www.w3.org/2000/svg">
<rect x="0.5" width="98" height="98" rx="49" fill="url(#paint0_linear_1216_565)" fill-opacity="0.05"/>
<rect x="12.5" y="12" width="74" height="74" rx="37" fill="url(#paint1_linear_1216_565)" fill-opacity="0.1"/>
<rect x="13" y="12.5" width="73" height="73" rx="36.5" stroke="url(#paint2_linear_1216_565)" stroke-opacity="0.2"/>
<path d="M56.5 40H54C53.8674 40 53.7402 40.0527 53.6464 40.1464C53.5527 40.2402 53.5 40.3674 53.5 40.5V40.559L57 43.359V40.5C57 40.3674 56.9473 40.2402 56.8536 40.1464C56.7598 40.0527 56.6326 40 56.5 40Z" fill="white"/>
<path d="M48.75 46.5C48.75 46.1685 48.8817 45.8505 49.1161 45.6161C49.3505 45.3817 49.6685 45.25 50 45.25C50.3315 45.25 50.6495 45.3817 50.8839 45.6161C51.1183 45.8505 51.25 46.1685 51.25 46.5C51.25 46.8315 51.1183 47.1495 50.8839 47.3839C50.6495 47.6183 50.3315 47.75 50 47.75C49.6685 47.75 49.3505 47.6183 49.1161 47.3839C48.8817 47.1495 48.75 46.8315 48.75 46.5Z" fill="#FF7F50"/>
<path fill-rule="evenodd" clip-rule="evenodd" d="M58.75 47.9601L59.532 48.5861C59.6877 48.7074 59.8849 48.7625 60.0809 48.7393C60.2769 48.7162 60.4559 48.6168 60.5791 48.4626C60.7022 48.3083 60.7596 48.1118 60.7388 47.9155C60.7181 47.7193 60.6207 47.5391 60.468 47.4141L52.343 40.9141C51.678 40.382 50.8517 40.092 50 40.092C49.1483 40.092 48.322 40.382 47.657 40.9141L39.532 47.4141C39.3766 47.5384 39.2769 47.7193 39.2549 47.917C39.2328 48.1148 39.2902 48.3132 39.4145 48.4686C39.5388 48.624 39.7197 48.7237 39.9174 48.7457C40.1152 48.7678 40.3136 48.7104 40.469 48.5861L41.25 47.9601V58.2501H40C39.8011 58.2501 39.6103 58.3291 39.4697 58.4698C39.329 58.6104 39.25 58.8012 39.25 59.0001C39.25 59.199 39.329 59.3898 39.4697 59.5304C39.6103 59.6711 39.8011 59.7501 40 59.7501H60C60.1989 59.7501 60.3897 59.6711 60.5303 59.5304C60.671 59.3898 60.75 59.199 60.75 59.0001C60.75 58.8012 60.671 58.6104 60.5303 58.4698C60.3897 58.3291 60.1989 58.2501 60 58.2501H58.75V47.9601ZM47.25 46.5001C47.25 45.7708 47.5397 45.0713 48.0555 44.5556C48.5712 44.0398 49.2707 43.7501 50 43.7501C50.7293 43.7501 51.4288 44.0398 51.9445 44.5556C52.4603 45.0713 52.75 45.7708 52.75 46.5001C52.75 47.2294 52.4603 47.9289 51.9445 48.4446C51.4288 48.9604 50.7293 49.2501 50 49.2501C49.2707 49.2501 48.5712 48.9604 48.0555 48.4446C47.5397 47.9289 47.25 47.2294 47.25 46.5001ZM50.05 50.2501C50.714 50.2501 51.287 50.2501 51.746 50.3121C52.238 50.3781 52.709 50.5271 53.091 50.9091C53.473 51.2911 53.622 51.7621 53.688 52.2541C53.746 52.6841 53.75 53.2141 53.75 53.8271V58.2501H52.25V54.0001C52.25 53.2721 52.248 52.8001 52.202 52.4541C52.158 52.1291 52.088 52.0271 52.03 51.9701C51.972 51.9131 51.871 51.8421 51.546 51.7981C51.199 51.7521 50.728 51.7501 50 51.7501C49.272 51.7501 48.8 51.7521 48.454 51.7981C48.129 51.8421 48.027 51.9131 47.97 51.9701C47.913 52.0271 47.842 52.1291 47.798 52.4541C47.752 52.8011 47.75 53.2721 47.75 54.0001V58.2501H46.25V53.9501C46.25 53.2861 46.25 52.7131 46.312 52.2541C46.378 51.7621 46.527 51.2911 46.909 50.9091C47.291 50.5271 47.763 50.3781 48.254 50.3121C48.713 50.2501 49.286 50.2501 49.951 50.2501H50.05Z" fill="#FF7F50"/>
<path d="M48.75 46.5C48.75 46.1685 48.8817 45.8505 49.1161 45.6161C49.3505 45.3817 49.6685 45.25 50 45.25C50.3315 45.25 50.6495 45.3817 50.8839 45.6161C51.1183 45.8505 51.25 46.1685 51.25 46.5C51.25 46.8315 51.1183 47.1495 50.8839 47.3839C50.6495 47.6183 50.3315 47.75 50 47.75C49.6685 47.75 49.3505 47.6183 49.1161 47.3839C48.8817 47.1495 48.75 46.8315 48.75 46.5Z" fill="#FF7F50"/>
<defs>
<linearGradient id="paint0_linear_1216_565" x1="49.5" y1="0" x2="49.5" y2="98" gradientUnits="userSpaceOnUse">
<stop stop-color="#FF7F50"/>
<stop offset="1" stop-color="#FF7F50"/>
</linearGradient>
<linearGradient id="paint1_linear_1216_565" x1="49.5" y1="-37" x2="49.5" y2="203" gradientUnits="userSpaceOnUse">
<stop stop-color="#FF7F50"/>
<stop offset="0.467671" stop-color="#FF7F50"/>
</linearGradient>
<linearGradient id="paint2_linear_1216_565" x1="49.5" y1="-116.5" x2="49.5" y2="153" gradientUnits="userSpaceOnUse">
<stop offset="0.00899963" stop-color="#FF7F50" stop-opacity="0.66"/>
<stop offset="1" stop-color="#FF7F50"/>
</linearGradient>
</defs>
</svg>
