<svg width="30" height="30" viewBox="0 0 30 30" fill="none" xmlns="http://www.w3.org/2000/svg">
<path d="M25.5005 3.7476C25.5007 4.30501 25.3765 4.85546 25.1369 5.35884C24.8974 5.86222 24.5484 6.30586 24.1156 6.65743C23.6828 7.009 23.1769 7.25965 22.6349 7.39112C22.0929 7.52259 21.5283 7.53158 20.9824 7.41742L19.0624 10.591C19.6844 11.1627 20.1786 11.8592 20.5126 12.635C20.8466 13.4108 21.0128 14.2484 21.0004 15.0929L22.9444 15.4826C23.3675 14.6934 24.0594 14.0817 24.8947 13.7581C25.73 13.4346 26.6537 13.4206 27.4984 13.7187C28.3432 14.0168 29.0533 14.6072 29.5002 15.3832C29.947 16.1592 30.1012 17.0695 29.9347 17.9492C29.7681 18.8289 29.292 19.62 28.5924 20.1793C27.8928 20.7385 27.016 21.029 26.1207 20.9982C25.2253 20.9673 24.3706 20.6171 23.7112 20.011C23.0519 19.4049 22.6314 18.5829 22.5259 17.6938L20.5474 17.295C20.0318 18.5428 19.1101 19.5801 17.9313 20.2393L18.6739 22.5045H18.7504C19.6431 22.5046 20.5064 22.823 21.1852 23.4024C21.8641 23.9819 22.3138 24.7843 22.4535 25.6654C22.5933 26.5466 22.414 27.4487 21.9478 28.2095C21.4815 28.9703 20.759 29.54 19.9101 29.8161C19.0612 30.0921 18.1416 30.0565 17.3167 29.7156C16.4917 29.3746 15.8155 28.7508 15.4097 27.9562C15.0038 27.1616 14.8949 26.2483 15.1025 25.3806C15.3101 24.5129 15.8206 23.7477 16.5423 23.2225L15.7968 20.9499C14.7306 21.0926 13.6457 20.9462 12.6555 20.526C11.6654 20.1059 10.8065 19.4275 10.1687 18.5618L7.47764 19.833C7.49264 19.971 7.50014 20.1109 7.50014 20.2528C7.4999 21.1301 7.19171 21.9795 6.62926 22.6531C6.0668 23.3266 5.28573 23.7817 4.4221 23.9389C3.55847 24.0961 2.66702 23.9455 1.90304 23.5134C1.13907 23.0813 0.550975 22.3951 0.24122 21.5742C-0.068535 20.7534 -0.0803238 19.8499 0.207907 19.0212C0.496138 18.1926 1.06612 17.4912 1.81857 17.0394C2.57101 16.5875 3.45823 16.4138 4.32567 16.5484C5.1931 16.6831 5.98578 17.1176 6.56562 17.7763L9.19667 16.5335C8.95411 15.6131 8.93426 14.6482 9.13876 13.7187C9.34326 12.7891 9.76622 11.9215 10.3727 11.1877L8.88617 9.49368C8.05371 9.82456 7.13024 9.84667 6.28288 9.55602C5.43553 9.26536 4.72029 8.68114 4.26661 7.90911C3.81294 7.13707 3.65081 6.22823 3.80957 5.34707C3.96834 4.46591 4.4375 3.67067 5.13214 3.10528C5.82678 2.53988 6.70101 2.2417 7.59659 2.26469C8.49217 2.28768 9.34993 2.63033 10.0146 3.23062C10.6793 3.83091 11.107 4.64918 11.2203 5.53732C11.3335 6.42546 11.1249 7.32479 10.6322 8.07253L12.1052 9.75153C12.992 9.26357 13.988 9.00778 15.0003 9.00797C15.7578 9.00797 16.4838 9.14739 17.1513 9.40374L19.0189 6.31557C18.5997 5.87018 18.2959 5.32904 18.134 4.73936C17.9721 4.14968 17.957 3.52937 18.0901 2.93254C18.2232 2.33572 18.5004 1.7805 18.8975 1.31532C19.2946 0.850143 19.7996 0.489135 20.3684 0.263789C20.9372 0.0384425 21.5525 -0.044398 22.1606 0.0224937C22.7688 0.0893855 23.3514 0.303977 23.8575 0.647551C24.3636 0.991125 24.778 1.45324 25.0643 1.9936C25.3507 2.53395 25.5004 3.13613 25.5005 3.7476ZM23.2504 3.7476C23.2504 3.35001 23.0924 2.9687 22.8111 2.68757C22.5298 2.40643 22.1482 2.24849 21.7504 2.24849C21.3526 2.24849 20.971 2.40643 20.6897 2.68757C20.4084 2.9687 20.2504 3.35001 20.2504 3.7476C20.2504 4.14518 20.4084 4.52649 20.6897 4.80763C20.971 5.08876 21.3526 5.24671 21.7504 5.24671C22.1482 5.24671 22.5298 5.08876 22.8111 4.80763C23.0924 4.52649 23.2504 4.14518 23.2504 3.7476ZM7.50014 7.50886C7.89797 7.50886 8.27951 7.35092 8.56082 7.06978C8.84213 6.78865 9.00017 6.40734 9.00017 6.00975C9.00017 5.61216 8.84213 5.23086 8.56082 4.94972C8.27951 4.66858 7.89797 4.51064 7.50014 4.51064C7.10231 4.51064 6.72077 4.66858 6.43946 4.94972C6.15815 5.23086 6.00011 5.61216 6.00011 6.00975C6.00011 6.40734 6.15815 6.78865 6.43946 7.06978C6.72077 7.35092 7.10231 7.50886 7.50014 7.50886ZM15.0003 18.7522C15.9949 18.7522 16.9487 18.3573 17.652 17.6545C18.3553 16.9516 18.7504 15.9984 18.7504 15.0044C18.7504 14.0104 18.3553 13.0572 17.652 12.3543C16.9487 11.6515 15.9949 11.2566 15.0003 11.2566C14.0057 11.2566 13.0519 11.6515 12.3486 12.3543C11.6453 13.0572 11.2502 14.0104 11.2502 15.0044C11.2502 15.9984 11.6453 16.9516 12.3486 17.6545C13.0519 18.3573 14.0057 18.7522 15.0003 18.7522ZM5.2501 20.2513C5.2501 19.8537 5.09206 19.4724 4.81075 19.1913C4.52944 18.9101 4.1479 18.7522 3.75007 18.7522C3.35224 18.7522 2.9707 18.9101 2.68939 19.1913C2.40808 19.4724 2.25004 19.8537 2.25004 20.2513C2.25004 20.6489 2.40808 21.0302 2.68939 21.3113C2.9707 21.5925 3.35224 21.7504 3.75007 21.7504C4.1479 21.7504 4.52944 21.5925 4.81075 21.3113C5.09206 21.0302 5.2501 20.6489 5.2501 20.2513ZM20.2504 26.2507C20.2504 25.8531 20.0923 25.4718 19.811 25.1907C19.5297 24.9096 19.1482 24.7516 18.7504 24.7516C18.3525 24.7516 17.971 24.9096 17.6897 25.1907C17.4084 25.4718 17.2503 25.8531 17.2503 26.2507C17.2503 26.6483 17.4084 27.0296 17.6897 27.3108C17.971 27.5919 18.3525 27.7498 18.7504 27.7498C19.1482 27.7498 19.5297 27.5919 19.811 27.3108C20.0923 27.0296 20.2504 26.6483 20.2504 26.2507ZM26.2505 18.7522C26.6483 18.7522 27.0299 18.5942 27.3112 18.3131C27.5925 18.032 27.7505 17.6507 27.7505 17.2531C27.7505 16.8555 27.5925 16.4742 27.3112 16.193C27.0299 15.9119 26.6483 15.754 26.2505 15.754C25.8527 15.754 25.4711 15.9119 25.1898 16.193C24.9085 16.4742 24.7505 16.8555 24.7505 17.2531C24.7505 17.6507 24.9085 18.032 25.1898 18.3131C25.4711 18.5942 25.8527 18.7522 26.2505 18.7522Z" fill="#0266FF"/>
</svg>
