<svg width="42" height="53" viewBox="0 0 42 53" fill="none" xmlns="http://www.w3.org/2000/svg">
<g filter="url(#filter0_d_2215_2434)">
<path fill-rule="evenodd" clip-rule="evenodd" d="M29.5903 20.9519C29.5903 20.9519 29.5903 9.89818 22.5406 2.64723C22.1337 2.23307 21.579 2 21.0002 2C20.4214 2 19.8667 2.23307 19.4599 2.64723C12.4102 9.89818 12.4102 20.9519 12.4102 20.9519V29.3735C12.4102 30.5668 13.3716 31.5342 14.5577 31.5342H27.4428C28.6288 31.5342 29.5903 30.5668 29.5903 29.3735V20.9519Z" stroke="#3D4755" stroke-width="2.244"/>
<path d="M12.4425 19.6504C9.46497 20.7729 7.11567 23.1367 6 26.1326V29.3737H9.09698" stroke="#3D4755" stroke-width="2.244" stroke-linecap="round" stroke-linejoin="round"/>
<path d="M29.5566 19.6504C32.5342 20.7729 34.8835 23.1367 35.9992 26.1326V29.3737H32.9022" stroke="#3D4755" stroke-width="2.244" stroke-linecap="round" stroke-linejoin="round"/>
<path d="M18.5188 34.7754C18.5188 34.7754 19.179 43.0001 7.78125 43.0001" stroke="#3D4755" stroke-width="2.244" stroke-linecap="round" stroke-linejoin="round"/>
<path d="M23.4817 34.7754C23.4817 34.7754 22.8216 43.0001 34.2193 43.0001" stroke="#3D4755" stroke-width="2.244" stroke-linecap="round" stroke-linejoin="round"/>
<path d="M17.7793 15.4389C17.7793 14.5082 19.2218 13.7559 21.0006 13.7559C22.7793 13.7559 24.2218 14.5082 24.2218 15.4389" stroke="#3D4755" stroke-width="2.244" stroke-linecap="round" stroke-linejoin="round"/>
</g>
<defs>
<filter id="filter0_d_2215_2434" x="0.878906" y="0.878906" width="40.2422" height="51.2441" filterUnits="userSpaceOnUse" color-interpolation-filters="sRGB">
<feFlood flood-opacity="0" result="BackgroundImageFix"/>
<feColorMatrix in="SourceAlpha" type="matrix" values="0 0 0 0 0 0 0 0 0 0 0 0 0 0 0 0 0 0 127 0" result="hardAlpha"/>
<feOffset dy="4"/>
<feGaussianBlur stdDeviation="2"/>
<feComposite in2="hardAlpha" operator="out"/>
<feColorMatrix type="matrix" values="0 0 0 0 0 0 0 0 0 0 0 0 0 0 0 0 0 0 0.25 0"/>
<feBlend mode="normal" in2="BackgroundImageFix" result="effect1_dropShadow_2215_2434"/>
<feBlend mode="normal" in="SourceGraphic" in2="effect1_dropShadow_2215_2434" result="shape"/>
</filter>
</defs>
</svg>
