<svg width="46" height="38" viewBox="0 0 46 38" fill="none" xmlns="http://www.w3.org/2000/svg">
<path d="M15.7267 21.1981C13.7186 19.2449 11.2565 19.6421 10.5088 19.6527H10.4383C7.99949 19.7408 5.53349 18.831 3.67025 16.9268C1.00247 14.1955 0.331804 10.1943 1.66666 6.82545L6.45509 11.7271C7.82682 13.1315 10.0703 13.1315 11.4421 11.7271L11.4776 11.6907C12.8507 10.2857 12.8507 7.98813 11.4789 6.58377L6.6905 1.68142C9.98109 0.316128 13.8893 1.00341 16.5571 3.73466C18.4177 5.63959 19.3057 8.16625 19.2197 10.6624V10.7346C19.2081 11.5014 18.8077 14.0346 20.715 16.0918" stroke="#3D4755" stroke-width="1.98" stroke-linejoin="round"/>
<path d="M25.6367 31.3239L29.6193 35.4013C31.2944 37.1175 33.4519 37.6366 35.1282 35.9204C36.8032 34.2041 36.2826 32.0092 34.6076 30.2943L30.5008 26.0898" stroke="#3D4755" stroke-width="1.98" stroke-linejoin="round"/>
<path d="M30.6973 13.552L35.7981 8.32788L35.5445 5.97536L41.4796 2.27344L43.9993 4.85306L40.3854 10.9307L38.0869 10.6698L31.2871 17.6327" stroke="#3D4755" stroke-width="1.98"/>
<path d="M27.1089 19.5703L14.7188 32.2546" stroke="#3D4755" stroke-width="1.98" stroke-linecap="round" stroke-linejoin="round"/>
<path fill-rule="evenodd" clip-rule="evenodd" d="M16.8283 36.131C15.6965 37.2897 13.8443 37.2897 12.7118 36.131L10.9314 34.3075C9.79892 33.1488 9.79892 31.2531 10.9314 30.0944L24.9972 15.6933C26.129 14.5345 27.9806 14.5345 29.1124 15.6933L30.8935 17.5161C32.0253 18.6748 32.0253 20.5711 30.8935 21.7298L16.8283 36.131Z" stroke="#3D4755" stroke-width="1.98" stroke-linejoin="round"/>
</svg>
