<svg width="98" height="98" viewBox="0 0 98 98" fill="none" xmlns="http://www.w3.org/2000/svg">
<rect width="98" height="98" rx="49" fill="url(#paint0_linear_1216_538)" fill-opacity="0.05"/>
<rect x="12" y="12" width="74" height="74" rx="37" fill="url(#paint1_linear_1216_538)" fill-opacity="0.1"/>
<rect x="12.5" y="12.5" width="73" height="73" rx="36.5" stroke="url(#paint2_linear_1216_538)" stroke-opacity="0.2"/>
<path d="M63 52H59V48H57V57H41V41H50V39H46V35H44V39H41C40.4696 39 39.9609 39.2107 39.5858 39.5858C39.2107 39.9609 39 40.4696 39 41V44H35V46H39V52H35V54H39V57C39 57.5304 39.2107 58.0391 39.5858 58.4142C39.9609 58.7893 40.4696 59 41 59H44V63H46V59H52V63H54V59H57C57.5302 58.9992 58.0384 58.7882 58.4133 58.4133C58.7882 58.0384 58.9992 57.5302 59 57V54H63V52Z" fill="#FF7F50"/>
<path d="M54 54H44V44H54V54ZM46 52H52V46H46V52ZM64 46H62C61.9974 43.3486 60.9429 40.8066 59.0681 38.9319C57.1934 37.0571 54.6514 36.0026 52 36V34C55.1815 34.0034 58.2318 35.2688 60.4815 37.5185C62.7312 39.7682 63.9966 42.8185 64 46Z" fill="#FF7F50"/>
<path d="M59 46H57C56.9984 44.6744 56.4711 43.4036 55.5338 42.4662C54.5964 41.5289 53.3256 41.0016 52 41V39C53.8557 39.0026 55.6346 39.741 56.9468 41.0532C58.259 42.3654 58.9974 44.1443 59 46Z" fill="#FF7F50"/>
<defs>
<linearGradient id="paint0_linear_1216_538" x1="49" y1="0" x2="49" y2="98" gradientUnits="userSpaceOnUse">
<stop stop-color="#FF7F50"/>
<stop offset="1" stop-color="#FF7F50"/>
</linearGradient>
<linearGradient id="paint1_linear_1216_538" x1="49" y1="-37" x2="49" y2="203" gradientUnits="userSpaceOnUse">
<stop stop-color="#FF7F50"/>
<stop offset="0.467671" stop-color="#FF7F50"/>
</linearGradient>
<linearGradient id="paint2_linear_1216_538" x1="49" y1="-116.5" x2="49" y2="153" gradientUnits="userSpaceOnUse">
<stop offset="0.00899963" stop-color="#FF7F50" stop-opacity="0.66"/>
<stop offset="1" stop-color="#FF7F50"/>
</linearGradient>
</defs>
</svg>
