<svg width="30" height="30" viewBox="0 0 30 30" fill="none" xmlns="http://www.w3.org/2000/svg">
<path d="M27.2727 9H30V21H27.2727V9ZM0 9H2.72727V21H0V9ZM23.1818 6C23.1818 4.4087 22.8945 2.88258 22.383 1.75736C21.8716 0.632141 21.1779 0 20.4545 0H9.54545C8.82214 0 8.12844 0.632141 7.61698 1.75736C7.10552 2.88258 6.81818 4.4087 6.81818 6C6.09486 6 5.40117 6.63214 4.88971 7.75736C4.37825 8.88258 4.09091 10.4087 4.09091 12V18C4.09091 19.5913 4.37825 21.1174 4.88971 22.2426C5.40117 23.3679 6.09486 24 6.81818 24C6.81818 25.5913 7.10552 27.1174 7.61698 28.2426C8.12844 29.3679 8.82214 30 9.54545 30H10.9473L13.1318 21.672C13.3212 20.9506 13.5935 20.3515 13.9214 19.935C14.2494 19.5185 14.6213 19.2993 15 19.2993C15.3787 19.2993 15.7506 19.5185 16.0786 19.935C16.4065 20.3515 16.6788 20.9506 16.8682 21.672L19.0527 30H20.4545C21.1779 30 21.8716 29.3679 22.383 28.2426C22.8945 27.1174 23.1818 25.5913 23.1818 24C23.9051 24 24.5988 23.3679 25.1103 22.2426C25.6218 21.1174 25.9091 19.5913 25.9091 18V12C25.9091 10.4087 25.6218 8.88258 25.1103 7.75736C24.5988 6.63214 23.9051 6 23.1818 6ZM21.8182 15H8.18182V9H21.8182V15Z" fill="#0266FF"/>
</svg>
