<svg width="99" height="98" viewBox="0 0 99 98" fill="none" xmlns="http://www.w3.org/2000/svg">
<rect x="0.5" width="98" height="98" rx="49" fill="url(#paint0_linear_1216_548)" fill-opacity="0.05"/>
<rect x="12.5" y="12" width="74" height="74" rx="37" fill="url(#paint1_linear_1216_548)" fill-opacity="0.1"/>
<rect x="13" y="12.5" width="73" height="73" rx="36.5" stroke="url(#paint2_linear_1216_548)" stroke-opacity="0.2"/>
<path d="M48.9963 34.252C49.3107 34.0827 49.6893 34.0827 50.0037 34.252L63.8162 41.6895C64.1604 41.8748 64.375 42.2341 64.375 42.625C64.375 43.0159 64.1604 43.3752 63.8162 43.5605L50.0037 50.998C49.6893 51.1673 49.3107 51.1673 48.9963 50.998L35.1838 43.5605C34.8396 43.3752 34.625 43.0159 34.625 42.625C34.625 42.2341 34.8396 41.8748 35.1838 41.6895L48.9963 34.252Z" fill="#FF7F50"/>
<path d="M37.125 47.0192L47.9888 52.869C48.9322 53.377 50.0678 53.377 51.0112 52.869L61.875 47.0192L63.8162 48.0645C64.1604 48.2498 64.375 48.6091 64.375 49C64.375 49.3909 64.1604 49.7502 63.8162 49.9355L50.0037 57.373C49.6893 57.5423 49.3107 57.5423 48.9963 57.373L35.1838 49.9355C34.8396 49.7502 34.625 49.3909 34.625 49C34.625 48.6091 34.8396 48.2498 35.1838 48.0645L37.125 47.0192Z" fill="#FF7F50"/>
<path d="M47.9888 59.244L37.125 53.3942L35.1838 54.4395C34.8396 54.6248 34.625 54.9841 34.625 55.375C34.625 55.7659 34.8396 56.1252 35.1838 56.3105L48.9963 63.748C49.3107 63.9173 49.6893 63.9173 50.0037 63.748L63.8162 56.3105C64.1604 56.1252 64.375 55.7659 64.375 55.375C64.375 54.9841 64.1604 54.6248 63.8162 54.4395L61.875 53.3942L51.0112 59.244C50.0678 59.752 48.9322 59.752 47.9888 59.244Z" fill="#FF7F50"/>
<defs>
<linearGradient id="paint0_linear_1216_548" x1="49.5" y1="0" x2="49.5" y2="98" gradientUnits="userSpaceOnUse">
<stop stop-color="#FF7F50"/>
<stop offset="1" stop-color="#FF7F50"/>
</linearGradient>
<linearGradient id="paint1_linear_1216_548" x1="49.5" y1="-37" x2="49.5" y2="203" gradientUnits="userSpaceOnUse">
<stop stop-color="#FF7F50"/>
<stop offset="0.467671" stop-color="#FF7F50"/>
</linearGradient>
<linearGradient id="paint2_linear_1216_548" x1="49.5" y1="-116.5" x2="49.5" y2="153" gradientUnits="userSpaceOnUse">
<stop offset="0.00899963" stop-color="#FF7F50" stop-opacity="0.66"/>
<stop offset="1" stop-color="#FF7F50"/>
</linearGradient>
</defs>
</svg>
