<svg width="40" height="40" viewBox="0 0 40 40" fill="none" xmlns="http://www.w3.org/2000/svg">
<path fill-rule="evenodd" clip-rule="evenodd" d="M33.0463 6.95372C31.7961 5.70395 30.1008 5.00187 28.3331 5.00187C26.5654 5.00187 24.87 5.70395 23.6199 6.95372L6.95372 23.6199C6.31701 24.2349 5.80914 24.9705 5.45976 25.7838C5.11037 26.5971 4.92647 27.4719 4.91878 28.3571C4.91109 29.2422 5.07976 30.1201 5.41496 30.9394C5.75015 31.7587 6.24516 32.503 6.87109 33.1289C7.49702 33.7548 8.24135 34.2499 9.06063 34.585C9.87992 34.9202 10.7578 35.0889 11.6429 35.0812C12.5281 35.0735 13.4029 34.8896 14.2162 34.5402C15.0295 34.1909 15.7651 33.683 16.3801 33.0463L18.2334 31.1963C18.7073 30.7547 19.3341 30.5143 19.9817 30.5258C20.6294 30.5372 21.2473 30.7996 21.7054 31.2576C22.1634 31.7156 22.4258 32.3336 22.4372 32.9812C22.4486 33.6289 22.2082 34.2557 21.7666 34.7296L19.9167 36.5828C17.7287 38.7708 14.7612 40 11.6669 40C8.57266 40 5.60513 38.7708 3.41716 36.5828C1.22919 34.3949 0 31.4273 0 28.3331C0 25.2388 1.22919 22.2713 3.41716 20.0833L20.0833 3.41716C22.2713 1.22919 25.2388 0 28.3331 0C31.4273 0 34.3949 1.22919 36.5828 3.41716C38.7708 5.60513 40 8.57266 40 11.6669C40 14.7612 38.7708 17.7287 36.5828 19.9167L30.0097 26.4898C28.6814 27.8185 26.8798 28.5651 25.001 28.5654C23.1223 28.5658 21.3204 27.8197 19.9917 26.4915C18.663 25.1632 17.9163 23.3615 17.916 21.4828C17.9157 19.6041 18.6617 17.8021 19.99 16.4734L26.5665 9.9003C26.7953 9.65469 27.0713 9.45768 27.378 9.32105C27.6846 9.18441 28.0157 9.11094 28.3513 9.10502C28.687 9.0991 29.0204 9.16084 29.3317 9.28658C29.643 9.41231 29.9258 9.59945 30.1632 9.83684C30.4005 10.0742 30.5877 10.357 30.7134 10.6683C30.8392 10.9796 30.9009 11.313 30.895 11.6487C30.8891 11.9843 30.8156 12.3154 30.679 12.622C30.5423 12.9287 30.3453 13.2047 30.0997 13.4335L23.5266 20.01C23.1551 20.4045 22.9519 20.9282 22.9602 21.4701C22.9685 22.0119 23.1876 22.5292 23.5709 22.9121C23.9543 23.2951 24.4719 23.5136 25.0137 23.5213C25.5555 23.529 26.0791 23.3252 26.4731 22.9532L33.0463 16.3801C34.296 15.13 34.9981 13.4346 34.9981 11.6669C34.9981 9.89921 34.296 8.20387 33.0463 6.95372Z" fill="black"/>
</svg>
