<svg width="43" height="38" viewBox="0 0 43 38" fill="none" xmlns="http://www.w3.org/2000/svg">
<path d="M20.5895 0.106727L7.95791 6.2832C7.17288 6.66705 7.17288 7.78589 7.95791 8.16974L20.5895 14.3462C20.8805 14.4885 21.2209 14.4885 21.512 14.3462L34.1435 8.16974C34.9286 7.78589 34.9286 6.66705 34.1435 6.2832L21.512 0.106727C21.2209 -0.0355756 20.8805 -0.0355756 20.5895 0.106727ZM21.0507 2.219L31.2917 7.226L21.0507 12.233L10.8087 7.226L21.0507 2.219Z" fill="#3D4755"/>
<path d="M41.0505 24.707H26.3137C25.7338 24.707 25.2637 25.1771 25.2637 25.757V36.0511C25.2637 36.631 25.7338 37.1011 26.3137 37.1011H41.0505C41.6304 37.1011 42.1005 36.631 42.1005 36.0511V25.757C42.1005 25.1771 41.6304 24.707 41.0505 24.707ZM40.0005 26.8061V35.0001H27.3635V26.8061H40.0005Z" fill="#3D4755"/>
<path d="M15.7868 24.7051H1.05C0.470101 24.7051 0 25.1752 0 25.7551V36.0492C0 36.6291 0.470101 37.0992 1.05 37.0992H15.7868C16.3667 37.0992 16.8368 36.6291 16.8368 36.0492V25.7551C16.8368 25.1752 16.3667 24.7051 15.7868 24.7051ZM14.736 26.8042V34.9982H2.1V26.8042H14.736Z" fill="#3D4755"/>
<path d="M21.05 15.4414C21.5912 15.4414 22.0368 15.8509 22.0938 16.377L22.1 16.4914V18.5502C22.1 19.1301 21.6299 19.6002 21.05 19.6002C20.5088 19.6002 20.0632 19.1907 20.0062 18.6646L20 18.5502V16.4914C20 15.9115 20.4701 15.4414 21.05 15.4414Z" fill="#3D4755"/>
<path d="M31.577 18.5293C33.2545 18.5293 34.6341 19.8219 34.7273 21.4612L34.7323 21.6381V22.6675C34.7323 23.2474 34.2622 23.7175 33.6823 23.7175C33.1411 23.7175 32.6955 23.308 32.6385 22.7819L32.6323 22.6675V21.6381C32.6323 21.1231 32.2252 20.6906 31.6929 20.6353L31.577 20.6293H10.5244C9.97562 20.6293 9.53198 21.0274 9.47527 21.5291L9.46914 21.6381V22.6675C9.46914 23.2474 8.99904 23.7175 8.41914 23.7175C7.8779 23.7175 7.43231 23.308 7.3753 22.7819L7.36914 22.6675V21.6381C7.36914 19.9752 8.69088 18.6253 10.3459 18.5342L10.5244 18.5293H31.577Z" fill="#3D4755"/>
</svg>
