<svg width="29" height="43" viewBox="0 0 29 43" fill="none" xmlns="http://www.w3.org/2000/svg">
<path d="M14.5878 0C6.65188 0 0.17558 6.05216 0.175562 13.5238C0.175571 17.2168 1.76175 20.5568 4.32048 22.9969L0.0277808 39.4232C-0.0610266 39.7597 0.0671898 40.1147 0.353671 40.3256C0.640152 40.5364 1.02968 40.5625 1.34374 40.3919L6.6498 37.5198L9.76377 42.573C9.94944 42.8764 10.3072 43.0415 10.6692 42.991C11.0312 42.9405 11.3255 42.6843 11.414 42.3427L14.4998 30.5428L17.5856 42.3427C17.6742 42.6843 17.9685 42.9405 18.3304 42.991C18.6924 43.0415 19.0502 42.8764 19.2359 42.573L22.3498 37.5198L27.6559 40.3919C27.97 40.5625 28.3595 40.5364 28.646 40.3256C28.9324 40.1147 29.0607 39.7597 28.9719 39.4232L24.7143 23.1324C27.3569 20.6815 29 17.285 29 13.5238C29 6.05216 22.5237 0 14.5878 0ZM14.5878 1.73408C21.5762 1.73408 27.1985 7.01527 27.1985 13.5238C27.1985 20.0321 21.5762 25.3135 14.5878 25.3135C7.59937 25.3135 1.97709 20.0321 1.97709 13.5238C1.97709 7.01527 7.59937 1.73408 14.5878 1.73408ZM14.535 8.05399C14.2557 8.06868 13.999 8.20221 13.8383 8.41638L11.977 10.8922L8.88412 11.7897C8.60205 11.8725 8.38022 12.0778 8.2887 12.3407C8.19718 12.6036 8.24728 12.8917 8.42318 13.114L10.3584 15.5424L10.3127 18.5702C10.31 18.8033 10.4091 19.0273 10.5871 19.1903C10.7652 19.3534 11.0066 19.4413 11.2557 19.4339C11.3468 19.4307 11.437 19.4147 11.5231 19.3865L14.5878 18.4111L17.649 19.3865C17.9295 19.4765 18.2394 19.4336 18.48 19.2714C18.7206 19.1091 18.862 18.8477 18.8594 18.5702L18.8171 15.5424L20.7524 13.114C20.9282 12.8913 20.9778 12.6027 20.8856 12.3397C20.7933 12.0767 20.5706 11.8717 20.2879 11.7897L17.1986 10.8922L15.3337 8.41638C15.1523 8.17461 14.8503 8.03758 14.535 8.05399ZM14.5878 10.3909L15.8861 12.1115C16.0018 12.2659 16.1688 12.3802 16.3612 12.4366L18.5145 13.0632L17.1634 14.7498C17.0428 14.9002 16.9785 15.0835 16.9804 15.2714L17.0156 17.3781L14.8833 16.7007C14.6917 16.6394 14.4838 16.6394 14.2922 16.7007L12.1599 17.3781L12.1951 15.2714C12.1961 15.0831 12.1305 14.8997 12.0086 14.7498L10.6575 13.0632L12.8144 12.4366C13.0054 12.3796 13.1711 12.2653 13.2859 12.1115L14.5878 10.3909ZM5.85108 24.2534C8.02513 25.815 10.678 26.8056 13.5674 26.9968L10.2001 39.8771L7.75113 35.9076C7.50207 35.5033 6.96365 35.3636 6.53721 35.5927L2.28321 37.8924L5.85108 24.2534ZM23.1767 24.3584L26.7164 37.8924L22.4624 35.5927C22.036 35.3636 21.4976 35.5033 21.2485 35.9076L18.7996 39.8771L15.4358 27.0069C18.3262 26.848 20.9869 25.8901 23.1767 24.3584Z" fill="#3D4755"/>
</svg>
