<svg width="55" height="40" viewBox="0 0 55 40" fill="none" xmlns="http://www.w3.org/2000/svg">
<path d="M11.7855 0.795034C12.0378 1.04699 12.2379 1.34619 12.3744 1.67553C12.5109 2.00487 12.5812 2.3579 12.5812 2.71441C12.5812 3.07093 12.5109 3.42395 12.3744 3.75329C12.2379 4.08264 12.0378 4.38184 11.7855 4.63379C7.71465 8.70536 5.42771 14.2272 5.42771 19.9848C5.42771 25.7423 7.71465 31.2642 11.7855 35.3357C12.0446 35.586 12.2513 35.8854 12.3935 36.2163C12.5357 36.5473 12.6105 36.9033 12.6137 37.2635C12.6168 37.6237 12.5481 37.981 12.4117 38.3144C12.2753 38.6478 12.0739 38.9507 11.8192 39.2054C11.5644 39.4601 11.2615 39.6616 10.9281 39.798C10.5947 39.9344 10.2375 40.003 9.87728 39.9999C9.51706 39.9968 9.16107 39.9219 8.83009 39.7798C8.4991 39.6376 8.19975 39.4309 7.94949 39.1718C-2.64983 28.5752 -2.64983 11.3916 7.94949 0.795034C8.45823 0.286443 9.14815 0.000732185 9.86751 0.000732185C10.5869 0.000732185 11.2768 0.286443 11.7855 0.795034ZM46.3262 0.795034C56.9228 11.3944 56.9228 28.5752 46.3262 39.1718C45.8175 39.6808 45.1275 39.967 44.4078 39.9672C43.6882 39.9675 42.9979 39.6818 42.4888 39.1731C41.9798 38.6644 41.6937 37.9744 41.6934 37.2547C41.6932 36.5351 41.9788 35.8448 42.4875 35.3357C46.5584 31.2642 48.8453 25.7423 48.8453 19.9848C48.8453 14.2272 46.5584 8.70536 42.4875 4.63379C41.9784 4.12474 41.6924 3.43432 41.6924 2.71441C41.6924 1.99451 41.9784 1.30409 42.4875 0.795034C42.9965 0.285983 43.687 1.41911e-08 44.4069 0C45.1268 -1.41911e-08 45.8172 0.285983 46.3262 0.795034ZM19.8347 8.59192C20.3433 9.10067 20.629 9.79058 20.629 10.5099C20.629 11.2293 20.3433 11.9192 19.8347 12.428C18.8471 13.4155 18.0637 14.5879 17.5292 15.8782C16.9947 17.1685 16.7195 18.5515 16.7195 19.9481C16.7195 21.3448 16.9947 22.7278 17.5292 24.0181C18.0637 25.3084 18.8471 26.4808 19.8347 27.4683C20.0866 27.7204 20.2864 28.0196 20.4226 28.3488C20.5589 28.6781 20.6289 29.031 20.6288 29.3873C20.6287 29.7436 20.5584 30.0965 20.4219 30.4256C20.2854 30.7548 20.0854 31.0538 19.8334 31.3057C19.5813 31.5576 19.2821 31.7574 18.9529 31.8936C18.6236 32.0299 18.2707 32.0999 17.9144 32.0998C17.5581 32.0997 17.2052 32.0294 16.8761 31.8929C16.5469 31.7564 16.2478 31.5564 15.996 31.3044C12.9842 28.2925 11.2922 24.2075 11.2922 19.9481C11.2922 15.6888 12.9842 11.6038 15.996 8.59192C16.2479 8.33969 16.5471 8.13958 16.8765 8.00306C17.2058 7.86653 17.5588 7.79626 17.9153 7.79626C18.2719 7.79626 18.6249 7.86653 18.9542 8.00306C19.2836 8.13958 19.5828 8.33969 19.8347 8.59192ZM38.7111 8.59192C41.7229 11.6038 43.4149 15.6888 43.4149 19.9481C43.4149 24.2075 41.7229 28.2925 38.7111 31.3044C38.1995 31.7985 37.5142 32.072 36.8029 32.0658C36.0915 32.0596 35.4111 31.7743 34.9081 31.2713C34.4051 30.7683 34.1198 30.0879 34.1136 29.3766C34.1074 28.6653 34.3809 27.98 34.8751 27.4683C35.8627 26.4808 36.6461 25.3084 37.1806 24.0181C37.7151 22.7278 37.9902 21.3448 37.9902 19.9481C37.9902 18.5515 37.7151 17.1685 37.1806 15.8782C36.6461 14.5879 35.8627 13.4155 34.8751 12.428C34.3809 11.9163 34.1074 11.231 34.1136 10.5197C34.1198 9.8084 34.4051 9.12796 34.9081 8.62497C35.4111 8.12197 36.0915 7.83666 36.8029 7.83048C37.5142 7.8243 38.1995 8.09774 38.7111 8.59192ZM27.3549 16.1067C28.4342 16.1067 29.4692 16.5354 30.2324 17.2986C30.9955 18.0617 31.4243 19.0968 31.4243 20.176C31.4243 21.2553 30.9955 22.2903 30.2324 23.0535C29.4692 23.8166 28.4342 24.2454 27.3549 24.2454C26.2756 24.2454 25.2406 23.8166 24.4774 23.0535C23.7143 22.2903 23.2855 21.2553 23.2855 20.176C23.2855 19.0968 23.7143 18.0617 24.4774 17.2986C25.2406 16.5354 26.2756 16.1067 27.3549 16.1067Z" fill="black"/>
</svg>
