<svg width="39" height="39" viewBox="0 0 39 39" fill="none" xmlns="http://www.w3.org/2000/svg">
<path d="M19.5 38C29.7173 38 38 29.7173 38 19.5C38 9.28273 29.7173 1 19.5 1C9.28273 1 1 9.28273 1 19.5C1 29.7173 9.28273 38 19.5 38Z" stroke="#3D4755" stroke-width="1.848" stroke-linecap="round" stroke-linejoin="round"/>
<path fill-rule="evenodd" clip-rule="evenodd" d="M19.4998 25.668C14.0275 25.668 9.12536 28.058 5.73828 31.8346C9.12536 35.6113 14.0275 38.0013 19.4998 38.0013C24.9721 38.0013 29.8742 35.6113 33.2612 31.8346C29.8742 28.058 24.9721 25.668 19.4998 25.668Z" stroke="#3D4755" stroke-width="1.848" stroke-linecap="round" stroke-linejoin="round"/>
<path d="M19.5 4.69922V5.93255" stroke="#3D4755" stroke-width="1.848" stroke-linecap="round" stroke-linejoin="round"/>
<path d="M9.03516 9.03516L9.90726 9.90726" stroke="#3D4755" stroke-width="1.848" stroke-linecap="round" stroke-linejoin="round"/>
<path d="M4.69922 19.5H5.93255" stroke="#3D4755" stroke-width="1.848" stroke-linecap="round" stroke-linejoin="round"/>
<path d="M34.2997 19.5H33.0664" stroke="#3D4755" stroke-width="1.848" stroke-linecap="round" stroke-linejoin="round"/>
<path d="M29.9658 9.03516L29.0938 9.90726" stroke="#3D4755" stroke-width="1.848" stroke-linecap="round" stroke-linejoin="round"/>
<path d="M19.5 25.6664L31.8333 14.5664" stroke="#3D4755" stroke-width="1.848" stroke-linecap="round" stroke-linejoin="round"/>
</svg>
