<svg width="31" height="37" viewBox="0 0 31 37" fill="none" xmlns="http://www.w3.org/2000/svg">
<path d="M25.3969 2.24741H22.575V1.34441C22.575 0.845693 22.1539 0.441406 21.6344 0.441406H8.46562C7.94613 0.441406 7.525 0.845693 7.525 1.34441V2.24741H4.70312C2.10566 2.24741 0 4.26884 0 6.76241V32.0464C0 34.54 2.10566 36.5614 4.70312 36.5614H25.3969C27.9943 36.5614 30.1 34.54 30.1 32.0464V6.76241C30.1 4.26884 27.9943 2.24741 25.3969 2.24741ZM9.40625 2.24741H20.6938V4.05341H9.40625V2.24741ZM28.2188 32.0464C28.2188 33.5425 26.9554 34.7554 25.3969 34.7554H4.70312C3.14465 34.7554 1.88125 33.5425 1.88125 32.0464V6.76241C1.88125 5.26627 3.14465 4.05341 4.70312 4.05341H7.525V4.95641C7.525 5.45512 7.94613 5.85941 8.46562 5.85941H21.6344C22.1539 5.85941 22.575 5.45512 22.575 4.95641V4.05341H25.3969C26.9554 4.05341 28.2188 5.26627 28.2188 6.76241V32.0464Z" fill="#657285" fill-opacity="0.5"/>
<path d="M21.6348 11.2773H8.46602C7.94652 11.2773 7.52539 11.6816 7.52539 12.1803C7.52539 12.6791 7.94652 13.0833 8.46602 13.0833H21.6348C22.1543 13.0833 22.5754 12.6791 22.5754 12.1803C22.5754 11.6816 22.1543 11.2773 21.6348 11.2773Z" fill="#657285" fill-opacity="0.5"/>
<path d="M21.6348 16.6953H8.46602C7.94652 16.6953 7.52539 17.0996 7.52539 17.5983C7.52539 18.097 7.94652 18.5013 8.46602 18.5013H21.6348C22.1543 18.5013 22.5754 18.097 22.5754 17.5983C22.5754 17.0996 22.1543 16.6953 21.6348 16.6953Z" fill="#657285" fill-opacity="0.5"/>
<path d="M21.6348 22.1133H8.46602C7.94652 22.1133 7.52539 22.5176 7.52539 23.0163C7.52539 23.515 7.94652 23.9193 8.46602 23.9193H21.6348C22.1543 23.9193 22.5754 23.515 22.5754 23.0163C22.5754 22.5176 22.1543 22.1133 21.6348 22.1133Z" fill="#657285" fill-opacity="0.5"/>
<path d="M15.991 27.5312H8.46602C7.94652 27.5312 7.52539 27.9355 7.52539 28.4342C7.52539 28.933 7.94652 29.3372 8.46602 29.3372H15.991C16.5105 29.3372 16.9316 28.933 16.9316 28.4342C16.9316 27.9355 16.5105 27.5312 15.991 27.5312Z" fill="#657285" fill-opacity="0.5"/>
</svg>
