<svg width="18" height="18" viewBox="0 0 18 18" fill="none" xmlns="http://www.w3.org/2000/svg">
<path d="M17.7584 0.671475C17.7358 0.566271 17.6833 0.469829 17.6072 0.393743C17.5311 0.317657 17.4346 0.265164 17.3294 0.242575C16.197 0 15.3112 0 14.4286 0C10.7995 0 8.62271 1.9406 6.9984 4.49994H3.33414C3.0212 4.5002 2.7145 4.58743 2.44828 4.75188C2.18206 4.91633 1.96682 5.15153 1.82658 5.43121L0.0886951 8.9046C0.024515 9.03327 -0.00570984 9.1762 0.00088895 9.31983C0.00748774 9.46346 0.0506913 9.60302 0.126399 9.72527C0.202107 9.84751 0.307808 9.94839 0.43347 10.0183C0.559132 10.0883 0.700585 10.1249 0.844406 10.1249H4.49355L3.70338 10.9148C3.49239 11.1258 3.37387 11.4119 3.37387 11.7102C3.37387 12.0085 3.49239 12.2946 3.70338 12.5056L5.49331 14.2954C5.59781 14.3999 5.72187 14.4828 5.85842 14.5393C5.99496 14.5959 6.14131 14.625 6.28911 14.625C6.43691 14.625 6.58326 14.5959 6.7198 14.5393C6.85635 14.4828 6.98041 14.3999 7.08491 14.2954L7.87508 13.5054V17.156C7.87504 17.2997 7.91173 17.4411 7.98166 17.5667C8.0516 17.6923 8.15246 17.7979 8.27469 17.8736C8.39692 17.9493 8.53647 17.9925 8.68009 17.9991C8.82371 18.0057 8.96664 17.9756 9.09533 17.9115L12.5662 16.1752C12.8464 16.0352 13.082 15.82 13.2467 15.5536C13.4113 15.2871 13.4983 14.9801 13.4981 14.667V10.9964C16.0508 9.36866 17.9993 7.18548 17.9993 3.57534C18.0028 2.68941 18.0028 1.80349 17.7584 0.671475ZM13.5016 5.90617C13.2234 5.90617 12.9514 5.82369 12.7201 5.66917C12.4888 5.51466 12.3085 5.29503 12.202 5.03808C12.0956 4.78112 12.0677 4.49838 12.122 4.22559C12.1763 3.95281 12.3102 3.70225 12.507 3.50558C12.7037 3.30892 12.9543 3.17499 13.2272 3.12073C13.5 3.06647 13.7829 3.09432 14.0399 3.20075C14.2969 3.30718 14.5166 3.48742 14.6712 3.71868C14.8257 3.94993 14.9082 4.22181 14.9082 4.49994C14.9082 4.87289 14.76 5.23057 14.4962 5.49429C14.2324 5.75801 13.8747 5.90617 13.5016 5.90617Z" fill="#0266FF"/>
</svg>
