<svg width="45" height="40" viewBox="0 0 45 40" fill="none" xmlns="http://www.w3.org/2000/svg">
<path fill-rule="evenodd" clip-rule="evenodd" d="M22.2222 3.75041e-07C23.79 -0.000454971 25.3299 0.413733 26.6859 1.20055C28.0419 1.98737 29.1657 3.11882 29.9433 4.48014C30.7209 5.84147 31.1246 7.38422 31.1135 8.95193C31.1023 10.5196 30.6768 12.0565 29.88 13.4067C31.3913 13.6337 32.7786 14.373 33.8098 15.5009C34.841 16.6288 35.4534 18.0767 35.5444 19.6022L35.5556 20V20.4667L39.3622 18.12C39.8466 17.8212 40.3994 17.6514 40.9679 17.6268C41.5365 17.6021 42.1019 17.7235 42.6103 17.9792C43.1187 18.235 43.5531 18.6166 43.8722 19.0878C44.1914 19.559 44.3845 20.1041 44.4333 20.6711L44.4444 20.9578V32.3756C44.4446 32.9447 44.2991 33.5044 44.0216 34.0014C43.7442 34.4983 43.3441 34.916 42.8596 35.2145C42.375 35.5131 41.822 35.6826 41.2534 35.7069C40.6848 35.7312 40.1194 35.6095 39.6111 35.3533L39.3622 35.2133L35.5556 32.8667V33.3333C35.5556 35.0338 34.9059 36.67 33.7394 37.9072C32.5728 39.1445 30.9775 39.8891 29.28 39.9889L28.8889 40H6.66667C4.9662 40.0001 3.32997 39.3504 2.09275 38.1838C0.85554 37.0172 0.110872 35.422 0.0111114 33.7244L7.75544e-08 33.3333V20C-0.000181394 18.8101 0.318113 17.6418 0.921846 16.6165C1.52558 15.5911 2.39274 14.746 3.43333 14.1689C2.44633 12.6153 2.04229 10.762 2.29305 8.93855C2.54381 7.1151 3.43312 5.43967 4.80285 4.21017C6.17258 2.98066 7.93396 2.27676 9.7738 2.22364C11.6136 2.17051 13.4127 2.77159 14.8511 3.92C15.6648 2.71298 16.7626 1.72429 18.0478 1.04078C19.3331 0.357275 20.7665 -0.000119491 22.2222 3.75041e-07ZM28.8889 17.7778H6.66667C6.0773 17.7778 5.51207 18.0119 5.09532 18.4287C4.67857 18.8454 4.44444 19.4106 4.44444 20V33.3333C4.44444 33.9227 4.67857 34.4879 5.09532 34.9047C5.51207 35.3214 6.0773 35.5556 6.66667 35.5556H28.8889C29.4783 35.5556 30.0435 35.3214 30.4602 34.9047C30.877 34.4879 31.1111 33.9227 31.1111 33.3333V20C31.1111 19.4106 30.877 18.8454 30.4602 18.4287C30.0435 18.0119 29.4783 17.7778 28.8889 17.7778ZM40 22.9467L35.5556 25.6844V27.6467L40 30.3844V22.9467ZM22.2222 4.44445C21.0435 4.44445 19.913 4.9127 19.0795 5.74619C18.246 6.57969 17.7778 7.71015 17.7778 8.88889C17.7778 10.0676 18.246 11.1981 19.0795 12.0316C19.913 12.8651 21.0435 13.3333 22.2222 13.3333C23.401 13.3333 24.5314 12.8651 25.3649 12.0316C26.1984 11.1981 26.6667 10.0676 26.6667 8.88889C26.6667 7.71015 26.1984 6.57969 25.3649 5.74619C24.5314 4.9127 23.401 4.44445 22.2222 4.44445ZM10 6.66667C9.11594 6.66667 8.2681 7.01786 7.64298 7.64298C7.01786 8.2681 6.66667 9.11595 6.66667 10C6.66667 10.8841 7.01786 11.7319 7.64298 12.357C8.2681 12.9821 9.11594 13.3333 10 13.3333C10.8841 13.3333 11.7319 12.9821 12.357 12.357C12.9821 11.7319 13.3333 10.8841 13.3333 10C13.3333 9.11595 12.9821 8.2681 12.357 7.64298C11.7319 7.01786 10.8841 6.66667 10 6.66667Z" fill="black"/>
</svg>
