<svg width="20" height="18" viewBox="0 0 20 18" fill="none" xmlns="http://www.w3.org/2000/svg">
<path d="M18.3424 11.5714L19.5652 18H0L1.22283 11.5714H3.4392C3.11438 10.9821 2.86918 10.3627 2.70359 9.71317C2.538 9.06362 2.45202 8.39732 2.44565 7.71429C2.44565 7.00446 2.53163 6.32143 2.70359 5.66518C2.87555 5.00893 3.12394 4.39621 3.44875 3.82701C3.77356 3.25781 4.1557 2.73549 4.59515 2.26004C5.0346 1.7846 5.52819 1.38281 6.07592 1.05469C6.62364 0.726562 7.20958 0.46875 7.83373 0.28125C8.45788 0.09375 9.10751 0 9.78261 0C10.4577 0 11.1073 0.0904018 11.7315 0.271205C12.3556 0.452009 12.9384 0.71317 13.4797 1.05469C14.0211 1.39621 14.5179 1.79799 14.9701 2.26004C15.4223 2.7221 15.8044 3.24107 16.1165 3.81696C16.4285 4.39286 16.6737 5.00893 16.8521 5.66518C17.0304 6.32143 17.1196 7.00446 17.1196 7.71429C17.1196 8.39732 17.0368 9.06362 16.8712 9.71317C16.7056 10.3627 16.4572 10.9821 16.126 11.5714H18.3424ZM15.8967 7.71429C15.8967 7.5 15.8872 7.28571 15.8681 7.07143C15.849 6.85714 15.8171 6.64286 15.7725 6.42857H13.3938C13.432 6.86384 13.4511 7.29241 13.4511 7.71429C13.4511 8.14286 13.432 8.57143 13.3938 9H15.7725C15.8108 8.78571 15.8394 8.57143 15.8585 8.35714C15.8776 8.14286 15.8904 7.92857 15.8967 7.71429ZM7.39428 9H12.1709C12.2092 8.57143 12.2283 8.14286 12.2283 7.71429C12.2283 7.29241 12.2092 6.86384 12.1709 6.42857H7.39428C7.35606 6.86384 7.33696 7.29241 7.33696 7.71429C7.33696 8.14286 7.35606 8.57143 7.39428 9ZM11.999 10.2857H7.56624C7.59171 10.4397 7.63629 10.6406 7.69998 10.8884C7.76367 11.1362 7.84328 11.4074 7.93882 11.702C8.03435 11.9967 8.1458 12.2846 8.27318 12.5658C8.40056 12.8471 8.54068 13.1083 8.69353 13.3493C8.84638 13.5904 9.01516 13.7812 9.19985 13.9219C9.38455 14.0625 9.5788 14.1362 9.78261 14.1429C9.98641 14.1429 10.1775 14.0692 10.3558 13.9219C10.5341 13.7746 10.7029 13.5837 10.8621 13.3493C11.0214 13.115 11.1615 12.8538 11.2825 12.5658C11.4035 12.2779 11.5149 11.99 11.6168 11.702C11.7187 11.4141 11.7984 11.1462 11.8557 10.8984C11.913 10.6507 11.9608 10.4464 11.999 10.2857ZM7.44204 13.6507C7.14907 13.1417 6.91342 12.5993 6.7351 12.0234C6.55677 11.4475 6.41984 10.8683 6.3243 10.2857H4.18436C4.33721 10.6406 4.52828 10.9855 4.75756 11.3203C4.98684 11.6551 5.24159 11.9732 5.52182 12.2746C5.80205 12.5759 6.10776 12.8404 6.43894 13.0681C6.77013 13.2958 7.10449 13.49 7.44204 13.6507ZM13.2409 10.2857C13.139 10.8616 13.0021 11.4375 12.8301 12.0134C12.6582 12.5893 12.4257 13.135 12.1327 13.6507C12.4766 13.49 12.8078 13.2924 13.1263 13.058C13.4447 12.8237 13.7472 12.5625 14.0338 12.2746C14.3204 11.9866 14.5784 11.6719 14.8077 11.3304C15.0369 10.9888 15.228 10.6406 15.3809 10.2857H13.2409ZM15.3809 5.14286C15.056 4.38616 14.6166 3.71652 14.0625 3.13393C13.5084 2.55134 12.862 2.09933 12.1232 1.7779C12.4161 2.28683 12.6486 2.82924 12.8206 3.40513C12.9925 3.98103 13.1326 4.56027 13.2409 5.14286H15.3809ZM9.78261 1.28571C9.5788 1.28571 9.38774 1.35938 9.20941 1.5067C9.03108 1.65402 8.8623 1.84487 8.70308 2.07924C8.54386 2.31362 8.40374 2.57478 8.28274 2.86272C8.16173 3.15067 8.05027 3.43862 7.94837 3.72656C7.84647 4.01451 7.76367 4.28237 7.69998 4.53013C7.63629 4.7779 7.59171 4.98214 7.56624 5.14286H11.999C11.9671 4.98884 11.9226 4.78795 11.8652 4.54018C11.8079 4.29241 11.7283 4.02121 11.6264 3.72656C11.5245 3.43192 11.413 3.14397 11.292 2.86272C11.171 2.58147 11.0309 2.32031 10.8717 2.07924C10.7125 1.83817 10.5437 1.64732 10.3654 1.5067C10.187 1.36607 9.99278 1.29241 9.78261 1.28571ZM7.44204 1.7779C6.70962 2.09933 6.06636 2.55134 5.51227 3.13393C4.95818 3.71652 4.51554 4.38616 4.18436 5.14286H6.3243C6.42621 4.56027 6.56314 3.98103 6.7351 3.40513C6.90706 2.82924 7.1427 2.28683 7.44204 1.7779ZM3.79267 6.42857C3.75446 6.64286 3.7258 6.85714 3.70669 7.07143C3.68758 7.28571 3.67485 7.5 3.66848 7.71429C3.66848 7.92857 3.67803 8.14286 3.69714 8.35714C3.71624 8.57143 3.74809 8.78571 3.79267 9H6.17145C6.13324 8.57143 6.11413 8.14286 6.11413 7.71429C6.11413 7.29241 6.13324 6.86384 6.17145 6.42857H3.79267ZM1.49032 16.7143H18.0749L17.3393 12.8571H15.2376C14.8936 13.2656 14.5147 13.6272 14.1007 13.942C13.6867 14.2567 13.2441 14.5279 12.7728 14.7556C12.3015 14.9833 11.8175 15.1507 11.3207 15.2578C10.8239 15.365 10.3112 15.4219 9.78261 15.4286C9.26036 15.4286 8.74766 15.3717 8.24452 15.2578C7.74138 15.144 7.25735 14.9766 6.79242 14.7556C6.32749 14.5346 5.88803 14.2667 5.47406 13.952C5.06008 13.6373 4.67795 13.2723 4.32766 12.8571H2.22593L1.49032 16.7143Z" fill="#0266FF"/>
</svg>
