<svg width="567" height="484" viewBox="0 0 567 484" fill="none" xmlns="http://www.w3.org/2000/svg">
<mask id="mask0_1216_484" style="mask-type:alpha" maskUnits="userSpaceOnUse" x="0" y="0" width="567" height="484">
<rect width="567" height="483.122" fill="url(#paint0_radial_1216_484)"/>
<rect x="0.5" y="0.5" width="566" height="482.122" stroke="#FEA800" stroke-opacity="0.44"/>
</mask>
<g mask="url(#mask0_1216_484)">
<rect x="19.2969" y="-11.6792" width="75.5804" height="72.6054" stroke="#FEA800" stroke-opacity="0.44"/>
<rect x="95.8828" y="-11.6792" width="76.1013" height="72.6054" stroke="#FEA800" stroke-opacity="0.44"/>
<rect x="172.984" y="-11.6792" width="75.5804" height="72.6054" stroke="#FEA800" stroke-opacity="0.44"/>
<rect x="249.562" y="-11.6792" width="76.1013" height="72.6054" stroke="#FEA800" stroke-opacity="0.44"/>
<rect x="326.664" y="-11.6792" width="75.5804" height="72.6054" stroke="#FEA800" stroke-opacity="0.44"/>
<rect x="403.242" y="-11.6792" width="76.1013" height="72.6054" stroke="#FEA800" stroke-opacity="0.44"/>
<rect x="480.352" y="-11.6792" width="75.5804" height="72.6054" stroke="#FEA800" stroke-opacity="0.44"/>
<rect x="19.2969" y="61.926" width="75.5804" height="72.6054" stroke="#FEA800" stroke-opacity="0.44"/>
<rect x="95.8828" y="61.926" width="76.1013" height="72.6054" stroke="#FEA800" stroke-opacity="0.44"/>
<rect x="172.984" y="61.926" width="75.5804" height="72.6054" stroke="#FEA800" stroke-opacity="0.44"/>
<rect x="249.562" y="61.926" width="76.1013" height="72.6054" stroke="#FEA800" stroke-opacity="0.44"/>
<rect x="326.664" y="61.926" width="75.5804" height="72.6054" stroke="#FEA800" stroke-opacity="0.44"/>
<rect x="403.242" y="61.926" width="76.1013" height="72.6054" stroke="#FEA800" stroke-opacity="0.44"/>
<rect x="480.352" y="61.926" width="75.5804" height="72.6054" stroke="#FEA800" stroke-opacity="0.44"/>
<rect x="19.2969" y="135.531" width="75.5804" height="72.6054" stroke="#FEA800" stroke-opacity="0.44"/>
<rect x="95.8828" y="135.531" width="76.1013" height="72.6054" stroke="#FEA800" stroke-opacity="0.44"/>
<rect x="172.984" y="135.531" width="75.5804" height="72.6054" stroke="#FEA800" stroke-opacity="0.44"/>
<rect x="249.562" y="135.531" width="76.1013" height="72.6054" stroke="#FEA800" stroke-opacity="0.44"/>
<rect x="326.664" y="135.531" width="75.5804" height="72.6054" stroke="#FEA800" stroke-opacity="0.44"/>
<rect x="403.242" y="135.531" width="76.1013" height="72.6054" stroke="#FEA800" stroke-opacity="0.44"/>
<rect x="480.352" y="135.531" width="75.5804" height="72.6054" stroke="#FEA800" stroke-opacity="0.44"/>
<rect x="19.2969" y="209.137" width="75.5804" height="72.0759" stroke="#FEA800" stroke-opacity="0.44"/>
<rect x="95.8828" y="209.137" width="76.1013" height="72.0759" stroke="#FEA800" stroke-opacity="0.44"/>
<rect x="172.984" y="209.137" width="75.5804" height="72.0759" stroke="#FEA800" stroke-opacity="0.44"/>
<rect x="249.562" y="209.137" width="76.1013" height="72.0759" stroke="#FEA800" stroke-opacity="0.44"/>
<rect x="326.664" y="209.137" width="75.5804" height="72.0759" stroke="#FEA800" stroke-opacity="0.44"/>
<rect x="403.242" y="209.137" width="76.1013" height="72.0759" stroke="#FEA800" stroke-opacity="0.44"/>
<rect x="480.352" y="209.137" width="75.5804" height="72.0759" stroke="#FEA800" stroke-opacity="0.44"/>
<rect x="19.2969" y="282.213" width="75.5804" height="72.6054" stroke="#FEA800" stroke-opacity="0.44"/>
<rect x="95.8828" y="282.213" width="76.1013" height="72.6054" stroke="#FEA800" stroke-opacity="0.44"/>
<rect x="172.984" y="282.213" width="75.5804" height="72.6054" stroke="#FEA800" stroke-opacity="0.44"/>
<rect x="249.562" y="282.213" width="76.1013" height="72.6054" stroke="#FEA800" stroke-opacity="0.44"/>
<rect x="326.664" y="282.213" width="75.5804" height="72.6054" stroke="#FEA800" stroke-opacity="0.44"/>
<rect x="403.242" y="282.213" width="76.1013" height="72.6054" stroke="#FEA800" stroke-opacity="0.44"/>
<rect x="480.352" y="282.213" width="75.5804" height="72.6054" stroke="#FEA800" stroke-opacity="0.44"/>
<rect x="19.2969" y="355.818" width="75.5804" height="72.6054" stroke="#FEA800" stroke-opacity="0.44"/>
<rect x="95.8828" y="355.818" width="76.1013" height="72.6054" stroke="#FEA800" stroke-opacity="0.44"/>
<rect x="172.984" y="355.818" width="75.5804" height="72.6054" stroke="#FEA800" stroke-opacity="0.44"/>
<rect x="249.562" y="355.818" width="76.1013" height="72.6054" stroke="#FEA800" stroke-opacity="0.44"/>
<rect x="326.664" y="355.818" width="75.5804" height="72.6054" stroke="#FEA800" stroke-opacity="0.44"/>
<rect x="403.242" y="355.818" width="76.1013" height="72.6054" stroke="#FEA800" stroke-opacity="0.44"/>
<rect x="480.352" y="355.818" width="75.5804" height="72.6054" stroke="#FEA800" stroke-opacity="0.44"/>
<rect x="19.2969" y="429.424" width="75.5804" height="72.6054" stroke="#FEA800" stroke-opacity="0.44"/>
<rect x="95.8828" y="429.424" width="76.1013" height="72.6054" stroke="#FEA800" stroke-opacity="0.44"/>
<rect x="172.984" y="429.424" width="75.5804" height="72.6054" stroke="#FEA800" stroke-opacity="0.44"/>
<rect x="249.562" y="429.424" width="76.1013" height="72.6054" stroke="#FEA800" stroke-opacity="0.44"/>
<rect x="326.664" y="429.424" width="75.5804" height="72.6054" stroke="#FEA800" stroke-opacity="0.44"/>
<rect x="403.242" y="429.424" width="76.1013" height="72.6054" stroke="#FEA800" stroke-opacity="0.44"/>
<rect x="480.352" y="429.424" width="75.5804" height="72.6054" stroke="#FEA800" stroke-opacity="0.44"/>
</g>
<defs>
<radialGradient id="paint0_radial_1216_484" cx="0" cy="0" r="1" gradientUnits="userSpaceOnUse" gradientTransform="translate(283.5 227.799) rotate(90.0323) scale(228.891 268.631)">
<stop/>
<stop offset="1" stop-color="#CEB0B0" stop-opacity="0"/>
</radialGradient>
</defs>
</svg>
