<svg width="1440" height="669" viewBox="0 0 1440 669" fill="none" xmlns="http://www.w3.org/2000/svg">
<g opacity="0.4">
<rect width="1439" height="669" transform="translate(1)" fill="url(#paint0_linear_1216_862)"/>
<g clip-path="url(#clip0_1216_862)">
<g opacity="0.5">
<g clip-path="url(#clip1_1216_862)">
<line x1="89.3" x2="89.3" y2="635" stroke="white" stroke-opacity="0.4" stroke-width="0.6"/>
<line x1="179.3" x2="179.3" y2="635" stroke="white" stroke-opacity="0.4" stroke-width="0.6"/>
<line x1="269.3" x2="269.3" y2="635" stroke="white" stroke-opacity="0.4" stroke-width="0.6"/>
<line x1="359.3" x2="359.3" y2="635" stroke="white" stroke-opacity="0.4" stroke-width="0.6"/>
<line x1="449.3" x2="449.3" y2="635" stroke="white" stroke-opacity="0.4" stroke-width="0.6"/>
<line x1="539.3" x2="539.3" y2="635" stroke="white" stroke-opacity="0.4" stroke-width="0.6"/>
<line x1="629.3" x2="629.3" y2="635" stroke="white" stroke-opacity="0.4" stroke-width="0.6"/>
<line x1="719.3" x2="719.3" y2="635" stroke="white" stroke-opacity="0.4" stroke-width="0.6"/>
<line x1="809.3" x2="809.3" y2="635" stroke="white" stroke-opacity="0.4" stroke-width="0.6"/>
<line x1="899.3" x2="899.3" y2="635" stroke="white" stroke-opacity="0.4" stroke-width="0.6"/>
<line x1="989.3" x2="989.3" y2="635" stroke="white" stroke-opacity="0.4" stroke-width="0.6"/>
<line x1="1079.3" x2="1079.3" y2="635" stroke="white" stroke-opacity="0.4" stroke-width="0.6"/>
<line x1="1169.3" x2="1169.3" y2="635" stroke="white" stroke-opacity="0.4" stroke-width="0.6"/>
<line x1="1259.3" x2="1259.3" y2="635" stroke="white" stroke-opacity="0.4" stroke-width="0.6"/>
</g>
<rect x="-90.5" y="0.5" width="1439" height="634" stroke="white" stroke-opacity="0.4"/>
</g>
<g opacity="0.5">
<g clip-path="url(#clip2_1216_862)">
<line x1="-91" y1="47.7" x2="1349" y2="47.7" stroke="white" stroke-opacity="0.4" stroke-width="0.6"/>
<line x1="-91" y1="95.7" x2="1349" y2="95.7" stroke="white" stroke-opacity="0.4" stroke-width="0.6"/>
<line x1="-91" y1="143.7" x2="1349" y2="143.7" stroke="white" stroke-opacity="0.4" stroke-width="0.6"/>
<line x1="-91" y1="191.7" x2="1349" y2="191.7" stroke="white" stroke-opacity="0.4" stroke-width="0.6"/>
<line x1="-91" y1="239.7" x2="1349" y2="239.7" stroke="white" stroke-opacity="0.4" stroke-width="0.6"/>
<line x1="-91" y1="287.7" x2="1349" y2="287.7" stroke="white" stroke-opacity="0.4" stroke-width="0.6"/>
<line x1="-91" y1="335.7" x2="1349" y2="335.7" stroke="white" stroke-opacity="0.4" stroke-width="0.6"/>
<line x1="-91" y1="383.7" x2="1349" y2="383.7" stroke="white" stroke-opacity="0.4" stroke-width="0.6"/>
<line x1="-91" y1="431.7" x2="1349" y2="431.7" stroke="white" stroke-opacity="0.4" stroke-width="0.6"/>
<line x1="-91" y1="479.7" x2="1349" y2="479.7" stroke="white" stroke-opacity="0.4" stroke-width="0.6"/>
<line x1="-91" y1="527.7" x2="1349" y2="527.7" stroke="white" stroke-opacity="0.4" stroke-width="0.6"/>
<line x1="-91" y1="575.7" x2="1349" y2="575.7" stroke="white" stroke-opacity="0.4" stroke-width="0.6"/>
<line x1="-91" y1="623.7" x2="1349" y2="623.7" stroke="white" stroke-opacity="0.4" stroke-width="0.6"/>
</g>
<rect x="-90.5" y="0.5" width="1439" height="634" stroke="white" stroke-opacity="0.4"/>
</g>
</g>
<rect x="361" y="432" width="90" height="48" fill="#FF7F50" fill-opacity="0.31"/>
<rect x="991" y="96" width="90" height="48" fill="#FF7F50" fill-opacity="0.31"/>
<rect x="1351" y="192" width="90" height="48" fill="#FF7F50" fill-opacity="0.31"/>
<rect x="1126" y="48" width="90" height="48" fill="#FF7F50" fill-opacity="0.31"/>
<rect x="91" y="384" width="90" height="48" fill="#FF7F50" fill-opacity="0.31"/>
<circle cx="91.5" cy="335.5" r="4.5" fill="#FF7F50" fill-opacity="0.36"/>
<circle cx="1351.5" cy="383.5" r="4.5" fill="#FF7F50" fill-opacity="0.36"/>
<rect x="1" y="240" width="90" height="48" fill="#FF7F50" fill-opacity="0.31"/>
<rect x="91" y="48" width="90" height="48" fill="#FF7F50" fill-opacity="0.31"/>
</g>
<defs>
<linearGradient id="paint0_linear_1216_862" x1="719.5" y1="0" x2="719.5" y2="669" gradientUnits="userSpaceOnUse">
<stop stop-color="white" stop-opacity="0.47"/>
<stop offset="0.35" stop-color="#3E3E3E" stop-opacity="0"/>
<stop offset="0.508" stop-color="#424242" stop-opacity="0.01"/>
<stop offset="0.708" stop-color="white" stop-opacity="0.18"/>
</linearGradient>
<clipPath id="clip0_1216_862">
<rect width="1438" height="624" fill="white" transform="translate(-91)"/>
</clipPath>
<clipPath id="clip1_1216_862">
<rect x="-91" width="1440" height="635" fill="white"/>
</clipPath>
<clipPath id="clip2_1216_862">
<rect x="-91" width="1440" height="635" fill="white"/>
</clipPath>
</defs>
</svg>
