<svg width="717" height="717" viewBox="0 0 717 717" fill="none" xmlns="http://www.w3.org/2000/svg">
<path fill-rule="evenodd" clip-rule="evenodd" d="M156.731 668.408C165.08 673.846 173.592 678.741 182.21 683.01C249.23 716.2 334.32 729.529 437.473 702.429C464.154 695.423 483.652 687.201 497.852 679.231C495.541 679.315 493.188 679.399 490.794 679.473C447.42 680.805 389.873 679.978 335.207 670.919C284.605 662.539 242.022 639.324 210.142 615.352L156.731 668.408ZM134.999 222.223C116.764 251.154 104.002 283.491 97.5375 317.552C87.9726 367.947 85.5035 409.306 103.585 464.851C113.557 495.487 126.832 530.917 160.567 569.571L116.667 637.177C78.1075 601.923 46.1328 556.664 28.0925 512.728C0.46997 445.156 -7.00443 370.634 6.65509 298.644C16.1592 248.554 35.5834 201.324 63.4227 159.759L134.999 222.223ZM438.578 329.818H622.338L611.991 295.885C598.902 252.981 574.461 204.12 540.146 171.103C506.843 139.054 465.944 116.304 421.383 105.165C376.815 94.025 330.188 94.9004 286.056 107.702C268.527 112.787 251.641 119.68 235.64 128.228L165.405 58.4603C187.842 43.7158 211.858 31.5484 237.03 22.2232C285.227 4.36745 336.543 -2.65536 387.533 1.58248L392.418 2.05602C427.847 5.49029 462.593 14.355 495.502 28.3689C561.037 56.3326 617.162 103.708 656.654 164.638C696.15 225.577 717.19 297.278 716.999 370.644C716.951 383.807 711.817 396.234 703.001 405.247C694.216 414.231 682.524 419.092 670.545 419.086H407.721L468.082 359.126L438.578 329.818Z" fill="#E7F4FF" fill-opacity="0.7"/>
<path d="M84.3917 717L83.9798 716.674L316.451 358.647L5.46934 87.2616L84.1929 0L445.191 358.6L84.3917 717Z" fill="#E7F4FF" fill-opacity="0.7"/>
</svg>
