<svg width="218" height="40" viewBox="0 0 218 40" fill="none" xmlns="http://www.w3.org/2000/svg">
<path d="M52.2838 18.1348H54.3704V26.5619H52.2838V18.1348ZM53.3354 16.7461C52.9571 16.7461 52.6399 16.6356 52.3839 16.4147C52.128 16.1832 52 15.8991 52 15.5625C52 15.2258 52.128 14.947 52.3839 14.7261C52.6399 14.4946 52.9571 14.3789 53.3354 14.3789C53.7138 14.3789 54.031 14.4894 54.2869 14.7103C54.5429 14.9207 54.6709 15.189 54.6709 15.5151C54.6709 15.8623 54.5429 16.1569 54.2869 16.3989C54.0421 16.6303 53.7249 16.7461 53.3354 16.7461ZM62.1671 18.0401C63.291 18.0401 64.1925 18.3505 64.8713 18.9712C65.5501 19.5919 65.8896 20.5125 65.8896 21.7329V26.5619H63.803V21.9854C63.803 21.2489 63.6194 20.6966 63.2521 20.3284C62.8849 19.9496 62.3618 19.7603 61.683 19.7603C60.9151 19.7603 60.3085 19.9812 59.8634 20.4231C59.4183 20.8544 59.1957 21.4804 59.1957 22.301V26.5619H57.1091V18.1348H59.0956V19.2237C59.4405 18.8344 59.8745 18.5399 60.3976 18.34C60.9206 18.1401 61.5104 18.0401 62.1671 18.0401ZM72.7079 26.6724C71.7842 26.6724 70.9551 26.4882 70.2206 26.12C69.4861 25.7518 68.913 25.2415 68.5012 24.5893C68.0895 23.9265 67.8836 23.1795 67.8836 22.3483C67.8836 21.5172 68.0895 20.7755 68.5012 20.1232C68.913 19.4709 69.4806 18.9607 70.2039 18.5925C70.9384 18.2242 71.7731 18.0401 72.7079 18.0401C73.5871 18.0401 74.3549 18.2084 75.0115 18.5451C75.6792 18.8818 76.18 19.3657 76.5139 19.997L74.9113 20.8807C74.6554 20.4914 74.3326 20.2021 73.9431 20.0127C73.5648 19.8129 73.1474 19.7129 72.6912 19.7129C71.9121 19.7129 71.2667 19.9549 70.7548 20.4388C70.2429 20.9123 69.9869 21.5488 69.9869 22.3483C69.9869 23.1479 70.2373 23.7897 70.7381 24.2736C71.25 24.7471 71.9011 24.9838 72.6912 24.9838C73.1474 24.9838 73.5648 24.8891 73.9431 24.6997C74.3326 24.4998 74.6554 24.2053 74.9113 23.816L76.5139 24.6997C76.1688 25.331 75.6625 25.8202 74.9948 26.1674C74.3382 26.504 73.5759 26.6724 72.7079 26.6724ZM80.3041 19.3657C80.905 18.482 81.9622 18.0401 83.4758 18.0401V19.9181C83.2977 19.8865 83.1363 19.8707 82.9917 19.8707C82.1792 19.8707 81.5449 20.0969 81.0887 20.5493C80.6323 20.9912 80.4043 21.633 80.4043 22.4746V26.5619H78.3176V18.1348H80.3041V19.3657ZM85.2458 18.1348H87.3324V26.5619H85.2458V18.1348ZM86.2975 16.7461C85.9191 16.7461 85.602 16.6356 85.346 16.4147C85.09 16.1832 84.962 15.8991 84.962 15.5625C84.962 15.2258 85.09 14.947 85.346 14.7261C85.602 14.4946 85.9191 14.3789 86.2975 14.3789C86.6759 14.3789 86.993 14.4894 87.249 14.7103C87.505 14.9207 87.6329 15.189 87.6329 15.5151C87.6329 15.8623 87.505 16.1569 87.249 16.3989C87.0042 16.6303 86.687 16.7461 86.2975 16.7461ZM95.7467 26.5619L93.4598 23.6424L91.1562 26.5619H88.8526L92.3247 22.2852L89.0028 18.1348H91.3231L93.5099 20.8965L95.6967 18.1348H97.9502L94.6116 22.2537L98.1004 26.5619H95.7467Z" fill="black"/>
<path d="M112.894 24.0936V26.5751H100.812V10.6391H112.572V13.1206H103.804V17.2639H111.583V19.6999H103.804V24.0936H112.894ZM127.877 9.68297V26.5751H125.115V25.0043C124.64 25.581 124.049 26.0135 123.343 26.3019C122.653 26.5903 121.886 26.7344 121.042 26.7344C119.861 26.7344 118.794 26.4764 117.843 25.9604C116.907 25.4444 116.171 24.7159 115.634 23.7749C115.097 22.8187 114.828 21.726 114.828 20.4967C114.828 19.2673 115.097 18.1821 115.634 17.2412C116.171 16.3002 116.907 15.5717 117.843 15.0557C118.794 14.5396 119.861 14.2816 121.042 14.2816C121.855 14.2816 122.599 14.4182 123.274 14.6914C123.949 14.9646 124.525 15.3744 125 15.9208V9.68297H127.877ZM121.387 24.2985C122.078 24.2985 122.699 24.1467 123.251 23.8432C123.804 23.5245 124.241 23.0767 124.563 22.5C124.885 21.9233 125.046 21.2555 125.046 20.4967C125.046 19.7378 124.885 19.07 124.563 18.4933C124.241 17.9166 123.804 17.4764 123.251 17.1729C122.699 16.8541 122.078 16.6948 121.387 16.6948C120.697 16.6948 120.075 16.8541 119.523 17.1729C118.971 17.4764 118.534 17.9166 118.211 18.4933C117.889 19.07 117.728 19.7378 117.728 20.4967C117.728 21.2555 117.889 21.9233 118.211 22.5C118.534 23.0767 118.971 23.5245 119.523 23.8432C120.075 24.1467 120.697 24.2985 121.387 24.2985ZM143.538 14.4182V26.5751H140.799V25.027C140.339 25.5734 139.764 25.9984 139.073 26.3019C138.383 26.5903 137.639 26.7344 136.841 26.7344C135.199 26.7344 133.903 26.2867 132.952 25.3913C132.016 24.4806 131.548 23.1375 131.548 21.3617V14.4182H134.425V20.9747C134.425 22.0675 134.67 22.887 135.161 23.4334C135.667 23.9646 136.381 24.2302 137.301 24.2302C138.329 24.2302 139.142 23.9191 139.741 23.2968C140.354 22.6594 140.661 21.7488 140.661 20.5649V14.4182H143.538ZM152.942 26.7344C151.669 26.7344 150.526 26.4688 149.513 25.9376C148.501 25.4065 147.711 24.6703 147.143 23.7294C146.575 22.7732 146.292 21.6957 146.292 20.4967C146.292 19.2976 146.575 18.2277 147.143 17.2867C147.711 16.3457 148.493 15.6096 149.49 15.0784C150.503 14.5472 151.654 14.2816 152.942 14.2816C154.154 14.2816 155.213 14.5245 156.118 15.0101C157.039 15.4958 157.729 16.1939 158.189 17.1046L155.98 18.3794C155.627 17.8179 155.182 17.4005 154.645 17.1273C154.124 16.839 153.548 16.6948 152.919 16.6948C151.845 16.6948 150.956 17.0438 150.25 17.742C149.544 18.425 149.191 19.3432 149.191 20.4967C149.191 21.6501 149.536 22.5759 150.227 23.2741C150.933 23.957 151.83 24.2985 152.919 24.2985C153.548 24.2985 154.124 24.1619 154.645 23.8887C155.182 23.6003 155.627 23.1754 155.98 22.6139L158.189 23.8887C157.714 24.7994 157.016 25.5051 156.095 26.0059C155.19 26.4916 154.139 26.7344 152.942 26.7344ZM165.371 14.2816C167.181 14.2816 168.562 14.7142 169.513 15.5793C170.479 16.4292 170.963 17.7192 170.963 19.4494V26.5751H168.247V25.0953C167.895 25.6265 167.388 26.0363 166.728 26.3247C166.084 26.5978 165.302 26.7344 164.381 26.7344C163.46 26.7344 162.655 26.5826 161.965 26.2791C161.274 25.9604 160.737 25.5279 160.354 24.9815C159.986 24.4199 159.801 23.7901 159.801 23.0919C159.801 21.9992 160.208 21.1265 161.021 20.4739C161.85 19.8061 163.146 19.4722 164.91 19.4722H168.086V19.2901C168.086 18.4402 167.826 17.7875 167.304 17.3322C166.797 16.8769 166.038 16.6493 165.025 16.6493C164.335 16.6493 163.653 16.7555 162.977 16.968C162.318 17.1804 161.758 17.4764 161.297 17.8558L160.17 15.7842C160.814 15.2985 161.589 14.9266 162.494 14.6686C163.4 14.4107 164.358 14.2816 165.371 14.2816ZM164.979 24.6628C165.701 24.6628 166.337 24.5034 166.889 24.1847C167.457 23.8508 167.856 23.3803 168.086 22.7732V21.3617H165.117C163.46 21.3617 162.632 21.9006 162.632 22.9781C162.632 23.4941 162.839 23.9039 163.253 24.2075C163.668 24.511 164.243 24.6628 164.979 24.6628ZM182.042 25.9149C181.704 26.1881 181.29 26.393 180.799 26.5295C180.323 26.6661 179.817 26.7344 179.28 26.7344C177.93 26.7344 176.887 26.3854 176.15 25.6872C175.414 24.9891 175.046 23.9722 175.046 22.6366V16.7859H173.021V14.5093H175.046V11.7319H177.923V14.5093H181.213V16.7859H177.923V22.5683C177.923 23.1602 178.068 23.6155 178.36 23.9343C178.651 24.2378 179.073 24.3896 179.625 24.3896C180.27 24.3896 180.807 24.2226 181.236 23.8887L182.042 25.9149ZM184.408 14.4182H187.285V26.5751H184.408V14.4182ZM185.858 12.4148C185.337 12.4148 184.899 12.2555 184.546 11.9368C184.194 11.6029 184.017 11.1931 184.017 10.7074C184.017 10.2218 184.194 9.81956 184.546 9.50084C184.899 9.16693 185.337 9 185.858 9C186.38 9 186.817 9.15936 187.17 9.47808C187.523 9.7816 187.699 10.1686 187.699 10.6391C187.699 11.14 187.523 11.5649 187.17 11.914C186.833 12.2479 186.395 12.4148 185.858 12.4148ZM196.584 26.7344C195.341 26.7344 194.221 26.4688 193.224 25.9376C192.226 25.4065 191.444 24.6703 190.877 23.7294C190.324 22.7732 190.048 21.6957 190.048 20.4967C190.048 19.2976 190.324 18.2277 190.877 17.2867C191.444 16.3457 192.226 15.6096 193.224 15.0784C194.221 14.5472 195.341 14.2816 196.584 14.2816C197.841 14.2816 198.969 14.5472 199.967 15.0784C200.964 15.6096 201.739 16.3457 202.291 17.2867C202.858 18.2277 203.143 19.2976 203.143 20.4967C203.143 21.6957 202.858 22.7732 202.291 23.7294C201.739 24.6703 200.964 25.4065 199.967 25.9376C198.969 26.4688 197.841 26.7344 196.584 26.7344ZM196.584 24.2985C197.642 24.2985 198.517 23.9495 199.207 23.2513C199.898 22.5531 200.243 21.6349 200.243 20.4967C200.243 19.3584 199.898 18.4402 199.207 17.742C198.517 17.0438 197.642 16.6948 196.584 16.6948C195.525 16.6948 194.651 17.0438 193.96 17.742C193.285 18.4402 192.948 19.3584 192.948 20.4967C192.948 21.6349 193.285 22.5531 193.96 23.2513C194.651 23.9495 195.525 24.2985 196.584 24.2985ZM212.866 14.2816C214.416 14.2816 215.658 14.7294 216.594 15.6248C217.53 16.5202 217.998 17.8483 217.998 19.6088V26.5751H215.121V19.973C215.121 18.9106 214.868 18.1138 214.362 17.5826C213.856 17.0363 213.135 16.7631 212.199 16.7631C211.14 16.7631 210.304 17.0818 209.69 17.7192C209.076 18.3415 208.77 19.2445 208.77 20.4284V26.5751H205.893V14.4182H208.632V15.9891C209.108 15.4275 209.706 15.0026 210.427 14.7142C211.148 14.4258 211.961 14.2816 212.866 14.2816Z" fill="#0266FF"/>
<path fill-rule="evenodd" clip-rule="evenodd" d="M8.74374 37.2892C9.20948 37.5925 9.68435 37.8656 10.1652 38.1038C13.904 39.9554 18.651 40.6989 24.4057 39.1871C25.8942 38.7963 26.982 38.3375 27.7742 37.8929C27.6453 37.8976 27.514 37.9023 27.3804 37.9064C24.9606 37.9807 21.7502 37.9346 18.7005 37.4292C15.8775 36.9617 13.5019 35.6666 11.7234 34.3293L8.74374 37.2892ZM7.53134 12.3974C6.51406 14.0114 5.80209 15.8154 5.44142 17.7156C4.90782 20.527 4.77007 22.8344 5.77879 25.9331C6.33513 27.6422 7.07571 29.6188 8.95771 31.7752L6.50863 35.5468C4.35746 33.5801 2.57366 31.0551 1.56722 28.6041C0.0262187 24.8344 -0.390763 20.6769 0.371274 16.6608C0.90149 13.8663 1.98513 11.2315 3.53823 8.91266L7.53134 12.3974ZM24.4674 18.3999H34.719L34.1418 16.5068C33.4115 14.1133 32.048 11.3874 30.1337 9.54552C28.2758 7.75757 25.9941 6.48839 23.5081 5.86696C21.0218 5.24547 18.4205 5.29431 15.9585 6.00848C14.9806 6.29216 14.0385 6.67672 13.1459 7.15361L9.22759 3.26138C10.4793 2.43882 11.8192 1.76002 13.2234 1.23979C15.9122 0.243651 18.7751 -0.148137 21.6197 0.0882832L21.8922 0.114701C23.8687 0.306292 25.8071 0.800837 27.6431 1.58264C31.2991 3.14268 34.4303 5.78564 36.6334 9.18483C38.8368 12.5845 40.0106 16.5845 39.9999 20.6775C39.9973 21.4119 39.7109 22.1051 39.219 22.6079C38.7289 23.1091 38.0767 23.3803 37.4084 23.38H22.7459L26.1134 20.0349L24.4674 18.3999Z" fill="black"/>
<path d="M4.70804 40L4.68507 39.9818L17.6542 20.0082L0.305123 4.86815L4.69696 0L24.8363 20.0056L4.70804 40Z" fill="#0266FF"/>
</svg>
