<svg width="1440" height="918" viewBox="0 0 1440 918" fill="none" xmlns="http://www.w3.org/2000/svg">
<path d="M1440 917.919H0V-0.246094H1440L1440 917.919ZM1.86127 916.024H1438.14V1.64833H1.86127V916.024Z" fill="#363636" fill-opacity="0.02"/>
<path d="M1439.07 870.211H0.929688V872.105H1439.07V870.211Z" fill="#363636" fill-opacity="0.02"/>
<path d="M1439.07 824.393H0.929688V826.287H1439.07V824.393Z" fill="#363636" fill-opacity="0.02"/>
<path d="M1439.07 778.582H0.929688V780.476H1439.07V778.582Z" fill="#363636" fill-opacity="0.02"/>
<path d="M1439.07 732.77H0.929688V734.664H1439.07V732.77Z" fill="#363636" fill-opacity="0.02"/>
<path d="M1439.07 686.953H0.929688V688.848H1439.07V686.953Z" fill="#363636" fill-opacity="0.02"/>
<path d="M1439.07 641.143H0.929688V643.037H1439.07V641.143Z" fill="#363636" fill-opacity="0.02"/>
<path d="M1439.07 595.328H0.929688V597.222H1439.07V595.328Z" fill="#363636" fill-opacity="0.02"/>
<path d="M1439.07 549.516H0.929688V551.41H1439.07V549.516Z" fill="#363636" fill-opacity="0.02"/>
<path d="M1439.07 503.699H0.929688V505.594H1439.07V503.699Z" fill="#363636" fill-opacity="0.02"/>
<path d="M1439.07 457.889H0.929688V459.783H1439.07V457.889Z" fill="#363636" fill-opacity="0.02"/>
<path d="M1439.07 412.074H0.929688V413.969H1439.07V412.074Z" fill="#363636" fill-opacity="0.02"/>
<path d="M1439.07 366.262H0.929688V368.156H1439.07V366.262Z" fill="#363636" fill-opacity="0.02"/>
<path d="M1439.07 320.445H0.929688V322.34H1439.07V320.445Z" fill="#363636" fill-opacity="0.02"/>
<path d="M1439.07 274.635H0.929688V276.529H1439.07V274.635Z" fill="#363636" fill-opacity="0.02"/>
<path d="M1439.07 228.816H0.929688V230.711H1439.07V228.816Z" fill="#363636" fill-opacity="0.02"/>
<path d="M1439.07 183.008H0.929688V184.902H1439.07V183.008Z" fill="#363636" fill-opacity="0.02"/>
<path d="M1439.07 137.191H0.929688V139.086H1439.07V137.191Z" fill="#363636" fill-opacity="0.02"/>
<path d="M1439.07 91.3809H0.929688V93.2753H1439.07V91.3809Z" fill="#363636" fill-opacity="0.02"/>
<path d="M1439.07 45.5664H0.929688V47.4608H1439.07V45.5664Z" fill="#363636" fill-opacity="0.02"/>
<path d="M1396.42 0.699219H1394.55V916.969H1396.42V0.699219Z" fill="#363636" fill-opacity="0.02"/>
<path d="M1352.84 0.699219H1350.98V916.969H1352.84V0.699219Z" fill="#363636" fill-opacity="0.02"/>
<path d="M1309.26 0.699219H1307.39V916.969H1309.26V0.699219Z" fill="#363636" fill-opacity="0.02"/>
<path d="M1265.68 0.699219H1263.82V916.969H1265.68V0.699219Z" fill="#363636" fill-opacity="0.02"/>
<path d="M1222.1 0.699219H1220.23V916.969H1222.1V0.699219Z" fill="#363636" fill-opacity="0.02"/>
<path d="M1178.52 0.699219H1176.66V916.969H1178.52V0.699219Z" fill="#363636" fill-opacity="0.02"/>
<path d="M1134.94 0.699219H1133.08V916.969H1134.94V0.699219Z" fill="#363636" fill-opacity="0.02"/>
<path d="M1091.36 0.699219H1089.5V916.969H1091.36V0.699219Z" fill="#363636" fill-opacity="0.02"/>
<path d="M1047.78 0.699219H1045.92V916.969H1047.78V0.699219Z" fill="#363636" fill-opacity="0.02"/>
<path d="M1004.2 0.699219H1002.34V916.969H1004.2V0.699219Z" fill="#363636" fill-opacity="0.02"/>
<path d="M960.623 0.699219H958.762V916.969H960.623V0.699219Z" fill="#363636" fill-opacity="0.02"/>
<path d="M917.037 0.699219H915.176V916.969H917.037V0.699219Z" fill="#363636" fill-opacity="0.02"/>
<path d="M873.458 0.699219H871.598V916.969H873.458V0.699219Z" fill="#363636" fill-opacity="0.02"/>
<path d="M829.88 0.699219H828.02V916.969H829.88V0.699219Z" fill="#363636" fill-opacity="0.02"/>
<path d="M786.302 0.699219H784.441V916.969H786.302V0.699219Z" fill="#363636" fill-opacity="0.02"/>
<path d="M742.716 0.699219H740.855V916.969H742.716V0.699219Z" fill="#363636" fill-opacity="0.02"/>
<path d="M699.138 0.699219H697.277V916.969H699.138V0.699219Z" fill="#363636" fill-opacity="0.02"/>
<path d="M655.56 0.699219H653.699V916.969H655.56V0.699219Z" fill="#363636" fill-opacity="0.02"/>
<path d="M611.978 0.699219H610.117V916.969H611.978V0.699219Z" fill="#363636" fill-opacity="0.02"/>
<path d="M568.4 0.699219H566.539V916.969H568.4V0.699219Z" fill="#363636" fill-opacity="0.02"/>
<path d="M524.818 0.699219H522.957V916.969H524.818V0.699219Z" fill="#363636" fill-opacity="0.02"/>
<path d="M481.24 0.699219H479.379V916.969H481.24V0.699219Z" fill="#363636" fill-opacity="0.02"/>
<path d="M437.662 0.699219H435.801V916.969H437.662V0.699219Z" fill="#363636" fill-opacity="0.02"/>
<path d="M394.08 0.699219H392.219V916.969H394.08V0.699219Z" fill="#363636" fill-opacity="0.02"/>
<path d="M350.498 0.699219H348.637V916.969H350.498V0.699219Z" fill="#363636" fill-opacity="0.02"/>
<path d="M306.919 0.699219H305.059V916.969H306.919V0.699219Z" fill="#363636" fill-opacity="0.02"/>
<path d="M263.341 0.699219H261.48V916.969H263.341V0.699219Z" fill="#363636" fill-opacity="0.02"/>
<path d="M219.759 0.699219H217.898V916.969H219.759V0.699219Z" fill="#363636" fill-opacity="0.02"/>
<path d="M176.177 0.699219H174.316V916.969H176.177V0.699219Z" fill="#363636" fill-opacity="0.02"/>
<path d="M132.603 0.699219H130.742V916.969H132.603V0.699219Z" fill="#363636" fill-opacity="0.02"/>
<path d="M89.021 0.699219H87.1602V916.969H89.021V0.699219Z" fill="#363636" fill-opacity="0.02"/>
<path d="M45.4389 0.699219H43.5781V916.969H45.4389V0.699219Z" fill="#363636" fill-opacity="0.02"/>
</svg>
