<svg width="613" height="613" viewBox="0 0 613 613" fill="none" xmlns="http://www.w3.org/2000/svg">
<g opacity="0.3">
<mask id="mask0_2204_2221" style="mask-type:alpha" maskUnits="userSpaceOnUse" x="0" y="0" width="613" height="613">
<g clip-path="url(#clip0_2204_2221)">
<path d="M34.0556 0H0V34.0556H34.0556V0Z" stroke="#424242" stroke-width="0.630746"/>
<path d="M68.1102 0H34.0547V34.0556H68.1102V0Z" stroke="#424242" stroke-width="0.630746"/>
<path d="M102.167 0H68.1113V34.0556H102.167V0Z" stroke="#424242" stroke-width="0.630746"/>
<path d="M136.222 0H102.166V34.0556H136.222V0Z" stroke="#424242" stroke-width="0.630746"/>
<path d="M170.278 0H136.223V34.0556H170.278V0Z" stroke="#424242" stroke-width="0.630746"/>
<path d="M204.333 0H170.277V34.0556H204.333V0Z" stroke="#424242" stroke-width="0.630746"/>
<path d="M238.39 0H204.334V34.0556H238.39V0Z" stroke="#424242" stroke-width="0.630746"/>
<path d="M272.444 0H238.389V34.0556H272.444V0Z" stroke="#424242" stroke-width="0.630746"/>
<path d="M306.501 0H272.445V34.0556H306.501V0Z" stroke="#424242" stroke-width="0.630746"/>
<path d="M340.556 0H306.5V34.0556H340.556V0Z" stroke="#424242" stroke-width="0.630746"/>
<path d="M374.61 0H340.555V34.0556H374.61V0Z" stroke="#424242" stroke-width="0.630746"/>
<path d="M408.667 0H374.611V34.0556H408.667V0Z" stroke="#424242" stroke-width="0.630746"/>
<path d="M442.722 0H408.666V34.0556H442.722V0Z" stroke="#424242" stroke-width="0.630746"/>
<path d="M476.778 0H442.723V34.0556H476.778V0Z" stroke="#424242" stroke-width="0.630746"/>
<path d="M510.833 0H476.777V34.0556H510.833V0Z" stroke="#424242" stroke-width="0.630746"/>
<path d="M544.89 0H510.834V34.0556H544.89V0Z" stroke="#424242" stroke-width="0.630746"/>
<path d="M578.944 0H544.889V34.0556H578.944V0Z" stroke="#424242" stroke-width="0.630746"/>
<path d="M613.001 0H578.945V34.0556H613.001V0Z" stroke="#424242" stroke-width="0.630746"/>
<path d="M647.056 0H613V34.0556H647.056V0Z" stroke="#424242" stroke-width="0.630746"/>
<path d="M34.0556 34.0566H0V68.1122H34.0556V34.0566Z" stroke="#424242" stroke-width="0.630746"/>
<path d="M68.1102 34.0566H34.0547V68.1122H68.1102V34.0566Z" stroke="#424242" stroke-width="0.630746"/>
<path d="M102.167 34.0566H68.1113V68.1122H102.167V34.0566Z" stroke="#424242" stroke-width="0.630746"/>
<path d="M136.222 34.0566H102.166V68.1122H136.222V34.0566Z" stroke="#424242" stroke-width="0.630746"/>
<path d="M170.278 34.0566H136.223V68.1122H170.278V34.0566Z" stroke="#424242" stroke-width="0.630746"/>
<path d="M204.333 34.0566H170.277V68.1122H204.333V34.0566Z" stroke="#424242" stroke-width="0.630746"/>
<path d="M238.39 34.0566H204.334V68.1122H238.39V34.0566Z" stroke="#424242" stroke-width="0.630746"/>
<path d="M272.444 34.0566H238.389V68.1122H272.444V34.0566Z" stroke="#424242" stroke-width="0.630746"/>
<path d="M306.501 34.0566H272.445V68.1122H306.501V34.0566Z" stroke="#424242" stroke-width="0.630746"/>
<path d="M340.556 34.0566H306.5V68.1122H340.556V34.0566Z" stroke="#424242" stroke-width="0.630746"/>
<path d="M374.61 34.0566H340.555V68.1122H374.61V34.0566Z" stroke="#424242" stroke-width="0.630746"/>
<path d="M408.667 34.0566H374.611V68.1122H408.667V34.0566Z" stroke="#424242" stroke-width="0.630746"/>
<path d="M442.722 34.0566H408.666V68.1122H442.722V34.0566Z" stroke="#424242" stroke-width="0.630746"/>
<path d="M476.778 34.0566H442.723V68.1122H476.778V34.0566Z" stroke="#424242" stroke-width="0.630746"/>
<path d="M510.833 34.0566H476.777V68.1122H510.833V34.0566Z" stroke="#424242" stroke-width="0.630746"/>
<path d="M544.89 34.0566H510.834V68.1122H544.89V34.0566Z" stroke="#424242" stroke-width="0.630746"/>
<path d="M578.944 34.0566H544.889V68.1122H578.944V34.0566Z" stroke="#424242" stroke-width="0.630746"/>
<path d="M613.001 34.0566H578.945V68.1122H613.001V34.0566Z" stroke="#424242" stroke-width="0.630746"/>
<path d="M647.056 34.0566H613V68.1122H647.056V34.0566Z" stroke="#424242" stroke-width="0.630746"/>
<path d="M34.0556 68.1113H0V102.167H34.0556V68.1113Z" stroke="#424242" stroke-width="0.630746"/>
<path d="M68.1102 68.1113H34.0547V102.167H68.1102V68.1113Z" stroke="#424242" stroke-width="0.630746"/>
<path d="M102.167 68.1113H68.1113V102.167H102.167V68.1113Z" stroke="#424242" stroke-width="0.630746"/>
<path d="M136.222 68.1113H102.166V102.167H136.222V68.1113Z" stroke="#424242" stroke-width="0.630746"/>
<path d="M170.278 68.1113H136.223V102.167H170.278V68.1113Z" stroke="#424242" stroke-width="0.630746"/>
<path d="M204.333 68.1113H170.277V102.167H204.333V68.1113Z" stroke="#424242" stroke-width="0.630746"/>
<path d="M238.39 68.1113H204.334V102.167H238.39V68.1113Z" stroke="#424242" stroke-width="0.630746"/>
<path d="M272.444 68.1113H238.389V102.167H272.444V68.1113Z" stroke="#424242" stroke-width="0.630746"/>
<path d="M306.501 68.1113H272.445V102.167H306.501V68.1113Z" stroke="#424242" stroke-width="0.630746"/>
<path d="M340.556 68.1113H306.5V102.167H340.556V68.1113Z" stroke="#424242" stroke-width="0.630746"/>
<path d="M374.61 68.1113H340.555V102.167H374.61V68.1113Z" stroke="#424242" stroke-width="0.630746"/>
<path d="M408.667 68.1113H374.611V102.167H408.667V68.1113Z" stroke="#424242" stroke-width="0.630746"/>
<path d="M442.722 68.1113H408.666V102.167H442.722V68.1113Z" stroke="#424242" stroke-width="0.630746"/>
<path d="M476.778 68.1113H442.723V102.167H476.778V68.1113Z" stroke="#424242" stroke-width="0.630746"/>
<path d="M510.833 68.1113H476.777V102.167H510.833V68.1113Z" stroke="#424242" stroke-width="0.630746"/>
<path d="M544.89 68.1113H510.834V102.167H544.89V68.1113Z" stroke="#424242" stroke-width="0.630746"/>
<path d="M578.944 68.1113H544.889V102.167H578.944V68.1113Z" stroke="#424242" stroke-width="0.630746"/>
<path d="M613.001 68.1113H578.945V102.167H613.001V68.1113Z" stroke="#424242" stroke-width="0.630746"/>
<path d="M647.056 68.1113H613V102.167H647.056V68.1113Z" stroke="#424242" stroke-width="0.630746"/>
<path d="M34.0556 102.166H0V136.222H34.0556V102.166Z" stroke="#424242" stroke-width="0.630746"/>
<path d="M68.1102 102.166H34.0547V136.222H68.1102V102.166Z" stroke="#424242" stroke-width="0.630746"/>
<path d="M102.167 102.166H68.1113V136.222H102.167V102.166Z" stroke="#424242" stroke-width="0.630746"/>
<path d="M136.222 102.166H102.166V136.222H136.222V102.166Z" stroke="#424242" stroke-width="0.630746"/>
<path d="M170.278 102.166H136.223V136.222H170.278V102.166Z" stroke="#424242" stroke-width="0.630746"/>
<path d="M204.333 102.166H170.277V136.222H204.333V102.166Z" stroke="#424242" stroke-width="0.630746"/>
<path d="M238.39 102.166H204.334V136.222H238.39V102.166Z" stroke="#424242" stroke-width="0.630746"/>
<path d="M272.444 102.166H238.389V136.222H272.444V102.166Z" stroke="#424242" stroke-width="0.630746"/>
<path d="M306.501 102.166H272.445V136.222H306.501V102.166Z" stroke="#424242" stroke-width="0.630746"/>
<path d="M340.556 102.166H306.5V136.222H340.556V102.166Z" stroke="#424242" stroke-width="0.630746"/>
<path d="M374.61 102.166H340.555V136.222H374.61V102.166Z" stroke="#424242" stroke-width="0.630746"/>
<path d="M408.667 102.166H374.611V136.222H408.667V102.166Z" stroke="#424242" stroke-width="0.630746"/>
<path d="M442.722 102.166H408.666V136.222H442.722V102.166Z" stroke="#424242" stroke-width="0.630746"/>
<path d="M476.778 102.166H442.723V136.222H476.778V102.166Z" stroke="#424242" stroke-width="0.630746"/>
<path d="M510.833 102.166H476.777V136.222H510.833V102.166Z" stroke="#424242" stroke-width="0.630746"/>
<path d="M544.89 102.166H510.834V136.222H544.89V102.166Z" stroke="#424242" stroke-width="0.630746"/>
<path d="M578.944 102.166H544.889V136.222H578.944V102.166Z" stroke="#424242" stroke-width="0.630746"/>
<path d="M613.001 102.166H578.945V136.222H613.001V102.166Z" stroke="#424242" stroke-width="0.630746"/>
<path d="M647.056 102.166H613V136.222H647.056V102.166Z" stroke="#424242" stroke-width="0.630746"/>
<path d="M34.0556 136.223H0V170.278H34.0556V136.223Z" stroke="#424242" stroke-width="0.630746"/>
<path d="M68.1102 136.223H34.0547V170.278H68.1102V136.223Z" stroke="#424242" stroke-width="0.630746"/>
<path d="M102.167 136.223H68.1113V170.278H102.167V136.223Z" stroke="#424242" stroke-width="0.630746"/>
<path d="M136.222 136.223H102.166V170.278H136.222V136.223Z" stroke="#424242" stroke-width="0.630746"/>
<path d="M170.278 136.223H136.223V170.278H170.278V136.223Z" stroke="#424242" stroke-width="0.630746"/>
<path d="M204.333 136.223H170.277V170.278H204.333V136.223Z" stroke="#424242" stroke-width="0.630746"/>
<path d="M238.39 136.223H204.334V170.278H238.39V136.223Z" stroke="#424242" stroke-width="0.630746"/>
<path d="M272.444 136.223H238.389V170.278H272.444V136.223Z" stroke="#424242" stroke-width="0.630746"/>
<path d="M306.501 136.223H272.445V170.278H306.501V136.223Z" stroke="#424242" stroke-width="0.630746"/>
<path d="M340.556 136.223H306.5V170.278H340.556V136.223Z" stroke="#424242" stroke-width="0.630746"/>
<path d="M374.61 136.223H340.555V170.278H374.61V136.223Z" stroke="#424242" stroke-width="0.630746"/>
<path d="M408.667 136.223H374.611V170.278H408.667V136.223Z" stroke="#424242" stroke-width="0.630746"/>
<path d="M442.722 136.223H408.666V170.278H442.722V136.223Z" stroke="#424242" stroke-width="0.630746"/>
<path d="M476.778 136.223H442.723V170.278H476.778V136.223Z" stroke="#424242" stroke-width="0.630746"/>
<path d="M510.833 136.223H476.777V170.278H510.833V136.223Z" stroke="#424242" stroke-width="0.630746"/>
<path d="M544.89 136.223H510.834V170.278H544.89V136.223Z" stroke="#424242" stroke-width="0.630746"/>
<path d="M578.944 136.223H544.889V170.278H578.944V136.223Z" stroke="#424242" stroke-width="0.630746"/>
<path d="M613.001 136.223H578.945V170.278H613.001V136.223Z" stroke="#424242" stroke-width="0.630746"/>
<path d="M647.056 136.223H613V170.278H647.056V136.223Z" stroke="#424242" stroke-width="0.630746"/>
<path d="M34.0556 170.277H0V204.333H34.0556V170.277Z" stroke="#424242" stroke-width="0.630746"/>
<path d="M68.1102 170.277H34.0547V204.333H68.1102V170.277Z" stroke="#424242" stroke-width="0.630746"/>
<path d="M102.167 170.277H68.1113V204.333H102.167V170.277Z" stroke="#424242" stroke-width="0.630746"/>
<path d="M136.222 170.277H102.166V204.333H136.222V170.277Z" stroke="#424242" stroke-width="0.630746"/>
<path d="M170.278 170.277H136.223V204.333H170.278V170.277Z" stroke="#424242" stroke-width="0.630746"/>
<path d="M204.333 170.277H170.277V204.333H204.333V170.277Z" stroke="#424242" stroke-width="0.630746"/>
<path d="M238.39 170.277H204.334V204.333H238.39V170.277Z" stroke="#424242" stroke-width="0.630746"/>
<path d="M272.444 170.277H238.389V204.333H272.444V170.277Z" stroke="#424242" stroke-width="0.630746"/>
<path d="M306.501 170.277H272.445V204.333H306.501V170.277Z" stroke="#424242" stroke-width="0.630746"/>
<path d="M340.556 170.277H306.5V204.333H340.556V170.277Z" stroke="#424242" stroke-width="0.630746"/>
<path d="M374.61 170.277H340.555V204.333H374.61V170.277Z" stroke="#424242" stroke-width="0.630746"/>
<path d="M408.667 170.277H374.611V204.333H408.667V170.277Z" stroke="#424242" stroke-width="0.630746"/>
<path d="M442.722 170.277H408.666V204.333H442.722V170.277Z" stroke="#424242" stroke-width="0.630746"/>
<path d="M476.778 170.277H442.723V204.333H476.778V170.277Z" stroke="#424242" stroke-width="0.630746"/>
<path d="M510.833 170.277H476.777V204.333H510.833V170.277Z" stroke="#424242" stroke-width="0.630746"/>
<path d="M544.89 170.277H510.834V204.333H544.89V170.277Z" stroke="#424242" stroke-width="0.630746"/>
<path d="M578.944 170.277H544.889V204.333H578.944V170.277Z" stroke="#424242" stroke-width="0.630746"/>
<path d="M613.001 170.277H578.945V204.333H613.001V170.277Z" stroke="#424242" stroke-width="0.630746"/>
<path d="M647.056 170.277H613V204.333H647.056V170.277Z" stroke="#424242" stroke-width="0.630746"/>
<path d="M34.0556 204.334H0V238.39H34.0556V204.334Z" stroke="#424242" stroke-width="0.630746"/>
<path d="M68.1102 204.334H34.0547V238.39H68.1102V204.334Z" stroke="#424242" stroke-width="0.630746"/>
<path d="M102.167 204.334H68.1113V238.39H102.167V204.334Z" stroke="#424242" stroke-width="0.630746"/>
<path d="M136.222 204.334H102.166V238.39H136.222V204.334Z" stroke="#424242" stroke-width="0.630746"/>
<path d="M170.278 204.334H136.223V238.39H170.278V204.334Z" stroke="#424242" stroke-width="0.630746"/>
<path d="M204.333 204.334H170.277V238.39H204.333V204.334Z" stroke="#424242" stroke-width="0.630746"/>
<path d="M238.39 204.334H204.334V238.39H238.39V204.334Z" stroke="#424242" stroke-width="0.630746"/>
<path d="M272.444 204.334H238.389V238.39H272.444V204.334Z" stroke="#424242" stroke-width="0.630746"/>
<path d="M306.501 204.334H272.445V238.39H306.501V204.334Z" stroke="#424242" stroke-width="0.630746"/>
<path d="M340.556 204.334H306.5V238.39H340.556V204.334Z" stroke="#424242" stroke-width="0.630746"/>
<path d="M374.61 204.334H340.555V238.39H374.61V204.334Z" stroke="#424242" stroke-width="0.630746"/>
<path d="M408.667 204.334H374.611V238.39H408.667V204.334Z" stroke="#424242" stroke-width="0.630746"/>
<path d="M442.722 204.334H408.666V238.39H442.722V204.334Z" stroke="#424242" stroke-width="0.630746"/>
<path d="M476.778 204.334H442.723V238.39H476.778V204.334Z" stroke="#424242" stroke-width="0.630746"/>
<path d="M510.833 204.334H476.777V238.39H510.833V204.334Z" stroke="#424242" stroke-width="0.630746"/>
<path d="M544.89 204.334H510.834V238.39H544.89V204.334Z" stroke="#424242" stroke-width="0.630746"/>
<path d="M578.944 204.334H544.889V238.39H578.944V204.334Z" stroke="#424242" stroke-width="0.630746"/>
<path d="M613.001 204.334H578.945V238.39H613.001V204.334Z" stroke="#424242" stroke-width="0.630746"/>
<path d="M647.056 204.334H613V238.39H647.056V204.334Z" stroke="#424242" stroke-width="0.630746"/>
<path d="M34.0556 238.389H0V272.444H34.0556V238.389Z" stroke="#424242" stroke-width="0.630746"/>
<path d="M68.1102 238.389H34.0547V272.444H68.1102V238.389Z" stroke="#424242" stroke-width="0.630746"/>
<path d="M102.167 238.389H68.1113V272.444H102.167V238.389Z" stroke="#424242" stroke-width="0.630746"/>
<path d="M136.222 238.389H102.166V272.444H136.222V238.389Z" stroke="#424242" stroke-width="0.630746"/>
<path d="M170.278 238.389H136.223V272.444H170.278V238.389Z" stroke="#424242" stroke-width="0.630746"/>
<path d="M204.333 238.389H170.277V272.444H204.333V238.389Z" stroke="#424242" stroke-width="0.630746"/>
<path d="M238.39 238.389H204.334V272.444H238.39V238.389Z" stroke="#424242" stroke-width="0.630746"/>
<path d="M272.444 238.389H238.389V272.444H272.444V238.389Z" stroke="#424242" stroke-width="0.630746"/>
<path d="M306.501 238.389H272.445V272.444H306.501V238.389Z" stroke="#424242" stroke-width="0.630746"/>
<path d="M340.556 238.389H306.5V272.444H340.556V238.389Z" stroke="#424242" stroke-width="0.630746"/>
<path d="M374.61 238.389H340.555V272.444H374.61V238.389Z" stroke="#424242" stroke-width="0.630746"/>
<path d="M408.667 238.389H374.611V272.444H408.667V238.389Z" stroke="#424242" stroke-width="0.630746"/>
<path d="M442.722 238.389H408.666V272.444H442.722V238.389Z" stroke="#424242" stroke-width="0.630746"/>
<path d="M476.778 238.389H442.723V272.444H476.778V238.389Z" stroke="#424242" stroke-width="0.630746"/>
<path d="M510.833 238.389H476.777V272.444H510.833V238.389Z" stroke="#424242" stroke-width="0.630746"/>
<path d="M544.89 238.389H510.834V272.444H544.89V238.389Z" stroke="#424242" stroke-width="0.630746"/>
<path d="M578.944 238.389H544.889V272.444H578.944V238.389Z" stroke="#424242" stroke-width="0.630746"/>
<path d="M613.001 238.389H578.945V272.444H613.001V238.389Z" stroke="#424242" stroke-width="0.630746"/>
<path d="M647.056 238.389H613V272.444H647.056V238.389Z" stroke="#424242" stroke-width="0.630746"/>
<path d="M34.0556 272.445H0V306.501H34.0556V272.445Z" stroke="#424242" stroke-width="0.630746"/>
<path d="M68.1102 272.445H34.0547V306.501H68.1102V272.445Z" stroke="#424242" stroke-width="0.630746"/>
<path d="M102.167 272.445H68.1113V306.501H102.167V272.445Z" stroke="#424242" stroke-width="0.630746"/>
<path d="M136.222 272.445H102.166V306.501H136.222V272.445Z" stroke="#424242" stroke-width="0.630746"/>
<path d="M170.278 272.445H136.223V306.501H170.278V272.445Z" stroke="#424242" stroke-width="0.630746"/>
<path d="M204.333 272.445H170.277V306.501H204.333V272.445Z" stroke="#424242" stroke-width="0.630746"/>
<path d="M238.39 272.445H204.334V306.501H238.39V272.445Z" stroke="#424242" stroke-width="0.630746"/>
<path d="M272.444 272.445H238.389V306.501H272.444V272.445Z" stroke="#424242" stroke-width="0.630746"/>
<path d="M306.501 272.445H272.445V306.501H306.501V272.445Z" stroke="#424242" stroke-width="0.630746"/>
<path d="M340.556 272.445H306.5V306.501H340.556V272.445Z" stroke="#424242" stroke-width="0.630746"/>
<path d="M374.61 272.445H340.555V306.501H374.61V272.445Z" stroke="#424242" stroke-width="0.630746"/>
<path d="M408.667 272.445H374.611V306.501H408.667V272.445Z" stroke="#424242" stroke-width="0.630746"/>
<path d="M442.722 272.445H408.666V306.501H442.722V272.445Z" stroke="#424242" stroke-width="0.630746"/>
<path d="M476.778 272.445H442.723V306.501H476.778V272.445Z" stroke="#424242" stroke-width="0.630746"/>
<path d="M510.833 272.445H476.777V306.501H510.833V272.445Z" stroke="#424242" stroke-width="0.630746"/>
<path d="M544.89 272.445H510.834V306.501H544.89V272.445Z" stroke="#424242" stroke-width="0.630746"/>
<path d="M578.944 272.445H544.889V306.501H578.944V272.445Z" stroke="#424242" stroke-width="0.630746"/>
<path d="M613.001 272.445H578.945V306.501H613.001V272.445Z" stroke="#424242" stroke-width="0.630746"/>
<path d="M647.056 272.445H613V306.501H647.056V272.445Z" stroke="#424242" stroke-width="0.630746"/>
<path d="M34.0556 306.5H0V340.556H34.0556V306.5Z" stroke="#424242" stroke-width="0.630746"/>
<path d="M68.1102 306.5H34.0547V340.556H68.1102V306.5Z" stroke="#424242" stroke-width="0.630746"/>
<path d="M102.167 306.5H68.1113V340.556H102.167V306.5Z" stroke="#424242" stroke-width="0.630746"/>
<path d="M136.222 306.5H102.166V340.556H136.222V306.5Z" stroke="#424242" stroke-width="0.630746"/>
<path d="M170.278 306.5H136.223V340.556H170.278V306.5Z" stroke="#424242" stroke-width="0.630746"/>
<path d="M204.333 306.5H170.277V340.556H204.333V306.5Z" stroke="#424242" stroke-width="0.630746"/>
<path d="M238.39 306.5H204.334V340.556H238.39V306.5Z" stroke="#424242" stroke-width="0.630746"/>
<path d="M272.444 306.5H238.389V340.556H272.444V306.5Z" stroke="#424242" stroke-width="0.630746"/>
<path d="M306.501 306.5H272.445V340.556H306.501V306.5Z" stroke="#424242" stroke-width="0.630746"/>
<path d="M340.556 306.5H306.5V340.556H340.556V306.5Z" stroke="#424242" stroke-width="0.630746"/>
<path d="M374.61 306.5H340.555V340.556H374.61V306.5Z" stroke="#424242" stroke-width="0.630746"/>
<path d="M408.667 306.5H374.611V340.556H408.667V306.5Z" stroke="#424242" stroke-width="0.630746"/>
<path d="M442.722 306.5H408.666V340.556H442.722V306.5Z" stroke="#424242" stroke-width="0.630746"/>
<path d="M476.778 306.5H442.723V340.556H476.778V306.5Z" stroke="#424242" stroke-width="0.630746"/>
<path d="M510.833 306.5H476.777V340.556H510.833V306.5Z" stroke="#424242" stroke-width="0.630746"/>
<path d="M544.89 306.5H510.834V340.556H544.89V306.5Z" stroke="#424242" stroke-width="0.630746"/>
<path d="M578.944 306.5H544.889V340.556H578.944V306.5Z" stroke="#424242" stroke-width="0.630746"/>
<path d="M613.001 306.5H578.945V340.556H613.001V306.5Z" stroke="#424242" stroke-width="0.630746"/>
<path d="M647.056 306.5H613V340.556H647.056V306.5Z" stroke="#424242" stroke-width="0.630746"/>
<path d="M34.0556 340.555H0V374.61H34.0556V340.555Z" stroke="#424242" stroke-width="0.630746"/>
<path d="M68.1102 340.555H34.0547V374.61H68.1102V340.555Z" stroke="#424242" stroke-width="0.630746"/>
<path d="M102.167 340.555H68.1113V374.61H102.167V340.555Z" stroke="#424242" stroke-width="0.630746"/>
<path d="M136.222 340.555H102.166V374.61H136.222V340.555Z" stroke="#424242" stroke-width="0.630746"/>
<path d="M170.278 340.555H136.223V374.61H170.278V340.555Z" stroke="#424242" stroke-width="0.630746"/>
<path d="M204.333 340.555H170.277V374.61H204.333V340.555Z" stroke="#424242" stroke-width="0.630746"/>
<path d="M238.39 340.555H204.334V374.61H238.39V340.555Z" stroke="#424242" stroke-width="0.630746"/>
<path d="M272.444 340.555H238.389V374.61H272.444V340.555Z" stroke="#424242" stroke-width="0.630746"/>
<path d="M306.501 340.555H272.445V374.61H306.501V340.555Z" stroke="#424242" stroke-width="0.630746"/>
<path d="M340.556 340.555H306.5V374.61H340.556V340.555Z" stroke="#424242" stroke-width="0.630746"/>
<path d="M374.61 340.555H340.555V374.61H374.61V340.555Z" stroke="#424242" stroke-width="0.630746"/>
<path d="M408.667 340.555H374.611V374.61H408.667V340.555Z" stroke="#424242" stroke-width="0.630746"/>
<path d="M442.722 340.555H408.666V374.61H442.722V340.555Z" stroke="#424242" stroke-width="0.630746"/>
<path d="M476.778 340.555H442.723V374.61H476.778V340.555Z" stroke="#424242" stroke-width="0.630746"/>
<path d="M510.833 340.555H476.777V374.61H510.833V340.555Z" stroke="#424242" stroke-width="0.630746"/>
<path d="M544.89 340.555H510.834V374.61H544.89V340.555Z" stroke="#424242" stroke-width="0.630746"/>
<path d="M578.944 340.555H544.889V374.61H578.944V340.555Z" stroke="#424242" stroke-width="0.630746"/>
<path d="M613.001 340.555H578.945V374.61H613.001V340.555Z" stroke="#424242" stroke-width="0.630746"/>
<path d="M647.056 340.555H613V374.61H647.056V340.555Z" stroke="#424242" stroke-width="0.630746"/>
<path d="M34.0556 374.611H0V408.667H34.0556V374.611Z" stroke="#424242" stroke-width="0.630746"/>
<path d="M68.1102 374.611H34.0547V408.667H68.1102V374.611Z" stroke="#424242" stroke-width="0.630746"/>
<path d="M102.167 374.611H68.1113V408.667H102.167V374.611Z" stroke="#424242" stroke-width="0.630746"/>
<path d="M136.222 374.611H102.166V408.667H136.222V374.611Z" stroke="#424242" stroke-width="0.630746"/>
<path d="M170.278 374.611H136.223V408.667H170.278V374.611Z" stroke="#424242" stroke-width="0.630746"/>
<path d="M204.333 374.611H170.277V408.667H204.333V374.611Z" stroke="#424242" stroke-width="0.630746"/>
<path d="M238.39 374.611H204.334V408.667H238.39V374.611Z" stroke="#424242" stroke-width="0.630746"/>
<path d="M272.444 374.611H238.389V408.667H272.444V374.611Z" stroke="#424242" stroke-width="0.630746"/>
<path d="M306.501 374.611H272.445V408.667H306.501V374.611Z" stroke="#424242" stroke-width="0.630746"/>
<path d="M340.556 374.611H306.5V408.667H340.556V374.611Z" stroke="#424242" stroke-width="0.630746"/>
<path d="M374.61 374.611H340.555V408.667H374.61V374.611Z" stroke="#424242" stroke-width="0.630746"/>
<path d="M408.667 374.611H374.611V408.667H408.667V374.611Z" stroke="#424242" stroke-width="0.630746"/>
<path d="M442.722 374.611H408.666V408.667H442.722V374.611Z" stroke="#424242" stroke-width="0.630746"/>
<path d="M476.778 374.611H442.723V408.667H476.778V374.611Z" stroke="#424242" stroke-width="0.630746"/>
<path d="M510.833 374.611H476.777V408.667H510.833V374.611Z" stroke="#424242" stroke-width="0.630746"/>
<path d="M544.89 374.611H510.834V408.667H544.89V374.611Z" stroke="#424242" stroke-width="0.630746"/>
<path d="M578.944 374.611H544.889V408.667H578.944V374.611Z" stroke="#424242" stroke-width="0.630746"/>
<path d="M613.001 374.611H578.945V408.667H613.001V374.611Z" stroke="#424242" stroke-width="0.630746"/>
<path d="M647.056 374.611H613V408.667H647.056V374.611Z" stroke="#424242" stroke-width="0.630746"/>
<path d="M34.0556 408.666H0V442.722H34.0556V408.666Z" stroke="#424242" stroke-width="0.630746"/>
<path d="M68.1102 408.666H34.0547V442.722H68.1102V408.666Z" stroke="#424242" stroke-width="0.630746"/>
<path d="M102.167 408.666H68.1113V442.722H102.167V408.666Z" stroke="#424242" stroke-width="0.630746"/>
<path d="M136.222 408.666H102.166V442.722H136.222V408.666Z" stroke="#424242" stroke-width="0.630746"/>
<path d="M170.278 408.666H136.223V442.722H170.278V408.666Z" stroke="#424242" stroke-width="0.630746"/>
<path d="M204.333 408.666H170.277V442.722H204.333V408.666Z" stroke="#424242" stroke-width="0.630746"/>
<path d="M238.39 408.666H204.334V442.722H238.39V408.666Z" stroke="#424242" stroke-width="0.630746"/>
<path d="M272.444 408.666H238.389V442.722H272.444V408.666Z" stroke="#424242" stroke-width="0.630746"/>
<path d="M306.501 408.666H272.445V442.722H306.501V408.666Z" stroke="#424242" stroke-width="0.630746"/>
<path d="M340.556 408.666H306.5V442.722H340.556V408.666Z" stroke="#424242" stroke-width="0.630746"/>
<path d="M374.61 408.666H340.555V442.722H374.61V408.666Z" stroke="#424242" stroke-width="0.630746"/>
<path d="M408.667 408.666H374.611V442.722H408.667V408.666Z" stroke="#424242" stroke-width="0.630746"/>
<path d="M442.722 408.666H408.666V442.722H442.722V408.666Z" stroke="#424242" stroke-width="0.630746"/>
<path d="M476.778 408.666H442.723V442.722H476.778V408.666Z" stroke="#424242" stroke-width="0.630746"/>
<path d="M510.833 408.666H476.777V442.722H510.833V408.666Z" stroke="#424242" stroke-width="0.630746"/>
<path d="M544.89 408.666H510.834V442.722H544.89V408.666Z" stroke="#424242" stroke-width="0.630746"/>
<path d="M578.944 408.666H544.889V442.722H578.944V408.666Z" stroke="#424242" stroke-width="0.630746"/>
<path d="M613.001 408.666H578.945V442.722H613.001V408.666Z" stroke="#424242" stroke-width="0.630746"/>
<path d="M647.056 408.666H613V442.722H647.056V408.666Z" stroke="#424242" stroke-width="0.630746"/>
<path d="M34.0556 442.723H0V476.778H34.0556V442.723Z" stroke="#424242" stroke-width="0.630746"/>
<path d="M68.1102 442.723H34.0547V476.778H68.1102V442.723Z" stroke="#424242" stroke-width="0.630746"/>
<path d="M102.167 442.723H68.1113V476.778H102.167V442.723Z" stroke="#424242" stroke-width="0.630746"/>
<path d="M136.222 442.723H102.166V476.778H136.222V442.723Z" stroke="#424242" stroke-width="0.630746"/>
<path d="M170.278 442.723H136.223V476.778H170.278V442.723Z" stroke="#424242" stroke-width="0.630746"/>
<path d="M204.333 442.723H170.277V476.778H204.333V442.723Z" stroke="#424242" stroke-width="0.630746"/>
<path d="M238.39 442.723H204.334V476.778H238.39V442.723Z" stroke="#424242" stroke-width="0.630746"/>
<path d="M272.444 442.723H238.389V476.778H272.444V442.723Z" stroke="#424242" stroke-width="0.630746"/>
<path d="M306.501 442.723H272.445V476.778H306.501V442.723Z" stroke="#424242" stroke-width="0.630746"/>
<path d="M340.556 442.723H306.5V476.778H340.556V442.723Z" stroke="#424242" stroke-width="0.630746"/>
<path d="M374.61 442.723H340.555V476.778H374.61V442.723Z" stroke="#424242" stroke-width="0.630746"/>
<path d="M408.667 442.723H374.611V476.778H408.667V442.723Z" stroke="#424242" stroke-width="0.630746"/>
<path d="M442.722 442.723H408.666V476.778H442.722V442.723Z" stroke="#424242" stroke-width="0.630746"/>
<path d="M476.778 442.723H442.723V476.778H476.778V442.723Z" stroke="#424242" stroke-width="0.630746"/>
<path d="M510.833 442.723H476.777V476.778H510.833V442.723Z" stroke="#424242" stroke-width="0.630746"/>
<path d="M544.89 442.723H510.834V476.778H544.89V442.723Z" stroke="#424242" stroke-width="0.630746"/>
<path d="M578.944 442.723H544.889V476.778H578.944V442.723Z" stroke="#424242" stroke-width="0.630746"/>
<path d="M613.001 442.723H578.945V476.778H613.001V442.723Z" stroke="#424242" stroke-width="0.630746"/>
<path d="M647.056 442.723H613V476.778H647.056V442.723Z" stroke="#424242" stroke-width="0.630746"/>
<path d="M34.0556 476.777H0V510.833H34.0556V476.777Z" stroke="#424242" stroke-width="0.630746"/>
<path d="M68.1102 476.777H34.0547V510.833H68.1102V476.777Z" stroke="#424242" stroke-width="0.630746"/>
<path d="M102.167 476.777H68.1113V510.833H102.167V476.777Z" stroke="#424242" stroke-width="0.630746"/>
<path d="M136.222 476.777H102.166V510.833H136.222V476.777Z" stroke="#424242" stroke-width="0.630746"/>
<path d="M170.278 476.777H136.223V510.833H170.278V476.777Z" stroke="#424242" stroke-width="0.630746"/>
<path d="M204.333 476.777H170.277V510.833H204.333V476.777Z" stroke="#424242" stroke-width="0.630746"/>
<path d="M238.39 476.777H204.334V510.833H238.39V476.777Z" stroke="#424242" stroke-width="0.630746"/>
<path d="M272.444 476.777H238.389V510.833H272.444V476.777Z" stroke="#424242" stroke-width="0.630746"/>
<path d="M306.501 476.777H272.445V510.833H306.501V476.777Z" stroke="#424242" stroke-width="0.630746"/>
<path d="M340.556 476.777H306.5V510.833H340.556V476.777Z" stroke="#424242" stroke-width="0.630746"/>
<path d="M374.61 476.777H340.555V510.833H374.61V476.777Z" stroke="#424242" stroke-width="0.630746"/>
<path d="M408.667 476.777H374.611V510.833H408.667V476.777Z" stroke="#424242" stroke-width="0.630746"/>
<path d="M442.722 476.777H408.666V510.833H442.722V476.777Z" stroke="#424242" stroke-width="0.630746"/>
<path d="M476.778 476.777H442.723V510.833H476.778V476.777Z" stroke="#424242" stroke-width="0.630746"/>
<path d="M510.833 476.777H476.777V510.833H510.833V476.777Z" stroke="#424242" stroke-width="0.630746"/>
<path d="M544.89 476.777H510.834V510.833H544.89V476.777Z" stroke="#424242" stroke-width="0.630746"/>
<path d="M578.944 476.777H544.889V510.833H578.944V476.777Z" stroke="#424242" stroke-width="0.630746"/>
<path d="M613.001 476.777H578.945V510.833H613.001V476.777Z" stroke="#424242" stroke-width="0.630746"/>
<path d="M647.056 476.777H613V510.833H647.056V476.777Z" stroke="#424242" stroke-width="0.630746"/>
<path d="M34.0556 510.834H0V544.89H34.0556V510.834Z" stroke="#424242" stroke-width="0.630746"/>
<path d="M68.1102 510.834H34.0547V544.89H68.1102V510.834Z" stroke="#424242" stroke-width="0.630746"/>
<path d="M102.167 510.834H68.1113V544.89H102.167V510.834Z" stroke="#424242" stroke-width="0.630746"/>
<path d="M136.222 510.834H102.166V544.89H136.222V510.834Z" stroke="#424242" stroke-width="0.630746"/>
<path d="M170.278 510.834H136.223V544.89H170.278V510.834Z" stroke="#424242" stroke-width="0.630746"/>
<path d="M204.333 510.834H170.277V544.89H204.333V510.834Z" stroke="#424242" stroke-width="0.630746"/>
<path d="M238.39 510.834H204.334V544.89H238.39V510.834Z" stroke="#424242" stroke-width="0.630746"/>
<path d="M272.444 510.834H238.389V544.89H272.444V510.834Z" stroke="#424242" stroke-width="0.630746"/>
<path d="M306.501 510.834H272.445V544.89H306.501V510.834Z" stroke="#424242" stroke-width="0.630746"/>
<path d="M340.556 510.834H306.5V544.89H340.556V510.834Z" stroke="#424242" stroke-width="0.630746"/>
<path d="M374.61 510.834H340.555V544.89H374.61V510.834Z" stroke="#424242" stroke-width="0.630746"/>
<path d="M408.667 510.834H374.611V544.89H408.667V510.834Z" stroke="#424242" stroke-width="0.630746"/>
<path d="M442.722 510.834H408.666V544.89H442.722V510.834Z" stroke="#424242" stroke-width="0.630746"/>
<path d="M476.778 510.834H442.723V544.89H476.778V510.834Z" stroke="#424242" stroke-width="0.630746"/>
<path d="M510.833 510.834H476.777V544.89H510.833V510.834Z" stroke="#424242" stroke-width="0.630746"/>
<path d="M544.89 510.834H510.834V544.89H544.89V510.834Z" stroke="#424242" stroke-width="0.630746"/>
<path d="M578.944 510.834H544.889V544.89H578.944V510.834Z" stroke="#424242" stroke-width="0.630746"/>
<path d="M613.001 510.834H578.945V544.89H613.001V510.834Z" stroke="#424242" stroke-width="0.630746"/>
<path d="M647.056 510.834H613V544.89H647.056V510.834Z" stroke="#424242" stroke-width="0.630746"/>
<path d="M34.0556 544.889H0V578.944H34.0556V544.889Z" stroke="#424242" stroke-width="0.630746"/>
<path d="M68.1102 544.889H34.0547V578.944H68.1102V544.889Z" stroke="#424242" stroke-width="0.630746"/>
<path d="M102.167 544.889H68.1113V578.944H102.167V544.889Z" stroke="#424242" stroke-width="0.630746"/>
<path d="M136.222 544.889H102.166V578.944H136.222V544.889Z" stroke="#424242" stroke-width="0.630746"/>
<path d="M170.278 544.889H136.223V578.944H170.278V544.889Z" stroke="#424242" stroke-width="0.630746"/>
<path d="M204.333 544.889H170.277V578.944H204.333V544.889Z" stroke="#424242" stroke-width="0.630746"/>
<path d="M238.39 544.889H204.334V578.944H238.39V544.889Z" stroke="#424242" stroke-width="0.630746"/>
<path d="M272.444 544.889H238.389V578.944H272.444V544.889Z" stroke="#424242" stroke-width="0.630746"/>
<path d="M306.501 544.889H272.445V578.944H306.501V544.889Z" stroke="#424242" stroke-width="0.630746"/>
<path d="M340.556 544.889H306.5V578.944H340.556V544.889Z" stroke="#424242" stroke-width="0.630746"/>
<path d="M374.61 544.889H340.555V578.944H374.61V544.889Z" stroke="#424242" stroke-width="0.630746"/>
<path d="M408.667 544.889H374.611V578.944H408.667V544.889Z" stroke="#424242" stroke-width="0.630746"/>
<path d="M442.722 544.889H408.666V578.944H442.722V544.889Z" stroke="#424242" stroke-width="0.630746"/>
<path d="M476.778 544.889H442.723V578.944H476.778V544.889Z" stroke="#424242" stroke-width="0.630746"/>
<path d="M510.833 544.889H476.777V578.944H510.833V544.889Z" stroke="#424242" stroke-width="0.630746"/>
<path d="M544.89 544.889H510.834V578.944H544.89V544.889Z" stroke="#424242" stroke-width="0.630746"/>
<path d="M578.944 544.889H544.889V578.944H578.944V544.889Z" stroke="#424242" stroke-width="0.630746"/>
<path d="M613.001 544.889H578.945V578.944H613.001V544.889Z" stroke="#424242" stroke-width="0.630746"/>
<path d="M647.056 544.889H613V578.944H647.056V544.889Z" stroke="#424242" stroke-width="0.630746"/>
<path d="M34.0556 578.945H0V613.001H34.0556V578.945Z" stroke="#424242" stroke-width="0.630746"/>
<path d="M68.1102 578.945H34.0547V613.001H68.1102V578.945Z" stroke="#424242" stroke-width="0.630746"/>
<path d="M102.167 578.945H68.1113V613.001H102.167V578.945Z" stroke="#424242" stroke-width="0.630746"/>
<path d="M136.222 578.945H102.166V613.001H136.222V578.945Z" stroke="#424242" stroke-width="0.630746"/>
<path d="M170.278 578.945H136.223V613.001H170.278V578.945Z" stroke="#424242" stroke-width="0.630746"/>
<path d="M204.333 578.945H170.277V613.001H204.333V578.945Z" stroke="#424242" stroke-width="0.630746"/>
<path d="M238.39 578.945H204.334V613.001H238.39V578.945Z" stroke="#424242" stroke-width="0.630746"/>
<path d="M272.444 578.945H238.389V613.001H272.444V578.945Z" stroke="#424242" stroke-width="0.630746"/>
<path d="M306.501 578.945H272.445V613.001H306.501V578.945Z" stroke="#424242" stroke-width="0.630746"/>
<path d="M340.556 578.945H306.5V613.001H340.556V578.945Z" stroke="#424242" stroke-width="0.630746"/>
<path d="M374.61 578.945H340.555V613.001H374.61V578.945Z" stroke="#424242" stroke-width="0.630746"/>
<path d="M408.667 578.945H374.611V613.001H408.667V578.945Z" stroke="#424242" stroke-width="0.630746"/>
<path d="M442.722 578.945H408.666V613.001H442.722V578.945Z" stroke="#424242" stroke-width="0.630746"/>
<path d="M476.778 578.945H442.723V613.001H476.778V578.945Z" stroke="#424242" stroke-width="0.630746"/>
<path d="M510.833 578.945H476.777V613.001H510.833V578.945Z" stroke="#424242" stroke-width="0.630746"/>
<path d="M544.89 578.945H510.834V613.001H544.89V578.945Z" stroke="#424242" stroke-width="0.630746"/>
<path d="M578.944 578.945H544.889V613.001H578.944V578.945Z" stroke="#424242" stroke-width="0.630746"/>
<path d="M613.001 578.945H578.945V613.001H613.001V578.945Z" stroke="#424242" stroke-width="0.630746"/>
<path d="M647.056 578.945H613V613.001H647.056V578.945Z" stroke="#424242" stroke-width="0.630746"/>
<path d="M34.0556 613H0V647.056H34.0556V613Z" stroke="#424242" stroke-width="0.630746"/>
<path d="M68.1102 613H34.0547V647.056H68.1102V613Z" stroke="#424242" stroke-width="0.630746"/>
<path d="M102.167 613H68.1113V647.056H102.167V613Z" stroke="#424242" stroke-width="0.630746"/>
<path d="M136.222 613H102.166V647.056H136.222V613Z" stroke="#424242" stroke-width="0.630746"/>
<path d="M170.278 613H136.223V647.056H170.278V613Z" stroke="#424242" stroke-width="0.630746"/>
<path d="M204.333 613H170.277V647.056H204.333V613Z" stroke="#424242" stroke-width="0.630746"/>
<path d="M238.39 613H204.334V647.056H238.39V613Z" stroke="#424242" stroke-width="0.630746"/>
<path d="M272.444 613H238.389V647.056H272.444V613Z" stroke="#424242" stroke-width="0.630746"/>
<path d="M306.501 613H272.445V647.056H306.501V613Z" stroke="#424242" stroke-width="0.630746"/>
<path d="M340.556 613H306.5V647.056H340.556V613Z" stroke="#424242" stroke-width="0.630746"/>
<path d="M374.61 613H340.555V647.056H374.61V613Z" stroke="#424242" stroke-width="0.630746"/>
<path d="M408.667 613H374.611V647.056H408.667V613Z" stroke="#424242" stroke-width="0.630746"/>
<path d="M442.722 613H408.666V647.056H442.722V613Z" stroke="#424242" stroke-width="0.630746"/>
<path d="M476.778 613H442.723V647.056H476.778V613Z" stroke="#424242" stroke-width="0.630746"/>
<path d="M510.833 613H476.777V647.056H510.833V613Z" stroke="#424242" stroke-width="0.630746"/>
<path d="M544.89 613H510.834V647.056H544.89V613Z" stroke="#424242" stroke-width="0.630746"/>
<path d="M578.944 613H544.889V647.056H578.944V613Z" stroke="#424242" stroke-width="0.630746"/>
<path d="M613.001 613H578.945V647.056H613.001V613Z" stroke="#424242" stroke-width="0.630746"/>
<path d="M647.056 613H613V647.056H647.056V613Z" stroke="#424242" stroke-width="0.630746"/>
</g>
</mask>
<g mask="url(#mask0_2204_2221)">
<g filter="url(#filter0_f_2204_2221)">
<circle cx="307" cy="307" r="278" fill="#D9D9D9" fill-opacity="0.5"/>
</g>
</g>
</g>
<defs>
<filter id="filter0_f_2204_2221" x="-74.7" y="-74.7" width="763.4" height="763.4" filterUnits="userSpaceOnUse" color-interpolation-filters="sRGB">
<feFlood flood-opacity="0" result="BackgroundImageFix"/>
<feBlend mode="normal" in="SourceGraphic" in2="BackgroundImageFix" result="shape"/>
<feGaussianBlur stdDeviation="51.85" result="effect1_foregroundBlur_2204_2221"/>
</filter>
<clipPath id="clip0_2204_2221">
<rect width="613" height="613" fill="white"/>
</clipPath>
</defs>
</svg>
