<svg width="416" height="343" viewBox="0 0 416 343" fill="none" xmlns="http://www.w3.org/2000/svg">
<g filter="url(#filter0_dii_1216_715)">
<rect x="116.961" y="93.5" width="146.2" height="147" rx="31.5" stroke="#FF7F50" shape-rendering="crispEdges"/>
</g>
<rect opacity="0.1" x="24.9609" y="1" width="330.2" height="332" rx="111.5" stroke="#FF7F50"/>
<rect opacity="0.3" x="47.9609" y="24.125" width="284.2" height="285.75" rx="91.5" stroke="#FF7F50"/>
<rect opacity="0.6" x="70.9609" y="47.25" width="238.2" height="239.5" rx="71.5" stroke="#FF7F50"/>
<rect x="93.9609" y="70.375" width="192.2" height="193.25" rx="51.5" stroke="#FF7F50"/>
<path d="M70.3201 297.963L72.8407 284.155L61.2672 290.971L66.9682 292.748L70.3201 297.963Z" fill="#FF7F50" stroke="#FF7F50" stroke-width="0.7"/>
<g filter="url(#filter1_d_1216_715)">
<path d="M75.0625 299.363C75.0625 298.59 74.4357 297.963 73.6625 297.963H21.7125C12.4341 297.963 4.9125 305.485 4.9125 314.763V315.773C4.9125 325.051 12.4341 332.573 21.7125 332.573H58.2625C67.5409 332.573 75.0625 325.051 75.0625 315.773V299.363Z" fill="#FF7F50" shape-rendering="crispEdges"/>
<path d="M74.3625 299.363C74.3625 298.977 74.0491 298.663 73.6625 298.663H21.7125C12.8207 298.663 5.6125 305.872 5.6125 314.763V315.773C5.6125 324.664 12.8207 331.873 21.7125 331.873H58.2625C67.1543 331.873 74.3625 324.664 74.3625 315.773V299.363Z" stroke="#FF7F50" stroke-width="1.4" shape-rendering="crispEdges"/>
<path d="M13.5249 309.66H14.4657V317.5H13.5249V309.66ZM16.4192 311.676H17.1248L17.2816 312.684C17.3936 312.415 17.9984 311.564 19.2752 311.564C20.5744 311.564 21.4816 312.37 21.4816 314.05V317.5H20.552V314.073C20.552 313.065 20.0032 312.449 19.0736 312.449C17.8976 312.449 17.3488 313.434 17.3488 314.263V317.5H16.4192V311.676ZM23.5831 309.996H24.3559V311.676H25.8119V312.382H24.3559V315.63C24.3559 316.29 24.5687 316.716 25.2183 316.716C25.4423 316.716 25.6887 316.682 25.9575 316.638L26.1031 317.298C25.8231 317.41 25.4199 317.5 25.0727 317.5C23.8295 317.5 23.4375 316.828 23.4375 315.551V312.382H22.5863V311.81L23.4375 311.687L23.5831 309.996ZM26.7139 314.61C26.7139 312.919 27.9123 311.564 29.5811 311.564C31.3059 311.564 32.2467 313.009 32.2467 314.498C32.2467 314.778 32.2131 314.969 32.2131 314.969H27.6771C27.7555 316.078 28.6291 316.794 29.7603 316.794C30.3763 316.794 31.0035 316.626 31.5187 316.402L31.8323 317.108C31.3507 317.354 30.5667 317.612 29.7379 317.612C27.9683 317.612 26.7139 316.279 26.7139 314.61ZM27.6771 314.252H31.3731C31.3507 313.322 30.8019 312.382 29.6371 312.382C28.5731 312.382 27.7779 313.177 27.6771 314.252ZM33.5913 309.302H34.5209V316.402C34.5209 316.615 34.6553 316.671 34.8009 316.671C34.9577 316.671 35.1145 316.649 35.2489 316.638V317.377C35.1705 317.41 34.7561 317.5 34.4425 317.5C33.7705 317.5 33.5913 316.974 33.5913 316.582V309.302ZM36.5444 309.302H37.474V316.402C37.474 316.615 37.6084 316.671 37.754 316.671C37.9108 316.671 38.0676 316.649 38.202 316.638V317.377C38.1236 317.41 37.7092 317.5 37.3956 317.5C36.7236 317.5 36.5444 316.974 36.5444 316.582V309.302ZM39.0272 311.676H40.5616V317.5H39.632V312.505L39.0272 312.326V311.676ZM39.9792 309.503C40.3152 309.503 40.6064 309.783 40.6064 310.108C40.6064 310.455 40.3152 310.735 39.9792 310.735C39.632 310.735 39.3744 310.455 39.3744 310.119C39.3744 309.783 39.632 309.503 39.9792 309.503ZM47.0906 311.676V312.326L46.217 312.471C46.5082 312.718 46.6986 313.054 46.6986 313.58C46.6986 314.622 45.937 315.439 44.481 315.439C44.0666 315.439 43.529 315.372 43.193 315.193C43.081 315.249 42.857 315.428 42.857 315.708C42.857 316.335 43.9994 316.335 44.6826 316.335C46.1834 316.335 46.9898 316.66 46.9898 317.746C46.9898 319.158 45.5226 319.404 44.5034 319.404C43.3946 319.404 41.9834 319.068 41.9834 317.814C41.9834 317.298 42.2186 316.962 42.6778 316.66C42.2858 316.402 42.1402 316.1 42.1402 315.764C42.1402 315.271 42.4538 314.991 42.6778 314.823C42.3082 314.498 42.1738 313.961 42.1738 313.502C42.1738 312.314 43.081 311.564 44.425 311.564C44.6602 311.564 44.929 311.609 45.1418 311.676H47.0906ZM44.4474 312.281C43.5962 312.281 43.0586 312.774 43.0586 313.524C43.0586 314.252 43.5626 314.745 44.4474 314.745C45.3322 314.745 45.8138 314.263 45.8138 313.535C45.8138 312.774 45.2986 312.281 44.4474 312.281ZM44.929 317.041C44.2234 317.041 43.921 317.041 43.3834 316.94C43.1258 317.086 42.857 317.377 42.857 317.769C42.857 318.486 43.753 318.698 44.481 318.698C45.1978 318.698 46.1162 318.497 46.1162 317.758C46.1162 317.276 45.7354 317.052 44.929 317.041ZM47.9873 314.61C47.9873 312.919 49.1857 311.564 50.8545 311.564C52.5793 311.564 53.5201 313.009 53.5201 314.498C53.5201 314.778 53.4865 314.969 53.4865 314.969H48.9505C49.0289 316.078 49.9025 316.794 51.0337 316.794C51.6497 316.794 52.2769 316.626 52.7921 316.402L53.1057 317.108C52.6241 317.354 51.8401 317.612 51.0113 317.612C49.2417 317.612 47.9873 316.279 47.9873 314.61ZM48.9505 314.252H52.6465C52.6241 313.322 52.0753 312.382 50.9105 312.382C49.8465 312.382 49.0513 313.177 48.9505 314.252ZM54.8536 311.676H55.5592L55.716 312.684C55.828 312.415 56.4328 311.564 57.7096 311.564C59.0088 311.564 59.916 312.37 59.916 314.05V317.5H58.9864V314.073C58.9864 313.065 58.4376 312.449 57.508 312.449C56.332 312.449 55.7831 313.434 55.7831 314.263V317.5H54.8536V311.676ZM62.0174 309.996H62.7902V311.676H64.2462V312.382H62.7902V315.63C62.7902 316.29 63.003 316.716 63.6526 316.716C63.8766 316.716 64.123 316.682 64.3918 316.638L64.5374 317.298C64.2574 317.41 63.8542 317.5 63.507 317.5C62.2638 317.5 61.8718 316.828 61.8718 315.551V312.382H61.0206V311.81L61.8718 311.687L62.0174 309.996Z" fill="white"/>
</g>
<path d="M294.742 64.9508L292.674 53.623L302.169 59.2143L297.492 60.6726L294.742 64.9508Z" fill="#FF7F50" stroke="#FF7F50" stroke-width="0.574257"/>
<path d="M301.035 65.4996C301.035 65.1824 301.292 64.9253 301.609 64.9253H346.479C353.773 64.9253 359.687 70.8387 359.687 78.1333V78.9979C359.687 86.2924 353.773 92.2058 346.479 92.2058H314.243C306.949 92.2058 301.035 86.2924 301.035 78.9979V65.4996Z" fill="#FF7F50"/>
<path d="M301.035 65.4996C301.035 65.1824 301.292 64.9253 301.609 64.9253H346.479C353.773 64.9253 359.687 70.8387 359.687 78.1333V78.9979C359.687 86.2924 353.773 92.2058 346.479 92.2058H314.243C306.949 92.2058 301.035 86.2924 301.035 78.9979V65.4996Z" stroke="#FF7F50" stroke-width="1.14851"/>
<path d="M308.84 74.4242C308.805 74.1153 308.661 73.8761 308.409 73.7064C308.157 73.5345 307.839 73.4486 307.456 73.4486C307.182 73.4486 306.945 73.4921 306.745 73.5791C306.545 73.664 306.389 73.7814 306.278 73.9315C306.17 74.0794 306.115 74.248 306.115 74.4373C306.115 74.596 306.152 74.7331 306.226 74.8484C306.302 74.9637 306.401 75.0605 306.523 75.1388C306.647 75.2149 306.78 75.2791 306.921 75.3313C307.062 75.3813 307.198 75.4226 307.329 75.4553L307.982 75.6249C308.195 75.6771 308.413 75.7478 308.637 75.837C308.861 75.9262 309.069 76.0437 309.261 76.1894C309.452 76.3351 309.606 76.5157 309.724 76.731C309.844 76.9464 309.903 77.2041 309.903 77.5043C309.903 77.8828 309.805 78.2189 309.61 78.5125C309.416 78.8062 309.134 79.0378 308.765 79.2075C308.397 79.3772 307.952 79.462 307.43 79.462C306.93 79.462 306.497 79.3826 306.132 79.2238C305.766 79.065 305.48 78.8399 305.273 78.5484C305.067 78.2548 304.953 77.9067 304.931 77.5043H305.942C305.962 77.7458 306.04 77.947 306.177 78.1079C306.316 78.2667 306.494 78.3853 306.709 78.4636C306.927 78.5397 307.165 78.5778 307.424 78.5778C307.709 78.5778 307.962 78.5332 308.184 78.444C308.408 78.3526 308.584 78.2265 308.712 78.0655C308.841 77.9024 308.905 77.712 308.905 77.4945C308.905 77.2966 308.848 77.1345 308.735 77.0084C308.624 76.8822 308.473 76.7778 308.282 76.6951C308.092 76.6125 307.878 76.5396 307.639 76.4765L306.849 76.2612C306.314 76.1154 305.89 75.9012 305.577 75.6184C305.266 75.3356 305.11 74.9615 305.11 74.496C305.11 74.111 305.215 73.7749 305.423 73.4878C305.632 73.2006 305.915 72.9777 306.272 72.8189C306.629 72.6579 307.031 72.5774 307.479 72.5774C307.931 72.5774 308.331 72.6568 308.677 72.8156C309.025 72.9744 309.299 73.193 309.499 73.4715C309.699 73.7477 309.803 74.0653 309.812 74.4242H308.84ZM313.19 79.4522C312.696 79.4522 312.271 79.3467 311.914 79.1357C311.559 78.9226 311.285 78.6235 311.092 78.2385C310.9 77.8513 310.805 77.3977 310.805 76.8779C310.805 76.3645 310.9 75.9121 311.092 75.5205C311.285 75.129 311.555 74.8234 311.901 74.6037C312.249 74.384 312.656 74.2741 313.121 74.2741C313.404 74.2741 313.678 74.3209 313.944 74.4144C314.209 74.508 314.447 74.6548 314.658 74.8549C314.869 75.055 315.035 75.315 315.157 75.6347C315.279 75.9523 315.34 76.3384 315.34 76.793V77.1389H311.356V76.408H314.384C314.384 76.1513 314.332 75.924 314.227 75.7261C314.123 75.526 313.976 75.3683 313.787 75.253C313.6 75.1377 313.38 75.08 313.128 75.08C312.854 75.08 312.614 75.1475 312.41 75.2823C312.208 75.415 312.051 75.589 311.94 75.8044C311.831 76.0176 311.777 76.2492 311.777 76.4994V77.0704C311.777 77.4053 311.836 77.6903 311.953 77.9252C312.073 78.1601 312.239 78.3396 312.452 78.4636C312.666 78.5854 312.915 78.6463 313.2 78.6463C313.384 78.6463 313.553 78.6202 313.705 78.568C313.858 78.5136 313.989 78.4331 314.1 78.3265C314.211 78.22 314.296 78.0884 314.355 77.9317L315.278 78.0981C315.204 78.3701 315.071 78.6082 314.88 78.8127C314.691 79.015 314.453 79.1727 314.165 79.2858C313.88 79.3968 313.555 79.4522 313.19 79.4522ZM317.881 79.462C317.563 79.462 317.276 79.4033 317.02 79.2858C316.763 79.1662 316.559 78.9933 316.409 78.767C316.261 78.5408 316.188 78.2635 316.188 77.935C316.188 77.6522 316.242 77.4195 316.351 77.2368C316.459 77.054 316.606 76.9094 316.791 76.8028C316.976 76.6962 317.183 76.6157 317.411 76.5614C317.639 76.507 317.872 76.4656 318.109 76.4374C318.41 76.4026 318.653 76.3743 318.84 76.3525C319.027 76.3286 319.163 76.2905 319.248 76.2383C319.333 76.1861 319.375 76.1013 319.375 75.9838V75.961C319.375 75.676 319.295 75.4553 319.134 75.2986C318.975 75.142 318.738 75.0637 318.423 75.0637C318.094 75.0637 317.835 75.1366 317.646 75.2823C317.459 75.4259 317.33 75.5858 317.258 75.762L316.341 75.5531C316.45 75.2486 316.608 75.0028 316.817 74.8157C317.028 74.6265 317.271 74.4895 317.545 74.4046C317.819 74.3176 318.107 74.2741 318.41 74.2741C318.61 74.2741 318.822 74.298 319.046 74.3459C319.272 74.3916 319.483 74.4764 319.679 74.6004C319.877 74.7244 320.039 74.9017 320.165 75.1322C320.291 75.3606 320.354 75.6576 320.354 76.023V79.3511H319.401V78.6659H319.362C319.299 78.792 319.205 78.916 319.078 79.0378C318.952 79.1597 318.79 79.2608 318.592 79.3413C318.394 79.4218 318.157 79.462 317.881 79.462ZM318.093 78.6789C318.363 78.6789 318.593 78.6256 318.785 78.5191C318.978 78.4125 319.125 78.2733 319.225 78.1014C319.327 77.9274 319.379 77.7414 319.379 77.5435V76.8974C319.344 76.9322 319.276 76.9649 319.176 76.9953C319.078 77.0236 318.966 77.0486 318.84 77.0704C318.714 77.0899 318.591 77.1084 318.472 77.1258C318.352 77.1411 318.252 77.1541 318.171 77.165C317.982 77.1889 317.809 77.2291 317.653 77.2857C317.498 77.3423 317.374 77.4238 317.281 77.5304C317.189 77.6348 317.144 77.774 317.144 77.9481C317.144 78.1895 317.233 78.3722 317.411 78.4962C317.589 78.618 317.817 78.6789 318.093 78.6789ZM321.654 79.3511V74.3394H322.59V75.1551H322.652C322.756 74.8788 322.927 74.6635 323.164 74.509C323.401 74.3524 323.685 74.2741 324.016 74.2741C324.351 74.2741 324.631 74.3524 324.858 74.509C325.086 74.6657 325.255 74.881 325.363 75.1551H325.416C325.535 74.8875 325.726 74.6744 325.987 74.5156C326.248 74.3546 326.559 74.2741 326.92 74.2741C327.374 74.2741 327.745 74.4166 328.032 74.7015C328.322 74.9865 328.466 75.4161 328.466 75.9904V79.3511H327.491V76.0817C327.491 75.7424 327.398 75.4966 327.213 75.3443C327.029 75.1921 326.808 75.1159 326.551 75.1159C326.234 75.1159 325.987 75.2138 325.81 75.4096C325.634 75.6032 325.546 75.8522 325.546 76.1568V79.3511H324.574V76.0197C324.574 75.7478 324.489 75.5292 324.319 75.3639C324.15 75.1986 323.929 75.1159 323.657 75.1159C323.472 75.1159 323.301 75.1649 323.145 75.2628C322.99 75.3585 322.865 75.4922 322.769 75.6641C322.676 75.8359 322.629 76.035 322.629 76.2612V79.3511H321.654ZM330.75 72.6688V79.3511H329.774V72.6688H330.75ZM334.222 79.4522C333.728 79.4522 333.303 79.3467 332.946 79.1357C332.592 78.9226 332.318 78.6235 332.124 78.2385C331.933 77.8513 331.837 77.3977 331.837 76.8779C331.837 76.3645 331.933 75.9121 332.124 75.5205C332.318 75.129 332.587 74.8234 332.933 74.6037C333.281 74.384 333.688 74.2741 334.153 74.2741C334.436 74.2741 334.71 74.3209 334.976 74.4144C335.241 74.508 335.479 74.6548 335.69 74.8549C335.901 75.055 336.068 75.315 336.189 75.6347C336.311 75.9523 336.372 76.3384 336.372 76.793V77.1389H332.388V76.408H335.416C335.416 76.1513 335.364 75.924 335.26 75.7261C335.155 75.526 335.008 75.3683 334.819 75.253C334.632 75.1377 334.412 75.08 334.16 75.08C333.886 75.08 333.647 75.1475 333.442 75.2823C333.24 75.415 333.083 75.589 332.972 75.8044C332.864 76.0176 332.809 76.2492 332.809 76.4994V77.0704C332.809 77.4053 332.868 77.6903 332.985 77.9252C333.105 78.1601 333.271 78.3396 333.485 78.4636C333.698 78.5854 333.947 78.6463 334.232 78.6463C334.417 78.6463 334.585 78.6202 334.738 78.568C334.89 78.5136 335.021 78.4331 335.132 78.3265C335.243 78.22 335.328 78.0884 335.387 77.9317L336.31 78.0981C336.236 78.3701 336.104 78.6082 335.912 78.8127C335.723 79.015 335.485 79.1727 335.198 79.2858C334.913 79.3968 334.587 79.4522 334.222 79.4522ZM341.21 75.5629L340.326 75.7195C340.289 75.6064 340.23 75.4988 340.15 75.3965C340.071 75.2943 339.965 75.2105 339.83 75.1453C339.695 75.08 339.527 75.0474 339.324 75.0474C339.048 75.0474 338.817 75.1094 338.633 75.2334C338.448 75.3552 338.355 75.5129 338.355 75.7065C338.355 75.874 338.417 76.0089 338.541 76.1111C338.665 76.2133 338.865 76.2971 339.142 76.3623L339.938 76.545C340.399 76.6516 340.742 76.8159 340.969 77.0377C341.195 77.2596 341.308 77.5478 341.308 77.9024C341.308 78.2026 341.221 78.4701 341.047 78.705C340.875 78.9378 340.635 79.1205 340.326 79.2532C340.019 79.3859 339.664 79.4522 339.259 79.4522C338.698 79.4522 338.24 79.3326 337.885 79.0933C337.531 78.8519 337.313 78.5093 337.233 78.0655L338.176 77.922C338.234 78.1678 338.355 78.3537 338.538 78.4799C338.721 78.6039 338.959 78.6659 339.252 78.6659C339.572 78.6659 339.828 78.5995 340.019 78.4668C340.211 78.332 340.306 78.1678 340.306 77.9742C340.306 77.8175 340.248 77.6859 340.13 77.5794C340.015 77.4728 339.838 77.3923 339.598 77.3379L338.75 77.1519C338.282 77.0453 337.936 76.8757 337.712 76.6429C337.491 76.4102 337.38 76.1154 337.38 75.7587C337.38 75.4629 337.462 75.204 337.628 74.9821C337.793 74.7603 338.021 74.5873 338.313 74.4634C338.604 74.3372 338.938 74.2741 339.314 74.2741C339.856 74.2741 340.282 74.3916 340.593 74.6265C340.905 74.8592 341.11 75.1714 341.21 75.5629ZM346.136 75.5629L345.252 75.7195C345.215 75.6064 345.156 75.4988 345.076 75.3965C344.997 75.2943 344.891 75.2105 344.756 75.1453C344.621 75.08 344.453 75.0474 344.25 75.0474C343.974 75.0474 343.743 75.1094 343.559 75.2334C343.374 75.3552 343.281 75.5129 343.281 75.7065C343.281 75.874 343.343 76.0089 343.467 76.1111C343.591 76.2133 343.791 76.2971 344.068 76.3623L344.864 76.545C345.325 76.6516 345.669 76.8159 345.895 77.0377C346.121 77.2596 346.234 77.5478 346.234 77.9024C346.234 78.2026 346.147 78.4701 345.973 78.705C345.801 78.9378 345.561 79.1205 345.252 79.2532C344.945 79.3859 344.59 79.4522 344.185 79.4522C343.624 79.4522 343.166 79.3326 342.811 79.0933C342.457 78.8519 342.239 78.5093 342.159 78.0655L343.102 77.922C343.161 78.1678 343.281 78.3537 343.464 78.4799C343.647 78.6039 343.885 78.6659 344.179 78.6659C344.498 78.6659 344.754 78.5995 344.945 78.4668C345.137 78.332 345.232 78.1678 345.232 77.9742C345.232 77.8175 345.174 77.6859 345.056 77.5794C344.941 77.4728 344.764 77.3923 344.524 77.3379L343.676 77.1519C343.208 77.0453 342.862 76.8757 342.638 76.6429C342.417 76.4102 342.306 76.1154 342.306 75.7587C342.306 75.4629 342.388 75.204 342.554 74.9821C342.719 74.7603 342.947 74.5873 343.239 74.4634C343.53 74.3372 343.864 74.2741 344.241 74.2741C344.782 74.2741 345.208 74.3916 345.52 74.6265C345.831 74.8592 346.036 75.1714 346.136 75.5629Z" fill="white"/>
<path d="M74.3625 97.888C74.3625 97.5014 74.0491 97.188 73.6625 97.188H16.913C8.76653 97.188 2.1625 103.792 2.1625 111.939C2.1625 120.085 8.76654 126.689 16.913 126.689H58.2625C67.1543 126.689 74.3625 119.481 74.3625 110.589V97.888Z" fill="#FE7D54"/>
<path d="M74.3625 97.888C74.3625 97.5014 74.0491 97.188 73.6625 97.188H16.913C8.76653 97.188 2.1625 103.792 2.1625 111.939C2.1625 120.085 8.76654 126.689 16.913 126.689H58.2625C67.1543 126.689 74.3625 119.481 74.3625 110.589V97.888Z" stroke="#FF7F50" stroke-width="1.4"/>
<path d="M21.4412 107.561C21.4064 107.252 21.2628 107.013 21.0105 106.843C20.7582 106.672 20.4406 106.586 20.0578 106.586C19.7837 106.586 19.5466 106.629 19.3465 106.716C19.1464 106.801 18.9908 106.918 18.8799 107.068C18.7711 107.216 18.7168 107.385 18.7168 107.574C18.7168 107.733 18.7537 107.87 18.8277 107.985C18.9038 108.101 19.0028 108.197 19.1246 108.276C19.2486 108.352 19.3813 108.416 19.5227 108.468C19.6641 108.518 19.8 108.56 19.9305 108.592L20.5831 108.762C20.7963 108.814 21.0149 108.885 21.2389 108.974C21.463 109.063 21.6707 109.181 21.8621 109.326C22.0535 109.472 22.208 109.653 22.3254 109.868C22.4451 110.083 22.5049 110.341 22.5049 110.641C22.5049 111.02 22.407 111.356 22.2112 111.649C22.0176 111.943 21.736 112.175 21.3662 112.344C20.9986 112.514 20.5537 112.599 20.0317 112.599C19.5314 112.599 19.0985 112.52 18.7331 112.361C18.3676 112.202 18.0816 111.977 17.8749 111.685C17.6683 111.392 17.5541 111.044 17.5323 110.641H18.5438C18.5634 110.883 18.6417 111.084 18.7787 111.245C18.918 111.404 19.0952 111.522 19.3106 111.601C19.5281 111.677 19.7663 111.715 20.0251 111.715C20.3101 111.715 20.5635 111.67 20.7854 111.581C21.0094 111.49 21.1856 111.363 21.314 111.202C21.4423 111.039 21.5065 110.849 21.5065 110.631C21.5065 110.434 21.4499 110.271 21.3368 110.145C21.2259 110.019 21.0747 109.915 20.8833 109.832C20.694 109.749 20.4798 109.677 20.2405 109.613L19.4509 109.398C18.9158 109.252 18.4916 109.038 18.1784 108.755C17.8673 108.473 17.7118 108.098 17.7118 107.633C17.7118 107.248 17.8162 106.912 18.025 106.625C18.2339 106.338 18.5166 106.115 18.8734 105.956C19.2301 105.795 19.6325 105.714 20.0806 105.714C20.5331 105.714 20.9322 105.794 21.2781 105.953C21.6261 106.111 21.9002 106.33 22.1003 106.608C22.3004 106.885 22.4048 107.202 22.4135 107.561H21.4412ZM25.9708 107.476V108.259H23.2333V107.476H25.9708ZM23.9675 106.276H24.943V111.017C24.943 111.206 24.9713 111.348 25.0279 111.444C25.0844 111.537 25.1573 111.602 25.2465 111.636C25.3378 111.669 25.4368 111.685 25.5434 111.685C25.6217 111.685 25.6902 111.68 25.749 111.669C25.8077 111.658 25.8534 111.649 25.886 111.643L26.0622 112.449C26.0056 112.471 25.9252 112.492 25.8207 112.514C25.7163 112.538 25.5858 112.551 25.4292 112.553C25.1725 112.558 24.9333 112.512 24.7114 112.416C24.4895 112.321 24.3101 112.173 24.173 111.973C24.036 111.772 23.9675 111.521 23.9675 111.219V106.276ZM27.05 112.488V107.476H27.993V108.272H28.0452C28.1365 108.003 28.2975 107.791 28.5281 107.636C28.7608 107.48 29.024 107.401 29.3177 107.401C29.3786 107.401 29.4504 107.403 29.533 107.408C29.6179 107.412 29.6842 107.418 29.7321 107.424V108.357C29.6929 108.346 29.6233 108.334 29.5232 108.321C29.4232 108.306 29.3231 108.299 29.2231 108.299C28.9925 108.299 28.7869 108.348 28.6064 108.445C28.428 108.541 28.2866 108.675 28.1822 108.847C28.0778 109.016 28.0256 109.21 28.0256 109.428V112.488H27.05ZM32.5568 112.589C32.0631 112.589 31.6378 112.484 31.2811 112.273C30.9265 112.06 30.6524 111.76 30.4588 111.375C30.2674 110.988 30.1717 110.535 30.1717 110.015C30.1717 109.501 30.2674 109.049 30.4588 108.657C30.6524 108.266 30.9222 107.96 31.268 107.741C31.6161 107.521 32.0228 107.411 32.4883 107.411C32.7711 107.411 33.0452 107.458 33.3106 107.551C33.5759 107.645 33.8141 107.792 34.0251 107.992C34.2361 108.192 34.4025 108.452 34.5243 108.772C34.6461 109.089 34.707 109.475 34.707 109.93V110.276H30.7231V109.545H33.751C33.751 109.288 33.6988 109.061 33.5944 108.863C33.49 108.663 33.3432 108.505 33.1539 108.39C32.9669 108.275 32.7472 108.217 32.4949 108.217C32.2208 108.217 31.9815 108.284 31.777 108.419C31.5747 108.552 31.4181 108.726 31.3072 108.941C31.1984 109.155 31.144 109.386 31.144 109.636V110.207C31.144 110.542 31.2028 110.827 31.3202 111.062C31.4399 111.297 31.6063 111.477 31.8194 111.601C32.0326 111.722 32.2817 111.783 32.5666 111.783C32.7515 111.783 32.9201 111.757 33.0724 111.705C33.2246 111.651 33.3562 111.57 33.4672 111.464C33.5781 111.357 33.6629 111.225 33.7217 111.069L34.6451 111.235C34.5711 111.507 34.4384 111.745 34.247 111.95C34.0577 112.152 33.8196 112.31 33.5324 112.423C33.2475 112.534 32.9223 112.589 32.5568 112.589ZM37.248 112.599C36.9304 112.599 36.6433 112.54 36.3866 112.423C36.1299 112.303 35.9265 112.13 35.7764 111.904C35.6285 111.678 35.5546 111.4 35.5546 111.072C35.5546 110.789 35.6089 110.556 35.7177 110.374C35.8265 110.191 35.9733 110.046 36.1582 109.94C36.3431 109.833 36.5497 109.753 36.7781 109.698C37.0065 109.644 37.2393 109.603 37.4764 109.574C37.7766 109.54 38.0202 109.511 38.2072 109.489C38.3943 109.466 38.5303 109.428 38.6151 109.375C38.6999 109.323 38.7423 109.238 38.7423 109.121V109.098C38.7423 108.813 38.6619 108.592 38.5009 108.436C38.3421 108.279 38.105 108.201 37.7896 108.201C37.4611 108.201 37.2023 108.274 37.0131 108.419C36.826 108.563 36.6966 108.723 36.6248 108.899L35.7079 108.69C35.8167 108.386 35.9755 108.14 36.1843 107.953C36.3953 107.763 36.6378 107.626 36.9119 107.542C37.186 107.455 37.4742 107.411 37.7766 107.411C37.9767 107.411 38.1888 107.435 38.4128 107.483C38.639 107.529 38.85 107.613 39.0458 107.737C39.2437 107.861 39.4058 108.039 39.532 108.269C39.6581 108.498 39.7212 108.795 39.7212 109.16V112.488H38.7685V111.803H38.7293C38.6662 111.929 38.5716 112.053 38.4454 112.175C38.3193 112.297 38.1572 112.398 37.9593 112.478C37.7613 112.559 37.5242 112.599 37.248 112.599ZM37.4601 111.816C37.7298 111.816 37.9604 111.763 38.1518 111.656C38.3454 111.549 38.4922 111.41 38.5923 111.238C38.6945 111.064 38.7456 110.878 38.7456 110.68V110.034C38.7108 110.069 38.6434 110.102 38.5433 110.132C38.4454 110.161 38.3334 110.186 38.2072 110.207C38.0811 110.227 37.9582 110.245 37.8385 110.263C37.7189 110.278 37.6188 110.291 37.5384 110.302C37.3491 110.326 37.1762 110.366 37.0196 110.423C36.8651 110.479 36.7411 110.561 36.6476 110.667C36.5563 110.772 36.5106 110.911 36.5106 111.085C36.5106 111.326 36.5998 111.509 36.7781 111.633C36.9565 111.755 37.1838 111.816 37.4601 111.816ZM41.0206 112.488V107.476H41.957V108.292H42.019C42.1235 108.016 42.2942 107.8 42.5313 107.646C42.7684 107.489 43.0523 107.411 43.3829 107.411C43.7179 107.411 43.9985 107.489 44.2247 107.646C44.4531 107.803 44.6217 108.018 44.7305 108.292H44.7827C44.9023 108.024 45.0926 107.811 45.3537 107.653C45.6147 107.492 45.9257 107.411 46.2868 107.411C46.7414 107.411 47.1123 107.554 47.3994 107.839C47.6887 108.123 47.8334 108.553 47.8334 109.127V112.488H46.8578V109.219C46.8578 108.879 46.7654 108.634 46.5805 108.481C46.3956 108.329 46.1748 108.253 45.9181 108.253C45.6005 108.253 45.3537 108.351 45.1775 108.547C45.0013 108.74 44.9132 108.989 44.9132 109.294V112.488H43.9408V109.157C43.9408 108.885 43.856 108.666 43.6863 108.501C43.5167 108.336 43.2959 108.253 43.024 108.253C42.8391 108.253 42.6683 108.302 42.5117 108.4C42.3573 108.495 42.2322 108.629 42.1365 108.801C42.043 108.973 41.9962 109.172 41.9962 109.398V112.488H41.0206ZM50.1166 105.806V112.488H49.141V105.806H50.1166ZM51.429 112.488V107.476H52.4046V112.488H51.429ZM51.9217 106.703C51.7521 106.703 51.6063 106.646 51.4845 106.533C51.3649 106.418 51.305 106.281 51.305 106.122C51.305 105.961 51.3649 105.824 51.4845 105.711C51.6063 105.596 51.7521 105.538 51.9217 105.538C52.0914 105.538 52.236 105.596 52.3557 105.711C52.4775 105.824 52.5384 105.961 52.5384 106.122C52.5384 106.281 52.4775 106.418 52.3557 106.533C52.236 106.646 52.0914 106.703 51.9217 106.703ZM54.6927 109.512V112.488H53.7171V107.476H54.6535V108.292H54.7155C54.8308 108.027 55.0113 107.813 55.2571 107.653C55.5051 107.492 55.8173 107.411 56.1936 107.411C56.5351 107.411 56.8342 107.483 57.0909 107.626C57.3475 107.768 57.5466 107.979 57.688 108.259C57.8293 108.54 57.9 108.887 57.9 109.3V112.488H56.9245V109.418C56.9245 109.054 56.8298 108.771 56.6406 108.566C56.4513 108.359 56.1914 108.256 55.8608 108.256C55.6345 108.256 55.4333 108.305 55.2571 108.403C55.0831 108.501 54.945 108.644 54.8428 108.834C54.7427 109.021 54.6927 109.247 54.6927 109.512ZM61.3684 112.589C60.8746 112.589 60.4494 112.484 60.0927 112.273C59.7381 112.06 59.464 111.76 59.2704 111.375C59.079 110.988 58.9833 110.535 58.9833 110.015C58.9833 109.501 59.079 109.049 59.2704 108.657C59.464 108.266 59.7337 107.96 60.0796 107.741C60.4276 107.521 60.8344 107.411 61.2999 107.411C61.5827 107.411 61.8568 107.458 62.1221 107.551C62.3875 107.645 62.6257 107.792 62.8367 107.992C63.0477 108.192 63.2141 108.452 63.3359 108.772C63.4577 109.089 63.5186 109.475 63.5186 109.93V110.276H59.5347V109.545H62.5626C62.5626 109.288 62.5104 109.061 62.406 108.863C62.3016 108.663 62.1548 108.505 61.9655 108.39C61.7784 108.275 61.5588 108.217 61.3064 108.217C61.0323 108.217 60.7931 108.284 60.5886 108.419C60.3863 108.552 60.2297 108.726 60.1188 108.941C60.01 109.155 59.9556 109.386 59.9556 109.636V110.207C59.9556 110.542 60.0143 110.827 60.1318 111.062C60.2514 111.297 60.4178 111.477 60.631 111.601C60.8442 111.722 61.0933 111.783 61.3782 111.783C61.5631 111.783 61.7317 111.757 61.8839 111.705C62.0362 111.651 62.1678 111.57 62.2787 111.464C62.3897 111.357 62.4745 111.225 62.5332 111.069L63.4566 111.235C63.3827 111.507 63.25 111.745 63.0586 111.95C62.8693 112.152 62.6311 112.31 62.344 112.423C62.0591 112.534 61.7339 112.589 61.3684 112.589ZM66.4772 112.586C66.0726 112.586 65.7115 112.483 65.3939 112.276C65.0785 112.067 64.8305 111.77 64.65 111.385C64.4716 110.998 64.3825 110.534 64.3825 109.992C64.3825 109.45 64.4727 108.987 64.6533 108.602C64.836 108.217 65.0861 107.922 65.4037 107.718C65.7213 107.513 66.0813 107.411 66.4837 107.411C66.7948 107.411 67.0449 107.463 67.2342 107.568C67.4256 107.67 67.5735 107.79 67.6779 107.927C67.7845 108.064 67.8672 108.184 67.9259 108.289H67.9846V105.806H68.9602V112.488H68.0075V111.708H67.9259C67.8672 111.815 67.7823 111.937 67.6714 112.074C67.5626 112.211 67.4125 112.33 67.2211 112.433C67.0297 112.535 66.7817 112.586 66.4772 112.586ZM66.6925 111.754C66.9731 111.754 67.2102 111.68 67.4038 111.532C67.5996 111.382 67.7475 111.174 67.8476 110.909C67.9498 110.643 68.0009 110.335 68.0009 109.982C68.0009 109.634 67.9509 109.33 67.8508 109.069C67.7508 108.808 67.604 108.604 67.4104 108.458C67.2168 108.313 66.9775 108.24 66.6925 108.24C66.3989 108.24 66.1542 108.316 65.9584 108.468C65.7626 108.621 65.6147 108.828 65.5147 109.091C65.4168 109.355 65.3678 109.652 65.3678 109.982C65.3678 110.317 65.4179 110.618 65.5179 110.886C65.618 111.154 65.7659 111.366 65.9617 111.522C66.1596 111.677 66.4032 111.754 66.6925 111.754Z" fill="white"/>
<path d="M75.0313 95.6681L77.0992 85.473L67.6046 90.5052L72.2815 91.8177L75.0313 95.6681Z" fill="#FE7D54" stroke="#FF7F50" stroke-width="0.574257"/>
<path d="M296.008 275.715L293.487 261.907L305.061 268.722L299.36 270.5L296.008 275.715Z" fill="white" fill-opacity="0.17" stroke="#FF7F50" stroke-width="0.7"/>
<path d="M304.614 277.115C304.614 276.728 304.927 276.415 305.314 276.415H398.664C407.556 276.415 414.764 283.623 414.764 292.515V293.524C414.764 302.416 407.556 309.624 398.664 309.624H320.714C311.822 309.624 304.614 302.416 304.614 293.524V277.115Z" fill="white" fill-opacity="0.17"/>
<path d="M304.614 277.115C304.614 276.728 304.927 276.415 305.314 276.415H398.664C407.556 276.415 414.764 283.623 414.764 292.515V293.524C414.764 302.416 407.556 309.624 398.664 309.624H320.714C311.822 309.624 304.614 302.416 304.614 293.524V277.115Z" stroke="#FF7F50" stroke-width="1.4"/>
<path d="M312.407 285.627V284.569H318.711V285.627H316.17V292.715H314.945V285.627H312.407ZM319.374 292.715V286.606H320.524V287.576H320.588C320.699 287.247 320.895 286.989 321.176 286.8C321.46 286.609 321.781 286.514 322.139 286.514C322.213 286.514 322.3 286.517 322.401 286.522C322.505 286.527 322.585 286.534 322.644 286.542V287.679C322.596 287.666 322.511 287.652 322.389 287.636C322.267 287.617 322.145 287.608 322.023 287.608C321.742 287.608 321.492 287.667 321.272 287.787C321.054 287.903 320.882 288.066 320.755 288.276C320.627 288.483 320.564 288.719 320.564 288.984V292.715H319.374ZM325.396 292.85C325.009 292.85 324.659 292.778 324.346 292.635C324.033 292.489 323.785 292.278 323.602 292.003C323.422 291.727 323.332 291.389 323.332 290.988C323.332 290.644 323.398 290.36 323.531 290.137C323.663 289.915 323.842 289.738 324.068 289.608C324.293 289.478 324.545 289.38 324.823 289.314C325.102 289.248 325.385 289.197 325.674 289.163C326.04 289.12 326.337 289.086 326.565 289.059C326.793 289.03 326.959 288.984 327.063 288.92C327.166 288.857 327.218 288.753 327.218 288.61V288.582C327.218 288.235 327.12 287.966 326.923 287.775C326.73 287.584 326.441 287.488 326.056 287.488C325.656 287.488 325.34 287.577 325.11 287.755C324.882 287.93 324.724 288.125 324.636 288.34L323.519 288.085C323.651 287.714 323.845 287.414 324.099 287.186C324.357 286.956 324.652 286.788 324.986 286.685C325.32 286.579 325.672 286.526 326.04 286.526C326.284 286.526 326.543 286.555 326.816 286.613C327.092 286.669 327.349 286.773 327.588 286.924C327.829 287.075 328.026 287.291 328.18 287.572C328.334 287.85 328.411 288.212 328.411 288.658V292.715H327.249V291.879H327.202C327.125 292.033 327.009 292.184 326.856 292.333C326.702 292.481 326.504 292.605 326.263 292.703C326.022 292.801 325.733 292.85 325.396 292.85ZM325.655 291.895C325.983 291.895 326.264 291.83 326.498 291.7C326.734 291.57 326.913 291.401 327.035 291.191C327.159 290.979 327.222 290.752 327.222 290.511V289.724C327.179 289.766 327.097 289.806 326.975 289.843C326.856 289.877 326.719 289.908 326.565 289.934C326.412 289.958 326.262 289.981 326.116 290.002C325.97 290.021 325.848 290.037 325.75 290.05C325.519 290.079 325.309 290.128 325.118 290.197C324.929 290.266 324.778 290.365 324.664 290.495C324.553 290.623 324.497 290.792 324.497 291.004C324.497 291.299 324.606 291.521 324.823 291.673C325.041 291.821 325.318 291.895 325.655 291.895ZM331.184 289.087V292.715H329.995V286.606H331.136V287.6H331.212C331.352 287.276 331.572 287.016 331.872 286.82C332.174 286.624 332.555 286.526 333.013 286.526C333.43 286.526 333.794 286.613 334.107 286.788C334.42 286.961 334.663 287.218 334.835 287.56C335.007 287.902 335.094 288.325 335.094 288.829V292.715H333.904V288.972C333.904 288.529 333.789 288.183 333.558 287.934C333.328 287.682 333.011 287.556 332.608 287.556C332.332 287.556 332.087 287.616 331.872 287.735C331.66 287.854 331.492 288.029 331.367 288.26C331.245 288.488 331.184 288.764 331.184 289.087ZM341.266 288.097L340.188 288.288C340.143 288.15 340.072 288.019 339.974 287.894C339.878 287.77 339.748 287.667 339.584 287.588C339.42 287.508 339.214 287.469 338.967 287.469C338.631 287.469 338.35 287.544 338.124 287.695C337.899 287.844 337.786 288.036 337.786 288.272C337.786 288.476 337.862 288.641 338.013 288.765C338.164 288.89 338.408 288.992 338.745 289.071L339.715 289.294C340.277 289.424 340.696 289.624 340.972 289.895C341.248 290.165 341.386 290.516 341.386 290.949C341.386 291.315 341.28 291.641 341.067 291.927C340.858 292.211 340.565 292.434 340.188 292.595C339.815 292.757 339.381 292.838 338.888 292.838C338.204 292.838 337.646 292.692 337.213 292.4C336.781 292.106 336.516 291.688 336.418 291.148L337.567 290.973C337.639 291.272 337.786 291.499 338.009 291.653C338.232 291.804 338.522 291.879 338.88 291.879C339.27 291.879 339.581 291.799 339.815 291.637C340.048 291.472 340.165 291.272 340.165 291.036C340.165 290.845 340.093 290.685 339.95 290.555C339.809 290.425 339.593 290.327 339.302 290.261L338.267 290.034C337.697 289.904 337.276 289.697 337.003 289.413C336.732 289.13 336.597 288.77 336.597 288.336C336.597 287.975 336.698 287.659 336.899 287.389C337.101 287.119 337.379 286.908 337.735 286.757C338.09 286.603 338.497 286.526 338.956 286.526C339.616 286.526 340.135 286.669 340.515 286.956C340.894 287.239 341.144 287.62 341.266 288.097ZM345.601 286.606V287.56H342.148V286.606H345.601ZM343.095 292.715V285.898C343.095 285.516 343.178 285.199 343.345 284.947C343.513 284.692 343.734 284.503 344.01 284.378C344.285 284.251 344.585 284.187 344.909 284.187C345.147 284.187 345.351 284.207 345.521 284.247C345.691 284.284 345.817 284.319 345.899 284.35L345.62 285.313C345.565 285.297 345.493 285.278 345.406 285.257C345.318 285.233 345.212 285.221 345.088 285.221C344.798 285.221 344.592 285.293 344.467 285.436C344.345 285.579 344.284 285.786 344.284 286.057V292.715H343.095ZM349.16 292.838C348.588 292.838 348.088 292.707 347.661 292.444C347.234 292.182 346.902 291.814 346.666 291.342C346.43 290.87 346.313 290.319 346.313 289.688C346.313 289.054 346.43 288.5 346.666 288.025C346.902 287.551 347.234 287.182 347.661 286.92C348.088 286.657 348.588 286.526 349.16 286.526C349.733 286.526 350.233 286.657 350.66 286.92C351.087 287.182 351.418 287.551 351.654 288.025C351.89 288.5 352.008 289.054 352.008 289.688C352.008 290.319 351.89 290.87 351.654 291.342C351.418 291.814 351.087 292.182 350.66 292.444C350.233 292.707 349.733 292.838 349.16 292.838ZM349.164 291.84C349.535 291.84 349.843 291.741 350.087 291.545C350.331 291.349 350.511 291.088 350.628 290.762C350.747 290.436 350.807 290.076 350.807 289.684C350.807 289.294 350.747 288.936 350.628 288.61C350.511 288.281 350.331 288.017 350.087 287.819C349.843 287.62 349.535 287.52 349.164 287.52C348.79 287.52 348.48 287.62 348.234 287.819C347.99 288.017 347.808 288.281 347.689 288.61C347.572 288.936 347.514 289.294 347.514 289.684C347.514 290.076 347.572 290.436 347.689 290.762C347.808 291.088 347.99 291.349 348.234 291.545C348.48 291.741 348.79 291.84 349.164 291.84ZM353.335 292.715V286.606H354.485V287.576H354.548C354.66 287.247 354.856 286.989 355.137 286.8C355.421 286.609 355.742 286.514 356.1 286.514C356.174 286.514 356.261 286.517 356.362 286.522C356.465 286.527 356.546 286.534 356.605 286.542V287.679C356.557 287.666 356.472 287.652 356.35 287.636C356.228 287.617 356.106 287.608 355.984 287.608C355.703 287.608 355.453 287.667 355.233 287.787C355.015 287.903 354.843 288.066 354.715 288.276C354.588 288.483 354.525 288.719 354.525 288.984V292.715H353.335ZM357.634 292.715V286.606H358.775V287.6H358.851C358.978 287.263 359.186 287.001 359.475 286.812C359.764 286.621 360.11 286.526 360.513 286.526C360.922 286.526 361.264 286.621 361.539 286.812C361.818 287.003 362.023 287.266 362.156 287.6H362.22C362.365 287.274 362.597 287.014 362.916 286.82C363.234 286.624 363.613 286.526 364.053 286.526C364.607 286.526 365.059 286.7 365.409 287.047C365.762 287.394 365.938 287.918 365.938 288.618V292.715H364.749V288.729C364.749 288.316 364.636 288.016 364.411 287.831C364.186 287.645 363.917 287.552 363.604 287.552C363.217 287.552 362.916 287.671 362.701 287.91C362.486 288.146 362.379 288.45 362.379 288.821V292.715H361.193V288.654C361.193 288.322 361.09 288.056 360.883 287.854C360.676 287.653 360.407 287.552 360.076 287.552C359.85 287.552 359.642 287.612 359.451 287.731C359.263 287.848 359.111 288.011 358.994 288.22C358.88 288.43 358.823 288.672 358.823 288.948V292.715H357.634ZM369.31 292.85C368.923 292.85 368.573 292.778 368.26 292.635C367.947 292.489 367.699 292.278 367.516 292.003C367.336 291.727 367.246 291.389 367.246 290.988C367.246 290.644 367.312 290.36 367.445 290.137C367.577 289.915 367.756 289.738 367.982 289.608C368.207 289.478 368.459 289.38 368.737 289.314C369.016 289.248 369.299 289.197 369.588 289.163C369.954 289.12 370.251 289.086 370.479 289.059C370.707 289.03 370.873 288.984 370.977 288.92C371.08 288.857 371.132 288.753 371.132 288.61V288.582C371.132 288.235 371.034 287.966 370.837 287.775C370.644 287.584 370.355 287.488 369.97 287.488C369.57 287.488 369.254 287.577 369.024 287.755C368.796 287.93 368.638 288.125 368.55 288.34L367.433 288.085C367.565 287.714 367.759 287.414 368.013 287.186C368.271 286.956 368.566 286.788 368.9 286.685C369.235 286.579 369.586 286.526 369.954 286.526C370.198 286.526 370.457 286.555 370.73 286.613C371.006 286.669 371.263 286.773 371.502 286.924C371.743 287.075 371.94 287.291 372.094 287.572C372.248 287.85 372.325 288.212 372.325 288.658V292.715H371.163V291.879H371.116C371.039 292.033 370.924 292.184 370.77 292.333C370.616 292.481 370.418 292.605 370.177 292.703C369.936 292.801 369.647 292.85 369.31 292.85ZM369.569 291.895C369.897 291.895 370.178 291.83 370.412 291.7C370.648 291.57 370.827 291.401 370.949 291.191C371.073 290.979 371.136 290.752 371.136 290.511V289.724C371.093 289.766 371.011 289.806 370.889 289.843C370.77 289.877 370.633 289.908 370.479 289.934C370.326 289.958 370.176 289.981 370.03 290.002C369.884 290.021 369.762 290.037 369.664 290.05C369.433 290.079 369.223 290.128 369.032 290.197C368.843 290.266 368.692 290.365 368.578 290.495C368.467 290.623 368.411 290.792 368.411 291.004C368.411 291.299 368.52 291.521 368.737 291.673C368.955 291.821 369.232 291.895 369.569 291.895ZM376.761 286.606V287.56H373.424V286.606H376.761ZM374.318 285.142H375.508V290.921C375.508 291.152 375.542 291.325 375.611 291.442C375.68 291.556 375.769 291.634 375.878 291.677C375.989 291.716 376.11 291.736 376.239 291.736C376.335 291.736 376.418 291.73 376.49 291.716C376.562 291.703 376.617 291.692 376.657 291.684L376.872 292.667C376.803 292.693 376.705 292.72 376.578 292.746C376.45 292.776 376.291 292.791 376.1 292.794C375.787 292.799 375.496 292.744 375.225 292.627C374.955 292.51 374.736 292.33 374.569 292.086C374.402 291.842 374.318 291.536 374.318 291.167V285.142ZM378.076 292.715V286.606H379.265V292.715H378.076ZM378.677 285.663C378.47 285.663 378.292 285.594 378.144 285.456C377.998 285.316 377.925 285.149 377.925 284.955C377.925 284.759 377.998 284.592 378.144 284.454C378.292 284.313 378.47 284.243 378.677 284.243C378.883 284.243 379.06 284.313 379.206 284.454C379.354 284.592 379.428 284.759 379.428 284.955C379.428 285.149 379.354 285.316 379.206 285.456C379.06 285.594 378.883 285.663 378.677 285.663ZM386.091 286.606L383.876 292.715H382.603L380.384 286.606H381.661L383.208 291.307H383.271L384.814 286.606H386.091ZM389.634 292.838C389.032 292.838 388.514 292.709 388.079 292.452C387.647 292.192 387.313 291.828 387.077 291.358C386.843 290.886 386.727 290.334 386.727 289.7C386.727 289.074 386.843 288.523 387.077 288.045C387.313 287.568 387.641 287.195 388.063 286.928C388.487 286.66 388.983 286.526 389.55 286.526C389.895 286.526 390.229 286.583 390.553 286.697C390.876 286.811 391.167 286.99 391.424 287.234C391.681 287.478 391.884 287.795 392.032 288.184C392.181 288.572 392.255 289.042 392.255 289.596V290.018H387.399V289.127H391.09C391.09 288.814 391.026 288.537 390.899 288.296C390.771 288.052 390.592 287.86 390.362 287.719C390.134 287.579 389.866 287.508 389.558 287.508C389.224 287.508 388.933 287.591 388.683 287.755C388.437 287.917 388.246 288.129 388.111 288.391C387.978 288.651 387.912 288.934 387.912 289.238V289.934C387.912 290.343 387.983 290.69 388.127 290.977C388.272 291.263 388.475 291.482 388.735 291.633C388.995 291.781 389.299 291.856 389.646 291.856C389.871 291.856 390.077 291.824 390.262 291.76C390.448 291.694 390.608 291.596 390.744 291.466C390.879 291.336 390.982 291.175 391.054 290.984L392.179 291.187C392.089 291.519 391.928 291.809 391.694 292.058C391.464 292.305 391.173 292.497 390.823 292.635C390.476 292.77 390.079 292.838 389.634 292.838Z" fill="white"/>
<path d="M318.24 288.197V287.032H323.728V288.197H321.683V293.715H320.286V288.197H318.24ZM324.086 293.715V288.703H325.433V289.577H325.485C325.577 289.266 325.73 289.031 325.946 288.873C326.161 288.712 326.409 288.631 326.689 288.631C326.759 288.631 326.834 288.635 326.915 288.644C326.995 288.653 327.066 288.665 327.127 288.68V289.913C327.061 289.894 326.971 289.876 326.856 289.861C326.741 289.846 326.635 289.838 326.539 289.838C326.335 289.838 326.152 289.883 325.991 289.972C325.832 290.059 325.706 290.181 325.613 290.338C325.521 290.494 325.476 290.675 325.476 290.879V293.715H324.086ZM329.131 293.809C328.811 293.809 328.526 293.754 328.276 293.643C328.026 293.53 327.828 293.363 327.682 293.144C327.539 292.922 327.467 292.645 327.467 292.315C327.467 292.036 327.518 291.803 327.62 291.613C327.722 291.424 327.862 291.272 328.038 291.157C328.214 291.041 328.414 290.954 328.638 290.896C328.864 290.837 329.101 290.795 329.349 290.772C329.641 290.741 329.876 290.713 330.054 290.687C330.233 290.658 330.362 290.617 330.442 290.563C330.523 290.508 330.563 290.428 330.563 290.321V290.302C330.563 290.095 330.498 289.935 330.367 289.822C330.239 289.709 330.056 289.652 329.819 289.652C329.569 289.652 329.37 289.708 329.222 289.819C329.074 289.928 328.976 290.065 328.929 290.23L327.643 290.125C327.708 289.821 327.837 289.558 328.028 289.336C328.219 289.112 328.466 288.94 328.769 288.82C329.073 288.699 329.426 288.638 329.826 288.638C330.104 288.638 330.371 288.67 330.625 288.736C330.882 288.801 331.109 288.902 331.307 289.039C331.507 289.176 331.665 289.352 331.78 289.568C331.896 289.781 331.953 290.036 331.953 290.334V293.715H330.635V293.02H330.596C330.515 293.176 330.408 293.314 330.273 293.434C330.138 293.551 329.976 293.644 329.787 293.711C329.597 293.777 329.379 293.809 329.131 293.809ZM329.529 292.85C329.733 292.85 329.914 292.81 330.071 292.729C330.227 292.647 330.35 292.536 330.439 292.396C330.528 292.257 330.573 292.1 330.573 291.923V291.391C330.53 291.42 330.47 291.446 330.394 291.47C330.32 291.492 330.236 291.512 330.142 291.532C330.049 291.549 329.955 291.565 329.862 291.581C329.768 291.594 329.683 291.606 329.607 291.617C329.444 291.641 329.302 291.679 329.18 291.731C329.058 291.783 328.963 291.854 328.896 291.943C328.828 292.03 328.795 292.139 328.795 292.269C328.795 292.458 328.863 292.603 329 292.703C329.14 292.801 329.316 292.85 329.529 292.85ZM334.422 290.817V293.715H333.032V288.703H334.356V289.587H334.415C334.526 289.296 334.712 289.065 334.973 288.895C335.234 288.724 335.55 288.638 335.922 288.638C336.27 288.638 336.574 288.714 336.833 288.866C337.092 289.018 337.293 289.236 337.436 289.519C337.58 289.799 337.652 290.134 337.652 290.524V293.715H336.262V290.772C336.264 290.465 336.186 290.226 336.027 290.054C335.868 289.88 335.649 289.793 335.371 289.793C335.184 289.793 335.019 289.833 334.875 289.913C334.734 289.994 334.623 290.111 334.542 290.266C334.464 290.418 334.424 290.602 334.422 290.817ZM342.917 290.132L341.645 290.21C341.623 290.102 341.576 290.004 341.504 289.917C341.433 289.827 341.338 289.757 341.22 289.705C341.105 289.65 340.967 289.623 340.806 289.623C340.591 289.623 340.409 289.669 340.261 289.76C340.113 289.849 340.039 289.969 340.039 290.119C340.039 290.239 340.087 290.34 340.183 290.422C340.279 290.505 340.443 290.571 340.676 290.621L341.583 290.804C342.07 290.904 342.433 291.065 342.672 291.287C342.912 291.509 343.031 291.8 343.031 292.161C343.031 292.49 342.935 292.778 342.741 293.026C342.549 293.274 342.286 293.468 341.951 293.607C341.618 293.744 341.235 293.812 340.8 293.812C340.136 293.812 339.608 293.674 339.214 293.398C338.822 293.12 338.593 292.741 338.525 292.263L339.892 292.191C339.934 292.393 340.034 292.548 340.193 292.654C340.351 292.759 340.555 292.811 340.803 292.811C341.046 292.811 341.242 292.764 341.39 292.67C341.54 292.575 341.616 292.452 341.618 292.302C341.616 292.176 341.563 292.072 341.459 291.992C341.354 291.909 341.193 291.846 340.976 291.803L340.108 291.63C339.618 291.532 339.254 291.362 339.015 291.121C338.778 290.879 338.659 290.571 338.659 290.197C338.659 289.875 338.746 289.598 338.92 289.365C339.096 289.133 339.343 288.953 339.661 288.827C339.981 288.701 340.355 288.638 340.783 288.638C341.416 288.638 341.914 288.771 342.278 289.039C342.643 289.307 342.856 289.671 342.917 290.132ZM346.602 288.703V289.747H343.508V288.703H346.602ZM344.217 293.715V288.341C344.217 287.977 344.287 287.676 344.429 287.437C344.572 287.198 344.768 287.018 345.016 286.899C345.264 286.779 345.546 286.719 345.861 286.719C346.074 286.719 346.269 286.735 346.445 286.768C346.623 286.801 346.756 286.83 346.843 286.856L346.595 287.9C346.541 287.883 346.473 287.867 346.393 287.851C346.315 287.836 346.234 287.828 346.151 287.828C345.947 287.828 345.804 287.876 345.724 287.972C345.643 288.066 345.603 288.197 345.603 288.367V293.715H344.217ZM349.536 293.812C349.029 293.812 348.591 293.705 348.221 293.489C347.853 293.272 347.569 292.97 347.369 292.582C347.169 292.193 347.069 291.742 347.069 291.228C347.069 290.711 347.169 290.258 347.369 289.871C347.569 289.482 347.853 289.179 348.221 288.964C348.591 288.746 349.029 288.638 349.536 288.638C350.043 288.638 350.48 288.746 350.847 288.964C351.217 289.179 351.502 289.482 351.702 289.871C351.902 290.258 352.002 290.711 352.002 291.228C352.002 291.742 351.902 292.193 351.702 292.582C351.502 292.97 351.217 293.272 350.847 293.489C350.48 293.705 350.043 293.812 349.536 293.812ZM349.542 292.736C349.773 292.736 349.965 292.67 350.12 292.54C350.274 292.407 350.391 292.227 350.469 291.998C350.549 291.77 350.59 291.51 350.59 291.219C350.59 290.927 350.549 290.667 350.469 290.439C350.391 290.21 350.274 290.03 350.12 289.897C349.965 289.764 349.773 289.698 349.542 289.698C349.31 289.698 349.114 289.764 348.955 289.897C348.798 290.03 348.68 290.21 348.599 290.439C348.521 290.667 348.482 290.927 348.482 291.219C348.482 291.51 348.521 291.77 348.599 291.998C348.68 292.227 348.798 292.407 348.955 292.54C349.114 292.67 349.31 292.736 349.542 292.736ZM352.906 293.715V288.703H354.254V289.577H354.306C354.397 289.266 354.551 289.031 354.766 288.873C354.981 288.712 355.229 288.631 355.51 288.631C355.58 288.631 355.655 288.635 355.735 288.644C355.816 288.653 355.886 288.665 355.947 288.68V289.913C355.882 289.894 355.792 289.876 355.676 289.861C355.561 289.846 355.456 289.838 355.36 289.838C355.155 289.838 354.973 289.883 354.812 289.972C354.653 290.059 354.527 290.181 354.433 290.338C354.342 290.494 354.296 290.675 354.296 290.879V293.715H352.906ZM356.666 293.715V288.703H357.991V289.587H358.049C358.154 289.293 358.328 289.062 358.571 288.892C358.815 288.722 359.106 288.638 359.446 288.638C359.789 288.638 360.082 288.724 360.323 288.895C360.565 289.065 360.726 289.296 360.806 289.587H360.859C360.961 289.3 361.146 289.071 361.413 288.899C361.683 288.725 362.002 288.638 362.369 288.638C362.837 288.638 363.217 288.787 363.508 289.085C363.802 289.38 363.948 289.8 363.948 290.344V293.715H362.562V290.618C362.562 290.34 362.488 290.131 362.34 289.992C362.192 289.853 362.007 289.783 361.785 289.783C361.533 289.783 361.336 289.863 361.195 290.024C361.053 290.183 360.983 290.393 360.983 290.654V293.715H359.635V290.589C359.635 290.343 359.564 290.147 359.423 290.002C359.284 289.856 359.1 289.783 358.872 289.783C358.717 289.783 358.578 289.822 358.454 289.9C358.332 289.976 358.235 290.084 358.163 290.223C358.092 290.36 358.056 290.521 358.056 290.706V293.715H356.666ZM366.476 293.809C366.156 293.809 365.871 293.754 365.621 293.643C365.371 293.53 365.173 293.363 365.027 293.144C364.883 292.922 364.811 292.645 364.811 292.315C364.811 292.036 364.863 291.803 364.965 291.613C365.067 291.424 365.206 291.272 365.382 291.157C365.559 291.041 365.759 290.954 365.983 290.896C366.209 290.837 366.446 290.795 366.694 290.772C366.986 290.741 367.221 290.713 367.399 290.687C367.577 290.658 367.707 290.617 367.787 290.563C367.868 290.508 367.908 290.428 367.908 290.321V290.302C367.908 290.095 367.843 289.935 367.712 289.822C367.584 289.709 367.401 289.652 367.164 289.652C366.914 289.652 366.715 289.708 366.567 289.819C366.419 289.928 366.321 290.065 366.273 290.23L364.988 290.125C365.053 289.821 365.181 289.558 365.373 289.336C365.564 289.112 365.811 288.94 366.113 288.82C366.418 288.699 366.77 288.638 367.171 288.638C367.449 288.638 367.715 288.67 367.97 288.736C368.227 288.801 368.454 288.902 368.652 289.039C368.852 289.176 369.01 289.352 369.125 289.568C369.24 289.781 369.298 290.036 369.298 290.334V293.715H367.98V293.02H367.941C367.86 293.176 367.752 293.314 367.618 293.434C367.483 293.551 367.321 293.644 367.131 293.711C366.942 293.777 366.723 293.809 366.476 293.809ZM366.874 292.85C367.078 292.85 367.259 292.81 367.415 292.729C367.572 292.647 367.695 292.536 367.784 292.396C367.873 292.257 367.918 292.1 367.918 291.923V291.391C367.874 291.42 367.814 291.446 367.738 291.47C367.664 291.492 367.581 291.512 367.487 291.532C367.393 291.549 367.3 291.565 367.206 291.581C367.113 291.594 367.028 291.606 366.952 291.617C366.789 291.641 366.646 291.679 366.524 291.731C366.403 291.783 366.308 291.854 366.241 291.943C366.173 292.03 366.139 292.139 366.139 292.269C366.139 292.458 366.208 292.603 366.345 292.703C366.484 292.801 366.66 292.85 366.874 292.85ZM373.042 288.703V289.747H370.024V288.703H373.042ZM370.709 287.502H372.099V292.175C372.099 292.303 372.119 292.403 372.158 292.475C372.197 292.544 372.251 292.593 372.321 292.622C372.393 292.65 372.475 292.664 372.569 292.664C372.634 292.664 372.699 292.659 372.765 292.648C372.83 292.635 372.88 292.625 372.915 292.618L373.133 293.653C373.064 293.674 372.966 293.699 372.84 293.728C372.714 293.758 372.56 293.777 372.38 293.783C372.045 293.796 371.751 293.752 371.499 293.649C371.248 293.547 371.054 293.388 370.915 293.173C370.775 292.958 370.707 292.686 370.709 292.357V287.502ZM373.947 293.715V288.703H375.337V293.715H373.947ZM374.646 288.057C374.439 288.057 374.262 287.988 374.114 287.851C373.968 287.712 373.895 287.546 373.895 287.352C373.895 287.161 373.968 286.996 374.114 286.859C374.262 286.72 374.439 286.651 374.646 286.651C374.852 286.651 375.028 286.72 375.174 286.859C375.322 286.996 375.396 287.161 375.396 287.352C375.396 287.546 375.322 287.712 375.174 287.851C375.028 287.988 374.852 288.057 374.646 288.057ZM381.123 288.703L379.371 293.715H377.805L376.053 288.703H377.521L378.562 292.289H378.614L379.652 288.703H381.123ZM383.957 293.812C383.441 293.812 382.998 293.708 382.626 293.499C382.256 293.288 381.971 292.99 381.771 292.605C381.571 292.218 381.471 291.76 381.471 291.232C381.471 290.716 381.571 290.264 381.771 289.874C381.971 289.485 382.253 289.181 382.616 288.964C382.981 288.746 383.41 288.638 383.901 288.638C384.232 288.638 384.54 288.691 384.825 288.798C385.112 288.902 385.362 289.06 385.575 289.271C385.791 289.482 385.958 289.747 386.078 290.067C386.197 290.384 386.257 290.756 386.257 291.183V291.564H382.025V290.703H384.949C384.949 290.503 384.905 290.326 384.818 290.171C384.731 290.017 384.611 289.896 384.456 289.809C384.304 289.72 384.127 289.675 383.924 289.675C383.713 289.675 383.526 289.724 383.363 289.822C383.202 289.918 383.076 290.047 382.985 290.21C382.893 290.371 382.846 290.551 382.844 290.749V291.568C382.844 291.816 382.89 292.03 382.981 292.21C383.075 292.391 383.206 292.53 383.376 292.628C383.546 292.726 383.747 292.775 383.98 292.775C384.134 292.775 384.276 292.753 384.404 292.71C384.532 292.666 384.642 292.601 384.733 292.514C384.825 292.427 384.894 292.32 384.942 292.194L386.228 292.279C386.163 292.588 386.029 292.858 385.827 293.088C385.626 293.317 385.368 293.495 385.05 293.623C384.735 293.749 384.37 293.812 383.957 293.812Z" fill="black" fill-opacity="0.73"/>
<path d="M210.188 187.234V175.672H204.438V187.234H198.688L207.312 195.906L215.938 187.234H210.188ZM190.35 187.234H187.188V193.016H181.438V187.234H175.688C172.525 187.234 169.938 184.633 169.938 181.453V175.672H164.188V169.891H169.938V164.109H164.188V158.328H169.938V152.547C169.938 149.367 172.525 146.766 175.688 146.766H181.438V140.984H187.188V146.766H192.938V140.984H198.688V146.766H204.438C207.6 146.766 210.188 149.367 210.188 152.547V158.328H215.938V164.109H210.188V167.289C209.325 167 208.175 167 207.312 167C206.45 167 205.3 167 204.438 167.289V152.547H175.688V181.453H190.35C190.063 182.32 190.062 183.477 190.062 184.344C190.062 185.211 190.063 186.367 190.35 187.234ZM181.438 175.672H192.363C193.8 173.07 196.1 170.758 198.688 169.312V158.328H181.438V175.672ZM187.188 164.109H192.938V169.891H187.188V164.109Z" fill="#FF7F50"/>
<defs>
<filter id="filter0_dii_1216_715" x="97.4609" y="92" width="185.203" height="193" filterUnits="userSpaceOnUse" color-interpolation-filters="sRGB">
<feFlood flood-opacity="0" result="BackgroundImageFix"/>
<feColorMatrix in="SourceAlpha" type="matrix" values="0 0 0 0 0 0 0 0 0 0 0 0 0 0 0 0 0 0 127 0" result="hardAlpha"/>
<feMorphology radius="1" operator="erode" in="SourceAlpha" result="effect1_dropShadow_1216_715"/>
<feOffset dy="25"/>
<feGaussianBlur stdDeviation="10"/>
<feComposite in2="hardAlpha" operator="out"/>
<feColorMatrix type="matrix" values="0 0 0 0 0 0 0 0 0 0 0 0 0 0 0 0 0 0 0.2 0"/>
<feBlend mode="normal" in2="BackgroundImageFix" result="effect1_dropShadow_1216_715"/>
<feBlend mode="normal" in="SourceGraphic" in2="effect1_dropShadow_1216_715" result="shape"/>
<feColorMatrix in="SourceAlpha" type="matrix" values="0 0 0 0 0 0 0 0 0 0 0 0 0 0 0 0 0 0 127 0" result="hardAlpha"/>
<feMorphology radius="1" operator="erode" in="SourceAlpha" result="effect2_innerShadow_1216_715"/>
<feOffset dy="1"/>
<feGaussianBlur stdDeviation="0.5"/>
<feComposite in2="hardAlpha" operator="arithmetic" k2="-1" k3="1"/>
<feColorMatrix type="matrix" values="0 0 0 0 0.8 0 0 0 0 0.780392 0 0 0 0 0.780392 0 0 0 0.2 0"/>
<feBlend mode="normal" in2="shape" result="effect2_innerShadow_1216_715"/>
<feColorMatrix in="SourceAlpha" type="matrix" values="0 0 0 0 0 0 0 0 0 0 0 0 0 0 0 0 0 0 127 0" result="hardAlpha"/>
<feMorphology radius="1" operator="erode" in="SourceAlpha" result="effect3_innerShadow_1216_715"/>
<feOffset dy="-1"/>
<feGaussianBlur stdDeviation="0.5"/>
<feComposite in2="hardAlpha" operator="arithmetic" k2="-1" k3="1"/>
<feColorMatrix type="matrix" values="0 0 0 0 0.8 0 0 0 0 0.780392 0 0 0 0 0.780392 0 0 0 0.2 0"/>
<feBlend mode="normal" in2="effect2_innerShadow_1216_715" result="effect3_innerShadow_1216_715"/>
</filter>
<filter id="filter1_d_1216_715" x="0.714062" y="293.763" width="84.1484" height="48.6091" filterUnits="userSpaceOnUse" color-interpolation-filters="sRGB">
<feFlood flood-opacity="0" result="BackgroundImageFix"/>
<feColorMatrix in="SourceAlpha" type="matrix" values="0 0 0 0 0 0 0 0 0 0 0 0 0 0 0 0 0 0 127 0" result="hardAlpha"/>
<feOffset dx="2.8" dy="2.8"/>
<feGaussianBlur stdDeviation="3.5"/>
<feComposite in2="hardAlpha" operator="out"/>
<feColorMatrix type="matrix" values="0 0 0 0 0.180392 0 0 0 0 0.564706 0 0 0 0 0.980392 0 0 0 0.16 0"/>
<feBlend mode="normal" in2="BackgroundImageFix" result="effect1_dropShadow_1216_715"/>
<feBlend mode="normal" in="SourceGraphic" in2="effect1_dropShadow_1216_715" result="shape"/>
</filter>
</defs>
</svg>
