<svg width="660" height="141" viewBox="0 0 660 141" fill="none" xmlns="http://www.w3.org/2000/svg">
<g clip-path="url(#clip0_3008_2128)">
<path d="M29.1644 46H0V137.66H29.1644V46Z" fill="white"/>
<path d="M29.1644 0H0L29.1644 29.1644V0Z" fill="#EE4B2B"/>
<path d="M514.164 46H485V137.66H514.164V46Z" fill="white"/>
<path d="M513.7 0H484.535L513.7 29.1644V0Z" fill="#EE4B2B"/>
<path fill-rule="evenodd" clip-rule="evenodd" d="M256.119 0.00195312C222.281 4.44808 196.16 33.3987 196.16 68.4503C196.16 106.58 227.071 137.49 265.2 137.49C288.931 137.49 309.865 125.518 322.292 107.283L301.566 95.3174C293.33 106.446 280.107 113.661 265.2 113.661C240.229 113.661 219.987 93.4188 219.987 68.4482C219.987 46.5882 235.5 28.3514 256.119 24.1475V0.00195312ZM325.399 34.6225C315.066 16.2737 296.587 3.12471 274.867 0.0814512V24.2713C287.731 27.0733 298.549 35.3506 304.759 46.5391L325.399 34.6225Z" fill="white"/>
<path fill-rule="evenodd" clip-rule="evenodd" d="M50.1641 137.49H79.3285L79.3335 57.4583L127.213 97.0765V64.1257L52.2522 0L50.1641 137.49ZM145.995 116.969L166.827 137.49H175.159V0H145.995V116.969Z" fill="white"/>
<path fill-rule="evenodd" clip-rule="evenodd" d="M346.399 23.332L346.399 0H420.573C442.054 0.113037 459.445 17.5193 459.528 39.0062V47.4982C459.449 68.0816 444.058 85.0545 424.156 87.6235L424.772 88.4034H424.793L459.528 137.49H425.96L378.48 71.7601H373.714V137.49H346.399C346.398 136.99 346.398 101.105 346.399 63.1658H416.802C427.805 63.1658 436.721 54.249 436.721 43.249C436.721 32.2491 427.805 23.332 416.802 23.332H346.399Z" fill="white"/>
<path fill-rule="evenodd" clip-rule="evenodd" d="M534.699 0H564.83L612.239 68.8266L565.001 137.49H534.699L577.963 68.8266L534.699 0ZM629.484 0H659.344L625.021 51.4854H621.326L606.177 29.5265L629.484 0ZM629.484 137.49H659.344L625.021 86.004H621.326L606.177 107.963L629.484 137.49Z" fill="white"/>
</g>
<defs>
<clipPath id="clip0_3008_2128">
<rect width="659.344" height="140.826" fill="white"/>
</clipPath>
</defs>
</svg>
