<svg width="880" height="188" viewBox="0 0 880 188" fill="none" xmlns="http://www.w3.org/2000/svg">
<g clip-path="url(#clip0_1920_2)">
<path d="M38.9246 61.4092H0V183.773H38.9246V61.4092Z" fill="black"/>
<path d="M38.9246 0H0L38.9246 38.934V0Z" fill="#EE4B2B"/>
<path d="M686.235 61.4092H647.31V183.773H686.235V61.4092Z" fill="black"/>
<path d="M685.615 0.000976562H646.69L685.615 38.935V0.000976562Z" fill="#EE4B2B"/>
<path fill-rule="evenodd" clip-rule="evenodd" d="M341.832 0.00292969C296.67 5.93844 261.807 44.587 261.807 91.3804C261.807 142.283 303.062 183.548 353.952 183.548C385.625 183.548 413.565 167.564 430.15 143.222L402.488 127.248C391.496 142.104 373.848 151.736 353.952 151.736C320.624 151.736 293.607 124.713 293.607 91.3776C293.607 62.1949 314.313 37.849 341.832 32.2368V0.00292969ZM434.298 46.2208C420.507 21.7255 395.843 4.17176 366.855 0.109058V32.4021C384.023 36.1427 398.462 47.1928 406.75 62.1292L434.298 46.2208Z" fill="black"/>
<path fill-rule="evenodd" clip-rule="evenodd" d="M66.9521 183.546H105.877L105.883 76.7059L169.786 129.596V85.6068L69.7392 0L66.9521 183.546ZM194.854 156.151L222.657 183.546H233.779V0H194.854V156.151Z" fill="black"/>
<path fill-rule="evenodd" clip-rule="evenodd" d="M462.325 31.1488L462.325 0.000976562H561.322C589.992 0.151879 613.202 23.3889 613.314 52.0736V63.4104C613.208 90.8889 592.667 113.547 566.104 116.977L566.927 118.018H566.954L618.663 183.547H573.861L505.143 95.7996H498.781V183.547H462.325C462.324 182.881 462.324 134.975 462.325 84.3263H556.289C570.975 84.3263 582.875 72.4225 582.875 57.7377C582.875 43.053 570.975 31.1488 556.289 31.1488H462.325Z" fill="black"/>
<path fill-rule="evenodd" clip-rule="evenodd" d="M713.642 0.000976562H753.856L817.131 91.8834L754.084 183.547H713.642L771.383 91.8834L713.642 0.000976562ZM840.147 0.000976562H880L834.191 68.7332H829.259L809.04 39.4184L840.147 0.000976562ZM840.147 183.547H880L834.191 114.815H829.259L809.04 144.13L840.147 183.547Z" fill="black"/>
</g>
<defs>
<clipPath id="clip0_1920_2">
<rect width="880" height="188" fill="white"/>
</clipPath>
</defs>
</svg>
