<svg width="463" height="280" viewBox="0 0 463 280" fill="none" xmlns="http://www.w3.org/2000/svg">
<g clip-path="url(#clip0_2996_1786)">
<path d="M320.82 30.9805V168.105C320.82 175.837 314.552 182.105 306.82 182.105H198.188" stroke="url(#paint0_linear_2996_1786)"/>
<path d="M260.531 51.5098C261.891 54.2511 261.252 166.717 260.665 231.829C260.595 239.615 266.885 245.937 274.671 245.937H298.067" stroke="url(#paint1_linear_2996_1786)"/>
<path d="M280.729 68.7539V192.15C280.729 199.882 286.997 206.15 294.729 206.15H324.361C332.093 206.15 338.361 212.418 338.361 220.15V247.813" stroke="url(#paint2_linear_2996_1786)"/>
<path d="M407.847 90.4531V115.064C407.847 122.796 401.579 129.064 393.847 129.064H306.009C303.782 129.064 301.977 130.87 301.977 133.097V164.487" stroke="url(#paint3_linear_2996_1786)"/>
<path d="M123.789 63.1191V197.705" stroke="url(#paint4_linear_2996_1786)"/>
<path d="M241.685 54.2402L160.648 54.2404C152.916 54.2404 146.648 60.5084 146.648 68.2404V279.911" stroke="url(#paint5_radial_2996_1786)"/>
<path d="M164.383 236.949H228.887C236.619 236.949 242.887 230.681 242.887 222.949V68.7617" stroke="url(#paint6_linear_2996_1786)"/>
<path d="M73.2656 73.0977H200.466C208.198 73.0977 214.466 79.3657 214.466 87.0977V136.636V200.175" stroke="url(#paint7_linear_2996_1786)"/>
<path d="M376.539 25.2598V163.766C376.539 171.498 370.271 177.766 362.539 177.766H339.271H302.002" stroke="url(#paint8_linear_2996_1786)"/>
<path d="M242.98 185.052H184.076C176.344 185.052 170.076 178.784 170.076 171.052V148.332V111.613" stroke="url(#paint9_linear_2996_1786)"/>
<path d="M189.984 39.6738V88.2586C189.984 95.9906 196.252 102.259 203.984 102.259H231.356" stroke="url(#paint10_linear_2996_1786)"/>
<path d="M49.3223 115.363V132.38C49.3223 140.112 55.5903 146.38 63.3223 146.38H177.019C184.751 146.38 191.019 152.648 191.019 160.38V274.284" stroke="url(#paint11_linear_2996_1786)"/>
<g filter="url(#filter0_di_2996_1786)">
<path d="M239.729 6H142C138.686 6 136 8.68629 136 12V36.4648C136 39.7785 138.686 42.4648 142 42.4648H239.729C243.043 42.4648 245.729 39.7785 245.729 36.4648V12C245.729 8.68629 243.043 6 239.729 6Z" fill="#121520"/>
<path d="M239.729 6.40039H142C138.908 6.40039 136.4 8.9076 136.4 12.0004V36.4652C136.4 39.558 138.908 42.0652 142 42.0652H239.729C242.822 42.0652 245.329 39.558 245.329 36.4652V12.0004C245.329 8.9076 242.822 6.40039 239.729 6.40039Z" stroke="url(#paint12_linear_2996_1786)" stroke-width="0.8"/>
<path d="M167.371 30V19.696H171.547C173.073 19.696 174.203 20.1013 174.939 20.912C175.675 21.712 176.043 23.0453 176.043 24.912C176.043 26.672 175.681 27.9627 174.955 28.784C174.23 29.5947 173.094 30 171.547 30H167.371ZM169.115 28.656H171.275C171.947 28.656 172.507 28.56 172.955 28.368C173.403 28.1653 173.739 27.792 173.963 27.248C174.187 26.704 174.299 25.9253 174.299 24.912C174.299 23.8987 174.198 23.1147 173.995 22.56C173.793 22.0053 173.467 21.616 173.019 21.392C172.582 21.168 172.001 21.056 171.275 21.056H169.115V28.656ZM181.602 30.16C180.279 30.16 179.255 29.8347 178.53 29.184C177.805 28.5333 177.442 27.536 177.442 26.192C177.442 24.976 177.751 24.016 178.37 23.312C178.989 22.608 179.927 22.256 181.186 22.256C182.338 22.256 183.202 22.56 183.778 23.168C184.365 23.7653 184.658 24.5387 184.658 25.488V26.896H179.106C179.191 27.632 179.458 28.1387 179.906 28.416C180.354 28.6933 181.037 28.832 181.954 28.832C182.338 28.832 182.733 28.7947 183.138 28.72C183.543 28.6453 183.895 28.5493 184.194 28.432V29.712C183.853 29.8613 183.458 29.9733 183.01 30.048C182.573 30.1227 182.103 30.16 181.602 30.16ZM179.106 25.76H183.122V25.232C183.122 24.7093 182.978 24.304 182.69 24.016C182.402 23.7173 181.917 23.568 181.234 23.568C180.423 23.568 179.863 23.744 179.554 24.096C179.255 24.448 179.106 25.0027 179.106 25.76ZM188.806 30.16C188.283 30.16 187.782 30.1227 187.302 30.048C186.832 29.9733 186.443 29.8827 186.134 29.776V28.304C186.496 28.4427 186.896 28.5493 187.334 28.624C187.771 28.6987 188.187 28.736 188.582 28.736C189.179 28.736 189.606 28.6827 189.862 28.576C190.118 28.4693 190.246 28.2613 190.246 27.952C190.246 27.728 190.166 27.552 190.006 27.424C189.856 27.296 189.627 27.1787 189.318 27.072C189.019 26.9653 188.635 26.8373 188.166 26.688C187.718 26.5387 187.328 26.3787 186.998 26.208C186.667 26.0267 186.411 25.7973 186.23 25.52C186.048 25.2427 185.958 24.88 185.958 24.432C185.958 23.7387 186.208 23.2053 186.71 22.832C187.211 22.448 188.016 22.256 189.126 22.256C189.563 22.256 189.979 22.288 190.374 22.352C190.768 22.416 191.104 22.496 191.382 22.592V24.048C191.083 23.9307 190.752 23.84 190.39 23.776C190.038 23.712 189.707 23.68 189.398 23.68C188.843 23.68 188.422 23.728 188.134 23.824C187.856 23.92 187.718 24.112 187.718 24.4C187.718 24.6987 187.862 24.912 188.15 25.04C188.448 25.1573 188.923 25.3227 189.574 25.536C190.171 25.7173 190.646 25.9093 190.998 26.112C191.35 26.3147 191.6 26.56 191.75 26.848C191.91 27.1253 191.99 27.488 191.99 27.936C191.99 28.6827 191.718 29.2427 191.174 29.616C190.63 29.9787 189.84 30.16 188.806 30.16ZM194.339 20.832V19.392H196.243V20.832H194.339ZM194.483 30V23.744H193.331L193.491 22.416H196.227V30H194.483ZM201.334 32.816C200.769 32.816 200.203 32.7787 199.638 32.704C199.073 32.64 198.593 32.5387 198.198 32.4V31.056C198.625 31.1947 199.115 31.3013 199.67 31.376C200.225 31.4507 200.753 31.488 201.254 31.488C202.022 31.488 202.582 31.4453 202.934 31.36C203.286 31.2747 203.462 31.0827 203.462 30.784C203.462 30.56 203.377 30.4 203.206 30.304C203.035 30.2187 202.71 30.176 202.23 30.176H200.182C198.806 30.176 198.118 29.6907 198.118 28.72C198.118 28.4107 198.209 28.1227 198.39 27.856C198.571 27.5893 198.859 27.3867 199.254 27.248C198.817 27.0347 198.491 26.7413 198.278 26.368C198.075 25.9947 197.974 25.5467 197.974 25.024C197.974 24.0533 198.262 23.3493 198.838 22.912C199.425 22.4747 200.299 22.256 201.462 22.256C201.707 22.256 201.963 22.2773 202.23 22.32C202.497 22.352 202.705 22.384 202.854 22.416H205.638L205.59 23.552H204.31C204.513 23.7227 204.662 23.936 204.758 24.192C204.854 24.448 204.902 24.7253 204.902 25.024C204.902 25.8347 204.657 26.4747 204.166 26.944C203.675 27.4027 202.934 27.632 201.942 27.632C201.771 27.632 201.611 27.6267 201.462 27.616C201.323 27.5947 201.169 27.5733 200.998 27.552C200.678 27.584 200.39 27.6693 200.134 27.808C199.878 27.9467 199.75 28.1333 199.75 28.368C199.75 28.528 199.814 28.6453 199.942 28.72C200.07 28.784 200.283 28.816 200.582 28.816H202.71C203.467 28.816 204.049 28.9813 204.454 29.312C204.87 29.632 205.078 30.1013 205.078 30.72C205.078 31.4667 204.753 32 204.102 32.32C203.462 32.6507 202.539 32.816 201.334 32.816ZM201.462 26.528C202.155 26.528 202.635 26.4107 202.902 26.176C203.179 25.9413 203.318 25.5413 203.318 24.976C203.318 24.4107 203.179 24 202.902 23.744C202.635 23.488 202.155 23.36 201.462 23.36C200.811 23.36 200.337 23.4827 200.038 23.728C199.739 23.9733 199.59 24.3893 199.59 24.976C199.59 25.52 199.729 25.9147 200.006 26.16C200.294 26.4053 200.779 26.528 201.462 26.528ZM206.715 30V22.416H208.315L208.395 23.216C208.736 22.9493 209.142 22.7253 209.611 22.544C210.091 22.352 210.619 22.256 211.195 22.256C212.176 22.256 212.891 22.4853 213.339 22.944C213.787 23.4027 214.011 24.1173 214.011 25.088V30H212.283V25.168C212.283 24.5813 212.16 24.1707 211.915 23.936C211.68 23.7013 211.232 23.584 210.571 23.584C210.176 23.584 209.787 23.664 209.403 23.824C209.03 23.984 208.715 24.192 208.459 24.448V30H206.715Z" fill="white"/>
</g>
<g filter="url(#filter1_di_2996_1786)">
<path d="M448.934 56H364C360.686 56 358 58.6863 358 62V86.4648C358 89.7785 360.686 92.4648 364 92.4648H448.934C452.247 92.4648 454.934 89.7785 454.934 86.4648V62C454.934 58.6863 452.247 56 448.934 56Z" fill="#121520"/>
<path d="M448.934 56.4004H364C360.908 56.4004 358.4 58.9076 358.4 62.0004V86.4652C358.4 89.558 360.908 92.0652 364 92.0652H448.934C452.027 92.0652 454.534 89.558 454.534 86.4652V62.0004C454.534 58.9076 452.027 56.4004 448.934 56.4004Z" stroke="url(#paint13_linear_2996_1786)" stroke-width="0.8"/>
</g>
<g filter="url(#filter2_di_2996_1786)">
<path d="M84.1924 89H14C10.6863 89 8 91.6863 8 95V119.465C8 122.779 10.6863 125.465 14 125.465H84.1924C87.5061 125.465 90.1924 122.779 90.1924 119.465V95C90.1924 91.6863 87.5061 89 84.1924 89Z" fill="#121520"/>
<path d="M84.1928 89.4004H14.0004C10.9076 89.4004 8.40039 91.9076 8.40039 95.0004V119.465C8.40039 122.558 10.9076 125.065 14.0004 125.065H84.1928C87.2856 125.065 89.7928 122.558 89.7928 119.465V95.0004C89.7928 91.9076 87.2856 89.4004 84.1928 89.4004Z" stroke="url(#paint14_linear_2996_1786)" stroke-width="0.8"/>
</g>
<g filter="url(#filter3_di_2996_1786)">
<path d="M392.911 225H303.089C299.174 225 296 227.652 296 230.924V255.076C296 258.348 299.174 261 303.089 261H392.911C396.826 261 400 258.348 400 255.076V230.924C400 227.652 396.826 225 392.911 225Z" fill="#121520"/>
<path d="M393.323 225H302.677C298.99 225 296 227.531 296 230.653V255.347C296 258.469 298.99 261 302.677 261H393.323C397.011 261 400 258.469 400 255.347V230.653C400 227.531 397.011 225 393.323 225Z" stroke="url(#paint15_linear_2996_1786)" stroke-width="0.8"/>
</g>
<path d="M324.941 100.256H134.707C131.117 100.256 128.207 103.166 128.207 106.756V148.262C128.207 151.852 131.117 154.762 134.707 154.762H324.941C328.531 154.762 331.441 151.852 331.441 148.262V106.756C331.441 103.166 328.531 100.256 324.941 100.256Z" fill="url(#paint16_linear_2996_1786)" stroke="url(#paint17_linear_2996_1786)"/>
<path d="M185.032 127.336V125.944H187.744C188.272 125.944 188.736 125.856 189.136 125.68C189.536 125.504 189.848 125.256 190.072 124.936C190.296 124.6 190.408 124.2 190.408 123.736C190.408 123.032 190.16 122.488 189.664 122.104C189.168 121.72 188.528 121.528 187.744 121.528H185.704V133.672H188.056C188.696 133.672 189.264 133.568 189.76 133.36C190.256 133.152 190.648 132.84 190.936 132.424C191.224 132.008 191.368 131.488 191.368 130.864C191.368 130.416 191.28 130.024 191.104 129.688C190.944 129.336 190.712 129.048 190.408 128.824C190.12 128.584 189.776 128.416 189.376 128.32C188.976 128.208 188.536 128.152 188.056 128.152H185.032V126.592H188.224C189.04 126.592 189.808 126.68 190.528 126.856C191.248 127.032 191.888 127.304 192.448 127.672C193.024 128.04 193.472 128.512 193.792 129.088C194.112 129.664 194.272 130.352 194.272 131.152C194.272 132.256 194.008 133.168 193.48 133.888C192.968 134.608 192.256 135.144 191.344 135.496C190.448 135.832 189.408 136 188.224 136H182.872V119.2H187.936C188.992 119.2 189.92 119.352 190.72 119.656C191.536 119.96 192.168 120.424 192.616 121.048C193.08 121.672 193.312 122.464 193.312 123.424C193.312 124.256 193.08 124.968 192.616 125.56C192.168 126.136 191.536 126.576 190.72 126.88C189.92 127.184 188.992 127.336 187.936 127.336H185.032ZM199.615 124.96V136H197.047V124.96H199.615ZM202.903 127.72C202.663 127.528 202.439 127.384 202.231 127.288C202.023 127.192 201.759 127.144 201.439 127.144C201.007 127.144 200.655 127.256 200.383 127.48C200.111 127.704 199.911 128.016 199.783 128.416C199.671 128.8 199.615 129.256 199.615 129.784L198.751 129.28C198.751 128.4 198.911 127.624 199.231 126.952C199.567 126.264 199.991 125.72 200.503 125.32C201.031 124.92 201.575 124.72 202.135 124.72C202.535 124.72 202.911 124.784 203.263 124.912C203.615 125.024 203.911 125.232 204.151 125.536L202.903 127.72ZM207.561 132.568C207.561 132.936 207.649 133.256 207.825 133.528C208.001 133.784 208.241 133.976 208.545 134.104C208.865 134.232 209.225 134.296 209.625 134.296C210.137 134.296 210.601 134.192 211.017 133.984C211.449 133.776 211.793 133.472 212.049 133.072C212.321 132.656 212.457 132.176 212.457 131.632L212.841 133.072C212.841 133.776 212.633 134.368 212.217 134.848C211.817 135.312 211.305 135.664 210.681 135.904C210.073 136.128 209.449 136.24 208.809 136.24C208.121 136.24 207.481 136.104 206.889 135.832C206.297 135.56 205.825 135.16 205.473 134.632C205.121 134.104 204.945 133.464 204.945 132.712C204.945 131.64 205.321 130.792 206.073 130.168C206.825 129.528 207.889 129.208 209.265 129.208C210.001 129.208 210.633 129.288 211.161 129.448C211.705 129.608 212.153 129.8 212.505 130.024C212.857 130.232 213.105 130.424 213.249 130.6V131.92C212.753 131.568 212.225 131.312 211.665 131.152C211.105 130.992 210.513 130.912 209.889 130.912C209.345 130.912 208.905 130.984 208.569 131.128C208.233 131.256 207.977 131.44 207.801 131.68C207.641 131.92 207.561 132.216 207.561 132.568ZM206.745 127.84L205.689 126.016C206.185 125.712 206.825 125.416 207.609 125.128C208.409 124.84 209.321 124.696 210.345 124.696C211.257 124.696 212.057 124.832 212.745 125.104C213.449 125.376 214.001 125.768 214.401 126.28C214.801 126.776 215.001 127.392 215.001 128.128V136H212.457V128.632C212.457 128.28 212.393 127.992 212.265 127.768C212.153 127.544 211.993 127.36 211.785 127.216C211.577 127.072 211.329 126.968 211.041 126.904C210.753 126.84 210.441 126.808 210.105 126.808C209.593 126.808 209.105 126.872 208.641 127C208.193 127.112 207.801 127.256 207.465 127.432C207.145 127.592 206.905 127.728 206.745 127.84ZM225.127 129.28C225.127 128.464 224.959 127.848 224.623 127.432C224.287 127.016 223.767 126.808 223.063 126.808C222.583 126.808 222.159 126.912 221.791 127.12C221.423 127.312 221.135 127.6 220.927 127.984C220.719 128.352 220.615 128.784 220.615 129.28V136H218.023V124.96H220.615V126.664C220.967 126.008 221.415 125.52 221.959 125.2C222.519 124.88 223.183 124.72 223.951 124.72C225.199 124.72 226.151 125.104 226.807 125.872C227.463 126.624 227.791 127.664 227.791 128.992V136H225.127V129.28ZM239.405 117.28H242.021V136H239.405V117.28ZM230.261 130.48C230.261 129.264 230.509 128.232 231.005 127.384C231.501 126.52 232.157 125.864 232.973 125.416C233.805 124.952 234.693 124.72 235.637 124.72C236.565 124.72 237.373 124.952 238.061 125.416C238.765 125.88 239.317 126.544 239.717 127.408C240.133 128.256 240.341 129.28 240.341 130.48C240.341 131.664 240.133 132.688 239.717 133.552C239.317 134.416 238.765 135.08 238.061 135.544C237.373 136.008 236.565 136.24 235.637 136.24C234.693 136.24 233.805 136.016 232.973 135.568C232.157 135.104 231.501 134.44 231.005 133.576C230.509 132.712 230.261 131.68 230.261 130.48ZM232.949 130.48C232.949 131.216 233.101 131.848 233.405 132.376C233.709 132.904 234.109 133.304 234.605 133.576C235.117 133.848 235.669 133.984 236.261 133.984C236.757 133.984 237.245 133.848 237.725 133.576C238.221 133.304 238.621 132.912 238.925 132.4C239.245 131.872 239.405 131.232 239.405 130.48C239.405 129.728 239.245 129.096 238.925 128.584C238.621 128.056 238.221 127.656 237.725 127.384C237.245 127.112 236.757 126.976 236.261 126.976C235.669 126.976 235.117 127.112 234.605 127.384C234.109 127.656 233.709 128.056 233.405 128.584C233.101 129.112 232.949 129.744 232.949 130.48ZM245.138 120.568C245.138 120.12 245.298 119.744 245.618 119.44C245.954 119.136 246.338 118.984 246.77 118.984C247.234 118.984 247.618 119.136 247.922 119.44C248.242 119.744 248.402 120.12 248.402 120.568C248.402 121 248.242 121.376 247.922 121.696C247.618 122 247.234 122.152 246.77 122.152C246.338 122.152 245.954 122 245.618 121.696C245.298 121.376 245.138 121 245.138 120.568ZM245.498 124.96H248.042V136H245.498V124.96ZM258.713 129.28C258.713 128.464 258.545 127.848 258.209 127.432C257.873 127.016 257.353 126.808 256.649 126.808C256.169 126.808 255.745 126.912 255.377 127.12C255.009 127.312 254.721 127.6 254.513 127.984C254.305 128.352 254.201 128.784 254.201 129.28V136H251.609V124.96H254.201V126.664C254.553 126.008 255.001 125.52 255.545 125.2C256.105 124.88 256.769 124.72 257.537 124.72C258.785 124.72 259.737 125.104 260.393 125.872C261.049 126.624 261.377 127.664 261.377 128.992V136H258.713V129.28ZM264.063 136.744H266.631C266.647 137.24 266.783 137.688 267.039 138.088C267.311 138.488 267.679 138.8 268.143 139.024C268.607 139.248 269.143 139.36 269.751 139.36C270.295 139.36 270.815 139.232 271.311 138.976C271.807 138.72 272.207 138.328 272.511 137.8C272.831 137.272 272.991 136.592 272.991 135.76V124.96H275.535V135.76C275.535 137.088 275.263 138.184 274.719 139.048C274.191 139.912 273.495 140.552 272.631 140.968C271.767 141.4 270.831 141.616 269.823 141.616C268.623 141.616 267.599 141.408 266.751 140.992C265.903 140.592 265.247 140.024 264.783 139.288C264.335 138.552 264.095 137.704 264.063 136.744ZM263.847 130.432C263.847 129.2 264.095 128.168 264.591 127.336C265.087 126.488 265.743 125.84 266.559 125.392C267.391 124.944 268.279 124.72 269.223 124.72C270.151 124.72 270.959 124.952 271.647 125.416C272.351 125.864 272.903 126.512 273.303 127.36C273.719 128.208 273.927 129.232 273.927 130.432C273.927 131.616 273.719 132.632 273.303 133.48C272.903 134.328 272.351 134.984 271.647 135.448C270.959 135.896 270.151 136.12 269.223 136.12C268.279 136.12 267.391 135.896 266.559 135.448C265.743 135 265.087 134.352 264.591 133.504C264.095 132.656 263.847 131.632 263.847 130.432ZM266.535 130.432C266.535 131.168 266.687 131.792 266.991 132.304C267.295 132.816 267.695 133.208 268.191 133.48C268.703 133.736 269.255 133.864 269.847 133.864C270.343 133.864 270.831 133.736 271.311 133.48C271.807 133.224 272.207 132.84 272.511 132.328C272.831 131.8 272.991 131.168 272.991 130.432C272.991 129.856 272.895 129.36 272.703 128.944C272.527 128.512 272.287 128.152 271.983 127.864C271.679 127.56 271.335 127.336 270.951 127.192C270.583 127.048 270.215 126.976 269.847 126.976C269.255 126.976 268.703 127.112 268.191 127.384C267.695 127.64 267.295 128.024 266.991 128.536C266.687 129.048 266.535 129.68 266.535 130.432Z" fill="white"/>
<path d="M22.128 113.16C20.7947 113.16 19.7227 112.989 18.912 112.648V111.112C19.3707 111.283 19.8613 111.421 20.384 111.528C20.9173 111.635 21.4453 111.688 21.968 111.688C22.7893 111.688 23.4027 111.592 23.808 111.4C24.224 111.208 24.432 110.824 24.432 110.248C24.432 109.896 24.3467 109.613 24.176 109.4C24.0053 109.187 23.7227 109.005 23.328 108.856C22.9333 108.696 22.3893 108.531 21.696 108.36C20.5867 108.072 19.808 107.709 19.36 107.272C18.912 106.824 18.688 106.211 18.688 105.432C18.688 104.525 19.0187 103.816 19.68 103.304C20.3413 102.792 21.328 102.536 22.64 102.536C23.2373 102.536 23.7973 102.579 24.32 102.664C24.8533 102.749 25.2693 102.845 25.568 102.952V104.488C24.7573 104.179 23.8613 104.024 22.88 104.024C22.112 104.024 21.5147 104.125 21.088 104.328C20.6613 104.531 20.448 104.899 20.448 105.432C20.448 105.741 20.5227 105.992 20.672 106.184C20.8213 106.376 21.0773 106.541 21.44 106.68C21.8133 106.819 22.3253 106.973 22.976 107.144C23.8187 107.357 24.4693 107.613 24.928 107.912C25.3973 108.2 25.7227 108.541 25.904 108.936C26.096 109.32 26.192 109.757 26.192 110.248C26.192 111.155 25.856 111.869 25.184 112.392C24.512 112.904 23.4933 113.16 22.128 113.16ZM30.5446 113.16C29.734 113.16 29.126 112.947 28.7206 112.52C28.326 112.083 28.1286 111.491 28.1286 110.744V106.776H27.0086V105.416H28.1286V103.672L29.8566 103.144V105.416H31.8726L31.7606 106.776H29.8566V110.648C29.8566 111.085 29.958 111.395 30.1606 111.576C30.3633 111.747 30.694 111.832 31.1526 111.832C31.4406 111.832 31.7446 111.779 32.0646 111.672V112.904C31.6486 113.075 31.142 113.16 30.5446 113.16ZM33.3986 113V105.416H34.9986L35.0946 106.296C35.4573 106.061 35.8893 105.848 36.3906 105.656C36.892 105.464 37.388 105.331 37.8786 105.256V106.584C37.58 106.637 37.2546 106.717 36.9026 106.824C36.5613 106.92 36.236 107.032 35.9266 107.16C35.6173 107.277 35.356 107.4 35.1426 107.528V113H33.3986ZM41.0323 113.16C40.5523 113.16 40.1043 113.075 39.6883 112.904C39.2829 112.733 38.9576 112.477 38.7122 112.136C38.4669 111.784 38.3443 111.352 38.3443 110.84C38.3443 110.115 38.5896 109.533 39.0803 109.096C39.5816 108.648 40.3496 108.424 41.3843 108.424H43.8163V108.088C43.8163 107.725 43.7576 107.437 43.6403 107.224C43.5336 107.011 43.3309 106.856 43.0323 106.76C42.7443 106.664 42.3176 106.616 41.7523 106.616C40.8563 106.616 40.0189 106.749 39.2403 107.016V105.72C39.5816 105.581 39.9976 105.469 40.4883 105.384C40.9789 105.299 41.5069 105.256 42.0723 105.256C43.1816 105.256 44.0243 105.48 44.6003 105.928C45.1869 106.376 45.4803 107.107 45.4803 108.12V113H43.9923L43.8803 112.232C43.5709 112.531 43.1869 112.76 42.7283 112.92C42.2803 113.08 41.7149 113.16 41.0323 113.16ZM41.4963 111.912C42.0189 111.912 42.4723 111.827 42.8563 111.656C43.2509 111.475 43.5709 111.235 43.8163 110.936V109.608H41.4163C40.9043 109.608 40.5309 109.709 40.2963 109.912C40.0723 110.104 39.9603 110.403 39.9603 110.808C39.9603 111.203 40.0936 111.485 40.3603 111.656C40.6269 111.827 41.0056 111.912 41.4963 111.912ZM50.3103 113.16C49.4996 113.16 48.8916 112.947 48.4863 112.52C48.0916 112.083 47.8943 111.491 47.8943 110.744V106.776H46.7743V105.416H47.8943V103.672L49.6223 103.144V105.416H51.6383L51.5263 106.776H49.6223V110.648C49.6223 111.085 49.7236 111.395 49.9263 111.576C50.1289 111.747 50.4596 111.832 50.9183 111.832C51.2063 111.832 51.5103 111.779 51.8303 111.672V112.904C51.4143 113.075 50.9076 113.16 50.3103 113.16ZM57.0043 113.16C55.6816 113.16 54.6576 112.835 53.9323 112.184C53.2069 111.533 52.8443 110.536 52.8443 109.192C52.8443 107.976 53.1536 107.016 53.7723 106.312C54.3909 105.608 55.3296 105.256 56.5883 105.256C57.7403 105.256 58.6043 105.56 59.1803 106.168C59.7669 106.765 60.0603 107.539 60.0603 108.488V109.896H54.5082C54.5936 110.632 54.8603 111.139 55.3083 111.416C55.7563 111.693 56.4389 111.832 57.3563 111.832C57.7403 111.832 58.1349 111.795 58.5403 111.72C58.9456 111.645 59.2976 111.549 59.5963 111.432V112.712C59.2549 112.861 58.8603 112.973 58.4123 113.048C57.9749 113.123 57.5056 113.16 57.0043 113.16ZM54.5082 108.76H58.5243V108.232C58.5243 107.709 58.3803 107.304 58.0923 107.016C57.8043 106.717 57.3189 106.568 56.6363 106.568C55.8256 106.568 55.2656 106.744 54.9563 107.096C54.6576 107.448 54.5082 108.003 54.5082 108.76ZM64.83 115.816C64.2647 115.816 63.6993 115.779 63.134 115.704C62.5687 115.64 62.0887 115.539 61.694 115.4V114.056C62.1207 114.195 62.6113 114.301 63.166 114.376C63.7207 114.451 64.2487 114.488 64.75 114.488C65.518 114.488 66.078 114.445 66.43 114.36C66.782 114.275 66.958 114.083 66.958 113.784C66.958 113.56 66.8727 113.4 66.702 113.304C66.5313 113.219 66.206 113.176 65.726 113.176H63.678C62.302 113.176 61.614 112.691 61.614 111.72C61.614 111.411 61.7047 111.123 61.886 110.856C62.0673 110.589 62.3553 110.387 62.75 110.248C62.3127 110.035 61.9873 109.741 61.774 109.368C61.5713 108.995 61.47 108.547 61.47 108.024C61.47 107.053 61.758 106.349 62.334 105.912C62.9207 105.475 63.7953 105.256 64.958 105.256C65.2033 105.256 65.4593 105.277 65.726 105.32C65.9927 105.352 66.2007 105.384 66.35 105.416H69.134L69.086 106.552H67.806C68.0087 106.723 68.158 106.936 68.254 107.192C68.35 107.448 68.398 107.725 68.398 108.024C68.398 108.835 68.1527 109.475 67.662 109.944C67.1713 110.403 66.43 110.632 65.438 110.632C65.2673 110.632 65.1073 110.627 64.958 110.616C64.8193 110.595 64.6647 110.573 64.494 110.552C64.174 110.584 63.886 110.669 63.63 110.808C63.374 110.947 63.246 111.133 63.246 111.368C63.246 111.528 63.31 111.645 63.438 111.72C63.566 111.784 63.7793 111.816 64.078 111.816H66.206C66.9633 111.816 67.5447 111.981 67.95 112.312C68.366 112.632 68.574 113.101 68.574 113.72C68.574 114.467 68.2487 115 67.598 115.32C66.958 115.651 66.0353 115.816 64.83 115.816ZM64.958 109.528C65.6513 109.528 66.1313 109.411 66.398 109.176C66.6753 108.941 66.814 108.541 66.814 107.976C66.814 107.411 66.6753 107 66.398 106.744C66.1313 106.488 65.6513 106.36 64.958 106.36C64.3073 106.36 63.8327 106.483 63.534 106.728C63.2353 106.973 63.086 107.389 63.086 107.976C63.086 108.52 63.2247 108.915 63.502 109.16C63.79 109.405 64.2753 109.528 64.958 109.528ZM71.6106 115.816C71.0346 115.816 70.544 115.741 70.1386 115.592V114.296C70.32 114.36 70.4853 114.403 70.6346 114.424C70.7946 114.445 70.9546 114.456 71.1146 114.456C71.4453 114.456 71.712 114.403 71.9146 114.296C72.1173 114.189 72.2933 114.019 72.4426 113.784C72.6026 113.56 72.7733 113.267 72.9546 112.904L69.5786 105.416H71.3866L73.8186 111.048L76.2826 105.416H78.0746L74.9866 112.568C74.72 113.208 74.432 113.768 74.1226 114.248C73.824 114.739 73.472 115.123 73.0666 115.4C72.672 115.677 72.1866 115.816 71.6106 115.816Z" fill="white"/>
<g filter="url(#filter4_di_2996_1786)">
<path d="M169.742 218H88C84.6863 218 82 220.686 82 224V248.465C82 251.779 84.6863 254.465 88 254.465H169.742C173.056 254.465 175.742 251.779 175.742 248.465V224C175.742 220.686 173.056 218 169.742 218Z" fill="#121520"/>
<path d="M169.743 218.4H88.0004C84.9076 218.4 82.4004 220.908 82.4004 224V248.465C82.4004 251.558 84.9076 254.065 88.0004 254.065H169.743C172.835 254.065 175.343 251.558 175.343 248.465V224C175.343 220.908 172.835 218.4 169.743 218.4Z" stroke="url(#paint18_linear_2996_1786)" stroke-width="0.8"/>
</g>
<path d="M118.128 242.16C116.795 242.16 115.723 241.989 114.912 241.648V240.112C115.371 240.283 115.861 240.421 116.384 240.528C116.917 240.635 117.445 240.688 117.968 240.688C118.789 240.688 119.403 240.592 119.808 240.4C120.224 240.208 120.432 239.824 120.432 239.248C120.432 238.896 120.347 238.613 120.176 238.4C120.005 238.187 119.723 238.005 119.328 237.856C118.933 237.696 118.389 237.531 117.696 237.36C116.587 237.072 115.808 236.709 115.36 236.272C114.912 235.824 114.688 235.211 114.688 234.432C114.688 233.525 115.019 232.816 115.68 232.304C116.341 231.792 117.328 231.536 118.64 231.536C119.237 231.536 119.797 231.579 120.32 231.664C120.853 231.749 121.269 231.845 121.568 231.952V233.488C120.757 233.179 119.861 233.024 118.88 233.024C118.112 233.024 117.515 233.125 117.088 233.328C116.661 233.531 116.448 233.899 116.448 234.432C116.448 234.741 116.523 234.992 116.672 235.184C116.821 235.376 117.077 235.541 117.44 235.68C117.813 235.819 118.325 235.973 118.976 236.144C119.819 236.357 120.469 236.613 120.928 236.912C121.397 237.2 121.723 237.541 121.904 237.936C122.096 238.32 122.192 238.757 122.192 239.248C122.192 240.155 121.856 240.869 121.184 241.392C120.512 241.904 119.493 242.16 118.128 242.16ZM123.883 242V231.696H131.067V233.056H125.627V236.176H130.475V237.52H125.627V240.656H131.067V242H123.883ZM137.084 242.16C135.452 242.16 134.23 241.733 133.42 240.88C132.609 240.016 132.204 238.683 132.204 236.88C132.204 235.003 132.609 233.643 133.42 232.8C134.23 231.957 135.452 231.536 137.084 231.536C138.726 231.536 139.948 231.957 140.748 232.8C141.558 233.643 141.964 235.003 141.964 236.88C141.964 238.683 141.558 240.016 140.748 240.88C139.948 241.733 138.726 242.16 137.084 242.16ZM137.084 240.688C138.161 240.688 138.95 240.395 139.452 239.808C139.964 239.211 140.22 238.235 140.22 236.88C140.22 235.451 139.964 234.453 139.452 233.888C138.95 233.312 138.161 233.024 137.084 233.024C136.017 233.024 135.228 233.312 134.716 233.888C134.214 234.453 133.964 235.451 133.964 236.88C133.964 238.235 134.214 239.211 134.716 239.808C135.228 240.395 136.017 240.688 137.084 240.688Z" fill="white"/>
<path d="M325.128 249.16C323.795 249.16 322.723 248.989 321.912 248.648V247.112C322.371 247.283 322.861 247.421 323.384 247.528C323.917 247.635 324.445 247.688 324.968 247.688C325.789 247.688 326.403 247.592 326.808 247.4C327.224 247.208 327.432 246.824 327.432 246.248C327.432 245.896 327.347 245.613 327.176 245.4C327.005 245.187 326.723 245.005 326.328 244.856C325.933 244.696 325.389 244.531 324.696 244.36C323.587 244.072 322.808 243.709 322.36 243.272C321.912 242.824 321.688 242.211 321.688 241.432C321.688 240.525 322.019 239.816 322.68 239.304C323.341 238.792 324.328 238.536 325.64 238.536C326.237 238.536 326.797 238.579 327.32 238.664C327.853 238.749 328.269 238.845 328.568 238.952V240.488C327.757 240.179 326.861 240.024 325.88 240.024C325.112 240.024 324.515 240.125 324.088 240.328C323.661 240.531 323.448 240.899 323.448 241.432C323.448 241.741 323.523 241.992 323.672 242.184C323.821 242.376 324.077 242.541 324.44 242.68C324.813 242.819 325.325 242.973 325.976 243.144C326.819 243.357 327.469 243.613 327.928 243.912C328.397 244.2 328.723 244.541 328.904 244.936C329.096 245.32 329.192 245.757 329.192 246.248C329.192 247.155 328.856 247.869 328.184 248.392C327.512 248.904 326.493 249.16 325.128 249.16ZM333.545 249.16C332.734 249.16 332.126 248.947 331.721 248.52C331.326 248.083 331.129 247.491 331.129 246.744V242.776H330.009V241.416H331.129V239.672L332.857 239.144V241.416H334.873L334.761 242.776H332.857V246.648C332.857 247.085 332.958 247.395 333.161 247.576C333.363 247.747 333.694 247.832 334.153 247.832C334.441 247.832 334.745 247.779 335.065 247.672V248.904C334.649 249.075 334.142 249.16 333.545 249.16ZM338.767 249.16C338.287 249.16 337.839 249.075 337.423 248.904C337.017 248.733 336.692 248.477 336.447 248.136C336.201 247.784 336.079 247.352 336.079 246.84C336.079 246.115 336.324 245.533 336.815 245.096C337.316 244.648 338.084 244.424 339.119 244.424H341.551V244.088C341.551 243.725 341.492 243.437 341.375 243.224C341.268 243.011 341.065 242.856 340.767 242.76C340.479 242.664 340.052 242.616 339.487 242.616C338.591 242.616 337.753 242.749 336.975 243.016V241.72C337.316 241.581 337.732 241.469 338.223 241.384C338.713 241.299 339.241 241.256 339.807 241.256C340.916 241.256 341.759 241.48 342.335 241.928C342.921 242.376 343.215 243.107 343.215 244.12V249H341.727L341.615 248.232C341.305 248.531 340.921 248.76 340.463 248.92C340.015 249.08 339.449 249.16 338.767 249.16ZM339.231 247.912C339.753 247.912 340.207 247.827 340.591 247.656C340.985 247.475 341.305 247.235 341.551 246.936V245.608H339.151C338.639 245.608 338.265 245.709 338.031 245.912C337.807 246.104 337.695 246.403 337.695 246.808C337.695 247.203 337.828 247.485 338.095 247.656C338.361 247.827 338.74 247.912 339.231 247.912ZM345.149 249V241.416H346.749L346.845 242.296C347.207 242.061 347.639 241.848 348.141 241.656C348.642 241.464 349.138 241.331 349.629 241.256V242.584C349.33 242.637 349.005 242.717 348.653 242.824C348.311 242.92 347.986 243.032 347.677 243.16C347.367 243.277 347.106 243.4 346.893 243.528V249H345.149ZM353.795 249.16C352.984 249.16 352.376 248.947 351.971 248.52C351.576 248.083 351.379 247.491 351.379 246.744V242.776H350.259V241.416H351.379V239.672L353.107 239.144V241.416H355.123L355.011 242.776H353.107V246.648C353.107 247.085 353.208 247.395 353.411 247.576C353.613 247.747 353.944 247.832 354.403 247.832C354.691 247.832 354.995 247.779 355.315 247.672V248.904C354.899 249.075 354.392 249.16 353.795 249.16ZM359.385 249.16C358.478 249.16 357.779 248.909 357.289 248.408C356.809 247.907 356.569 247.171 356.569 246.2V241.416H358.313V246.2C358.313 246.765 358.451 247.181 358.729 247.448C359.006 247.715 359.433 247.848 360.009 247.848C360.435 247.848 360.83 247.768 361.193 247.608C361.555 247.448 361.87 247.235 362.137 246.968V241.416H363.865V249H362.281L362.201 248.216C361.859 248.483 361.454 248.707 360.985 248.888C360.515 249.069 359.982 249.16 359.385 249.16ZM365.899 252.456V241.416H367.403L367.499 242.168C367.84 241.859 368.213 241.629 368.619 241.48C369.024 241.331 369.504 241.256 370.059 241.256C371.147 241.256 371.995 241.555 372.603 242.152C373.211 242.739 373.515 243.715 373.515 245.08C373.515 246.445 373.2 247.469 372.571 248.152C371.941 248.824 371.083 249.16 369.995 249.16C369.077 249.16 368.293 248.947 367.643 248.52V252.456H365.899ZM369.547 247.848C371.019 247.848 371.755 246.92 371.755 245.064C371.755 244.168 371.589 243.533 371.259 243.16C370.928 242.776 370.373 242.584 369.595 242.584C368.816 242.584 368.165 242.851 367.643 243.384V247.176C367.888 247.379 368.16 247.544 368.459 247.672C368.768 247.789 369.131 247.848 369.547 247.848Z" fill="white"/>
<path d="M382.704 80L386.64 69.696H388.592L392.496 80H390.704L389.68 77.344H385.536L384.512 80H382.704ZM385.808 76H389.392L387.6 71.28L385.808 76ZM396.628 80.16C395.946 80.16 395.343 80.0427 394.82 79.808C394.298 79.5733 393.892 79.184 393.604 78.64C393.316 78.096 393.172 77.3653 393.172 76.448C393.172 75.5413 393.327 74.7787 393.636 74.16C393.946 73.5307 394.372 73.056 394.916 72.736C395.471 72.416 396.095 72.256 396.788 72.256C397.247 72.256 397.652 72.3093 398.004 72.416C398.367 72.5227 398.714 72.688 399.044 72.912V69.216H400.788V80H399.3L399.188 79.248C398.847 79.5573 398.474 79.7867 398.068 79.936C397.663 80.0853 397.183 80.16 396.628 80.16ZM397.092 78.848C397.871 78.848 398.522 78.5813 399.044 78.048V74.256C398.543 73.808 397.914 73.584 397.156 73.584C396.42 73.584 395.866 73.8293 395.492 74.32C395.119 74.8107 394.932 75.5253 394.932 76.464C394.932 77.3707 395.103 77.9947 395.444 78.336C395.796 78.6773 396.346 78.848 397.092 78.848ZM406.956 80V73.776H405.852V72.416H406.956V71.632C406.956 71.1093 407.079 70.6507 407.324 70.256C407.58 69.8507 407.932 69.536 408.38 69.312C408.839 69.0773 409.372 68.96 409.98 68.96C410.354 68.96 410.706 68.9867 411.036 69.04C411.367 69.0827 411.639 69.1467 411.852 69.232V70.528C411.714 70.464 411.511 70.416 411.244 70.384C410.978 70.352 410.727 70.336 410.492 70.336C409.874 70.336 409.415 70.4427 409.116 70.656C408.828 70.8693 408.684 71.2053 408.684 71.664V72.416H412.956V80H411.212V73.776H408.684V80H406.956ZM416.865 80.16C416.246 80.16 415.777 80.0107 415.457 79.712C415.137 79.4027 414.977 78.896 414.977 78.192V69.216H416.721V78.032C416.721 78.3307 416.774 78.5333 416.881 78.64C416.987 78.7467 417.147 78.8 417.361 78.8C417.617 78.8 417.862 78.768 418.097 78.704V79.968C417.894 80.0427 417.697 80.0907 417.505 80.112C417.323 80.144 417.11 80.16 416.865 80.16ZM419.461 80V72.416H421.061L421.141 73.216C421.514 72.9173 421.925 72.6827 422.373 72.512C422.821 72.3413 423.301 72.256 423.813 72.256C424.357 72.256 424.778 72.3467 425.077 72.528C425.386 72.6987 425.621 72.9387 425.781 73.248C426.133 72.96 426.538 72.7253 426.997 72.544C427.456 72.352 428.005 72.256 428.645 72.256C429.52 72.256 430.165 72.48 430.581 72.928C430.997 73.376 431.205 74.064 431.205 74.992V80H429.493V75.168C429.493 74.5813 429.37 74.1707 429.125 73.936C428.88 73.7013 428.48 73.584 427.925 73.584C427.562 73.584 427.216 73.648 426.885 73.776C426.565 73.904 426.288 74.096 426.053 74.352C426.085 74.4693 426.106 74.592 426.117 74.72C426.128 74.848 426.133 74.9867 426.133 75.136V80H424.517V75.184C424.517 74.6293 424.421 74.224 424.229 73.968C424.037 73.712 423.674 73.584 423.141 73.584C422.768 73.584 422.41 73.6747 422.069 73.856C421.738 74.0267 421.44 74.2347 421.173 74.48V80H419.461Z" fill="white"/>
</g>
<defs>
<filter id="filter0_di_2996_1786" x="128" y="0" width="125.729" height="52.4648" filterUnits="userSpaceOnUse" color-interpolation-filters="sRGB">
<feFlood flood-opacity="0" result="BackgroundImageFix"/>
<feColorMatrix in="SourceAlpha" type="matrix" values="0 0 0 0 0 0 0 0 0 0 0 0 0 0 0 0 0 0 127 0" result="hardAlpha"/>
<feOffset dy="2"/>
<feGaussianBlur stdDeviation="4"/>
<feComposite in2="hardAlpha" operator="out"/>
<feColorMatrix type="matrix" values="0 0 0 0 0.011059 0 0 0 0 0.0303698 0 0 0 0 0.204167 0 0 0 0.4 0"/>
<feBlend mode="normal" in2="BackgroundImageFix" result="effect1_dropShadow_2996_1786"/>
<feBlend mode="normal" in="SourceGraphic" in2="effect1_dropShadow_2996_1786" result="shape"/>
<feColorMatrix in="SourceAlpha" type="matrix" values="0 0 0 0 0 0 0 0 0 0 0 0 0 0 0 0 0 0 127 0" result="hardAlpha"/>
<feOffset dy="-2"/>
<feGaussianBlur stdDeviation="6"/>
<feComposite in2="hardAlpha" operator="arithmetic" k2="-1" k3="1"/>
<feColorMatrix type="matrix" values="0 0 0 0 0.107992 0 0 0 0 0.0190799 0 0 0 0 0.654167 0 0 0 0.47 0"/>
<feBlend mode="normal" in2="shape" result="effect2_innerShadow_2996_1786"/>
</filter>
<filter id="filter1_di_2996_1786" x="350" y="50" width="112.934" height="52.4648" filterUnits="userSpaceOnUse" color-interpolation-filters="sRGB">
<feFlood flood-opacity="0" result="BackgroundImageFix"/>
<feColorMatrix in="SourceAlpha" type="matrix" values="0 0 0 0 0 0 0 0 0 0 0 0 0 0 0 0 0 0 127 0" result="hardAlpha"/>
<feOffset dy="2"/>
<feGaussianBlur stdDeviation="4"/>
<feComposite in2="hardAlpha" operator="out"/>
<feColorMatrix type="matrix" values="0 0 0 0 0.011059 0 0 0 0 0.0303698 0 0 0 0 0.204167 0 0 0 0.4 0"/>
<feBlend mode="normal" in2="BackgroundImageFix" result="effect1_dropShadow_2996_1786"/>
<feBlend mode="normal" in="SourceGraphic" in2="effect1_dropShadow_2996_1786" result="shape"/>
<feColorMatrix in="SourceAlpha" type="matrix" values="0 0 0 0 0 0 0 0 0 0 0 0 0 0 0 0 0 0 127 0" result="hardAlpha"/>
<feOffset dy="-2"/>
<feGaussianBlur stdDeviation="6"/>
<feComposite in2="hardAlpha" operator="arithmetic" k2="-1" k3="1"/>
<feColorMatrix type="matrix" values="0 0 0 0 0.107992 0 0 0 0 0.0190799 0 0 0 0 0.654167 0 0 0 0.47 0"/>
<feBlend mode="normal" in2="shape" result="effect2_innerShadow_2996_1786"/>
</filter>
<filter id="filter2_di_2996_1786" x="0" y="83" width="98.1934" height="52.4648" filterUnits="userSpaceOnUse" color-interpolation-filters="sRGB">
<feFlood flood-opacity="0" result="BackgroundImageFix"/>
<feColorMatrix in="SourceAlpha" type="matrix" values="0 0 0 0 0 0 0 0 0 0 0 0 0 0 0 0 0 0 127 0" result="hardAlpha"/>
<feOffset dy="2"/>
<feGaussianBlur stdDeviation="4"/>
<feComposite in2="hardAlpha" operator="out"/>
<feColorMatrix type="matrix" values="0 0 0 0 0.011059 0 0 0 0 0.0303698 0 0 0 0 0.204167 0 0 0 0.4 0"/>
<feBlend mode="normal" in2="BackgroundImageFix" result="effect1_dropShadow_2996_1786"/>
<feBlend mode="normal" in="SourceGraphic" in2="effect1_dropShadow_2996_1786" result="shape"/>
<feColorMatrix in="SourceAlpha" type="matrix" values="0 0 0 0 0 0 0 0 0 0 0 0 0 0 0 0 0 0 127 0" result="hardAlpha"/>
<feOffset dy="-2"/>
<feGaussianBlur stdDeviation="6"/>
<feComposite in2="hardAlpha" operator="arithmetic" k2="-1" k3="1"/>
<feColorMatrix type="matrix" values="0 0 0 0 0.107992 0 0 0 0 0.0190799 0 0 0 0 0.654167 0 0 0 0.47 0"/>
<feBlend mode="normal" in2="shape" result="effect2_innerShadow_2996_1786"/>
</filter>
<filter id="filter3_di_2996_1786" x="287.6" y="218.6" width="120.801" height="52.8008" filterUnits="userSpaceOnUse" color-interpolation-filters="sRGB">
<feFlood flood-opacity="0" result="BackgroundImageFix"/>
<feColorMatrix in="SourceAlpha" type="matrix" values="0 0 0 0 0 0 0 0 0 0 0 0 0 0 0 0 0 0 127 0" result="hardAlpha"/>
<feOffset dy="2"/>
<feGaussianBlur stdDeviation="4"/>
<feComposite in2="hardAlpha" operator="out"/>
<feColorMatrix type="matrix" values="0 0 0 0 0.011059 0 0 0 0 0.0303698 0 0 0 0 0.204167 0 0 0 0.4 0"/>
<feBlend mode="normal" in2="BackgroundImageFix" result="effect1_dropShadow_2996_1786"/>
<feBlend mode="normal" in="SourceGraphic" in2="effect1_dropShadow_2996_1786" result="shape"/>
<feColorMatrix in="SourceAlpha" type="matrix" values="0 0 0 0 0 0 0 0 0 0 0 0 0 0 0 0 0 0 127 0" result="hardAlpha"/>
<feOffset dy="-2"/>
<feGaussianBlur stdDeviation="6"/>
<feComposite in2="hardAlpha" operator="arithmetic" k2="-1" k3="1"/>
<feColorMatrix type="matrix" values="0 0 0 0 0.107992 0 0 0 0 0.0190799 0 0 0 0 0.654167 0 0 0 0.47 0"/>
<feBlend mode="normal" in2="shape" result="effect2_innerShadow_2996_1786"/>
</filter>
<filter id="filter4_di_2996_1786" x="74" y="212" width="109.742" height="52.4648" filterUnits="userSpaceOnUse" color-interpolation-filters="sRGB">
<feFlood flood-opacity="0" result="BackgroundImageFix"/>
<feColorMatrix in="SourceAlpha" type="matrix" values="0 0 0 0 0 0 0 0 0 0 0 0 0 0 0 0 0 0 127 0" result="hardAlpha"/>
<feOffset dy="2"/>
<feGaussianBlur stdDeviation="4"/>
<feComposite in2="hardAlpha" operator="out"/>
<feColorMatrix type="matrix" values="0 0 0 0 0.011059 0 0 0 0 0.0303698 0 0 0 0 0.204167 0 0 0 0.4 0"/>
<feBlend mode="normal" in2="BackgroundImageFix" result="effect1_dropShadow_2996_1786"/>
<feBlend mode="normal" in="SourceGraphic" in2="effect1_dropShadow_2996_1786" result="shape"/>
<feColorMatrix in="SourceAlpha" type="matrix" values="0 0 0 0 0 0 0 0 0 0 0 0 0 0 0 0 0 0 127 0" result="hardAlpha"/>
<feOffset dy="-2"/>
<feGaussianBlur stdDeviation="6"/>
<feComposite in2="hardAlpha" operator="arithmetic" k2="-1" k3="1"/>
<feColorMatrix type="matrix" values="0 0 0 0 0.107992 0 0 0 0 0.0190799 0 0 0 0 0.654167 0 0 0 0.47 0"/>
<feBlend mode="normal" in2="shape" result="effect2_innerShadow_2996_1786"/>
</filter>
<linearGradient id="paint0_linear_2996_1786" x1="259.503" y1="30.9805" x2="259.503" y2="182.105" gradientUnits="userSpaceOnUse">
<stop stop-color="#383838"/>
<stop offset="1" stop-opacity="0"/>
</linearGradient>
<linearGradient id="paint1_linear_2996_1786" x1="268.387" y1="123.204" x2="271.031" y2="314.749" gradientUnits="userSpaceOnUse">
<stop stop-color="#383838"/>
<stop offset="1" stop-color="#FFAC2F"/>
</linearGradient>
<linearGradient id="paint2_linear_2996_1786" x1="296.603" y1="183.107" x2="338.613" y2="153.139" gradientUnits="userSpaceOnUse">
<stop stop-color="#383838"/>
<stop offset="1" stop-opacity="0"/>
</linearGradient>
<linearGradient id="paint3_linear_2996_1786" x1="410.054" y1="97.3718" x2="303.738" y2="150.829" gradientUnits="userSpaceOnUse">
<stop stop-color="white"/>
<stop offset="0.068074" stop-color="#DC52FF"/>
<stop offset="1" stop-opacity="0"/>
</linearGradient>
<linearGradient id="paint4_linear_2996_1786" x1="nan" y1="nan" x2="nan" y2="nan" gradientUnits="userSpaceOnUse">
<stop stop-color="#12151C"/>
<stop offset="0.475548" stop-color="#565656"/>
<stop offset="1" stop-opacity="0"/>
</linearGradient>
<radialGradient id="paint5_radial_2996_1786" cx="0" cy="0" r="1" gradientUnits="userSpaceOnUse" gradientTransform="translate(142.237 113.57) rotate(67.0151) scale(153.01 38.0342)">
<stop stop-color="#868686"/>
<stop offset="1" stop-opacity="0"/>
</radialGradient>
<linearGradient id="paint6_linear_2996_1786" x1="202.33" y1="232.257" x2="248.141" y2="181.977" gradientUnits="userSpaceOnUse">
<stop stop-color="#712FFF"/>
<stop offset="1" stop-opacity="0"/>
</linearGradient>
<linearGradient id="paint7_linear_2996_1786" x1="220.546" y1="158.809" x2="141.402" y2="194.751" gradientUnits="userSpaceOnUse">
<stop stop-color="#383838"/>
<stop offset="1" stop-opacity="0"/>
</linearGradient>
<linearGradient id="paint8_linear_2996_1786" x1="326.265" y1="184.332" x2="275.524" y2="123.655" gradientUnits="userSpaceOnUse">
<stop stop-color="#383838"/>
<stop offset="1" stop-opacity="0"/>
</linearGradient>
<linearGradient id="paint9_linear_2996_1786" x1="166.937" y1="135.519" x2="209.26" y2="118.347" gradientUnits="userSpaceOnUse">
<stop stop-color="#383838"/>
<stop offset="1" stop-opacity="0"/>
</linearGradient>
<linearGradient id="paint10_linear_2996_1786" x1="186.528" y1="37.5902" x2="199.905" y2="159.495" gradientUnits="userSpaceOnUse">
<stop stop-color="white"/>
<stop offset="0.114767" stop-color="#FFAC2F"/>
<stop offset="1" stop-opacity="0"/>
</linearGradient>
<linearGradient id="paint11_linear_2996_1786" x1="45.4917" y1="126.119" x2="167.03" y2="211.634" gradientUnits="userSpaceOnUse">
<stop stop-color="white"/>
<stop offset="0.0709738" stop-color="#652BFF"/>
<stop offset="1" stop-opacity="0"/>
</linearGradient>
<linearGradient id="paint12_linear_2996_1786" x1="145.234" y1="9.31904" x2="237.449" y2="62.7824" gradientUnits="userSpaceOnUse">
<stop stop-color="#FFAC2F"/>
<stop offset="1" stop-color="#5008EA"/>
</linearGradient>
<linearGradient id="paint13_linear_2996_1786" x1="366.157" y1="59.319" x2="452.384" y2="103.481" gradientUnits="userSpaceOnUse">
<stop stop-color="#FFAC2F"/>
<stop offset="1" stop-color="#5008EA"/>
</linearGradient>
<linearGradient id="paint14_linear_2996_1786" x1="14.917" y1="92.319" x2="92.5651" y2="126.039" gradientUnits="userSpaceOnUse">
<stop stop-color="#FFAC2F"/>
<stop offset="1" stop-color="#5008EA"/>
</linearGradient>
<linearGradient id="paint15_linear_2996_1786" x1="304.355" y1="227.946" x2="394.883" y2="277.68" gradientUnits="userSpaceOnUse">
<stop stop-color="#FFAC2F"/>
<stop offset="1" stop-color="#5008EA"/>
</linearGradient>
<linearGradient id="paint16_linear_2996_1786" x1="331" y1="123.5" x2="128" y2="121" gradientUnits="userSpaceOnUse">
<stop stop-color="#580FE4"/>
<stop offset="1" stop-color="#FF7F50"/>
</linearGradient>
<linearGradient id="paint17_linear_2996_1786" x1="321.341" y1="96.0527" x2="246.27" y2="157.441" gradientUnits="userSpaceOnUse">
<stop stop-color="white"/>
<stop offset="1" stop-color="#12151C"/>
</linearGradient>
<linearGradient id="paint18_linear_2996_1786" x1="89.8889" y1="221.319" x2="174.414" y2="263.184" gradientUnits="userSpaceOnUse">
<stop stop-color="#FFAC2F"/>
<stop offset="1" stop-color="#5008EA"/>
</linearGradient>
<clipPath id="clip0_2996_1786">
<rect width="463" height="280" fill="white"/>
</clipPath>
</defs>
</svg>
