<svg width="1440" height="920" viewBox="0 0 1440 920" fill="none" xmlns="http://www.w3.org/2000/svg">
<mask id="mask0_3250_1853" style="mask-type:alpha" maskUnits="userSpaceOnUse" x="0" y="0" width="1440" height="920">
<ellipse cx="720" cy="460" rx="720" ry="460" fill="white"/>
</mask>
<g mask="url(#mask0_3250_1853)">
<path d="M1440 919.165H0V1H1440L1440 919.165ZM1.86127 917.27H1438.14V2.89442H1.86127V917.27Z" fill="#363636"/>
<path d="M1439.07 871.457H0.929688V873.351H1439.07V871.457Z" fill="#363636"/>
<path d="M1439.07 825.639H0.929688V827.533H1439.07V825.639Z" fill="#363636"/>
<path d="M1439.07 779.828H0.929688V781.723H1439.07V779.828Z" fill="#363636"/>
<path d="M1439.07 734.016H0.929688V735.91H1439.07V734.016Z" fill="#363636"/>
<path d="M1439.07 688.199H0.929688V690.094H1439.07V688.199Z" fill="#363636"/>
<path d="M1439.07 642.389H0.929688V644.283H1439.07V642.389Z" fill="#363636"/>
<path d="M1439.07 596.574H0.929688V598.469H1439.07V596.574Z" fill="#363636"/>
<path d="M1439.07 550.762H0.929688V552.656H1439.07V550.762Z" fill="#363636"/>
<path d="M1439.07 504.945H0.929688V506.84H1439.07V504.945Z" fill="#363636"/>
<path d="M1439.07 459.135H0.929688V461.029H1439.07V459.135Z" fill="#363636"/>
<path d="M1439.07 413.32H0.929688V415.215H1439.07V413.32Z" fill="#363636"/>
<path d="M1439.07 367.508H0.929688V369.402H1439.07V367.508Z" fill="#363636"/>
<path d="M1439.07 321.691H0.929688V323.586H1439.07V321.691Z" fill="#363636"/>
<path d="M1439.07 275.881H0.929688V277.775H1439.07V275.881Z" fill="#363636"/>
<path d="M1439.07 230.062H0.929688V231.957H1439.07V230.062Z" fill="#363636"/>
<path d="M1439.07 184.254H0.929688V186.148H1439.07V184.254Z" fill="#363636"/>
<path d="M1439.07 138.438H0.929688V140.332H1439.07V138.438Z" fill="#363636"/>
<path d="M1439.07 92.627H0.929688V94.5214H1439.07V92.627Z" fill="#363636"/>
<path d="M1439.07 46.8125H0.929688V48.7069H1439.07V46.8125Z" fill="#363636"/>
<path d="M1396.42 1.94531H1394.56V918.215H1396.42V1.94531Z" fill="#363636"/>
<path d="M1352.84 1.94531H1350.98V918.215H1352.84V1.94531Z" fill="#363636"/>
<path d="M1309.26 1.94531H1307.4V918.215H1309.26V1.94531Z" fill="#363636"/>
<path d="M1265.68 1.94531H1263.82V918.215H1265.68V1.94531Z" fill="#363636"/>
<path d="M1222.1 1.94531H1220.24V918.215H1222.1V1.94531Z" fill="#363636"/>
<path d="M1178.52 1.94531H1176.66V918.215H1178.52V1.94531Z" fill="#363636"/>
<path d="M1134.94 1.94531H1133.08V918.215H1134.94V1.94531Z" fill="#363636"/>
<path d="M1091.36 1.94531H1089.5V918.215H1091.36V1.94531Z" fill="#363636"/>
<path d="M1047.78 1.94531H1045.92V918.215H1047.78V1.94531Z" fill="#363636"/>
<path d="M1004.2 1.94531H1002.34V918.215H1004.2V1.94531Z" fill="#363636"/>
<path d="M960.625 1.94531H958.764V918.215H960.625V1.94531Z" fill="#363636"/>
<path d="M917.037 1.94531H915.176V918.215H917.037V1.94531Z" fill="#363636"/>
<path d="M873.46 1.94531H871.6V918.215H873.46V1.94531Z" fill="#363636"/>
<path d="M829.88 1.94531H828.02V918.215H829.88V1.94531Z" fill="#363636"/>
<path d="M786.302 1.94531H784.441V918.215H786.302V1.94531Z" fill="#363636"/>
<path d="M742.718 1.94531H740.857V918.215H742.718V1.94531Z" fill="#363636"/>
<path d="M699.14 1.94531H697.279V918.215H699.14V1.94531Z" fill="#363636"/>
<path d="M655.56 1.94531H653.699V918.215H655.56V1.94531Z" fill="#363636"/>
<path d="M611.978 1.94531H610.117V918.215H611.978V1.94531Z" fill="#363636"/>
<path d="M568.4 1.94531H566.539V918.215H568.4V1.94531Z" fill="#363636"/>
<path d="M524.818 1.94531H522.957V918.215H524.818V1.94531Z" fill="#363636"/>
<path d="M481.242 1.94531H479.381V918.215H481.242V1.94531Z" fill="#363636"/>
<path d="M437.664 1.94531H435.803V918.215H437.664V1.94531Z" fill="#363636"/>
<path d="M394.08 1.94531H392.219V918.215H394.08V1.94531Z" fill="#363636"/>
<path d="M350.499 1.94531H348.639V918.215H350.499V1.94531Z" fill="#363636"/>
<path d="M306.921 1.94531H305.061V918.215H306.921V1.94531Z" fill="#363636"/>
<path d="M263.341 1.94531H261.48V918.215H263.341V1.94531Z" fill="#363636"/>
<path d="M219.759 1.94531H217.898V918.215H219.759V1.94531Z" fill="#363636"/>
<path d="M176.179 1.94531H174.318V918.215H176.179V1.94531Z" fill="#363636"/>
<path d="M132.603 1.94531H130.742V918.215H132.603V1.94531Z" fill="#363636"/>
<path d="M89.021 1.94531H87.1602V918.215H89.021V1.94531Z" fill="#363636"/>
<path d="M45.4389 1.94531H43.5781V918.215H45.4389V1.94531Z" fill="#363636"/>
</g>
</svg>
