<svg width="20" height="19" viewBox="0 0 20 19" fill="none" xmlns="http://www.w3.org/2000/svg">
<path d="M16.2964 18.3235L2.90197 18.331C2.14073 18.3314 1.41017 18.0422 0.871006 17.5271C0.331839 17.012 0.028229 16.3131 0.0269668 15.5841L0.00158629 0.925906C0.00116558 0.68293 0.101562 0.44985 0.280689 0.277941C0.459817 0.106032 0.703002 0.00937527 0.956747 0.00923438L14.3512 0.0017969C14.605 0.001656 14.8485 0.0980424 15.0282 0.269752C15.2079 0.441462 15.3091 0.67443 15.3095 0.917406L15.3286 11.9111L19.1556 11.909L19.1619 15.5735C19.1632 16.3024 18.862 17.0017 18.3246 17.5174C17.7872 18.0331 17.0577 18.3231 16.2964 18.3235ZM15.3317 13.7434L15.3349 15.5756C15.3353 15.8186 15.4365 16.0516 15.6163 16.2233C15.796 16.395 16.0395 16.4914 16.2933 16.4913C16.547 16.4911 16.7902 16.3945 16.9693 16.2225C17.1484 16.0506 17.2488 15.8176 17.2484 15.5746L17.2452 13.7423L15.3317 13.7434ZM13.423 16.4928L13.3976 1.83461L1.91667 1.84098L1.94046 15.5831C1.94088 15.8261 2.04209 16.059 2.22181 16.2307C2.40153 16.4024 2.64505 16.4988 2.89879 16.4987L13.423 16.4928ZM3.83492 4.58834L11.4889 4.58409L11.4921 6.41637L3.83809 6.42062L3.83492 4.58834ZM3.84126 8.2529L11.4952 8.24865L11.4984 10.0809L3.84444 10.0852L3.84126 8.2529ZM3.84761 11.9175L8.63135 11.9148L8.63452 13.7471L3.85078 13.7497L3.84761 11.9175Z" fill="#0266FF"/>
</svg>
