<svg width="28" height="13" viewBox="0 0 28 13" fill="none" xmlns="http://www.w3.org/2000/svg">
<path d="M21.7 0C20.02 0 18.4334 0.653353 17.2959 1.79085L14 4.70751L13.9941 4.70166L12.2266 6.25916L12.2383 6.27081L9.09415 9.05916C8.3475 9.80001 7.35585 10.2084 6.3 10.2084C4.11835 10.2084 2.345 8.44086 2.345 6.27086C2.345 4.10086 4.11835 2.33336 6.3 2.33336C7.35585 2.33336 8.3475 2.74171 9.14665 3.53501L10.4708 4.70751L12.2324 3.15001L10.7566 1.84335C9.56659 0.659204 7.98574 0.00585211 6.29995 0.00585211C2.82335 5.40692e-07 0 2.81171 0 6.27086C0 9.73001 2.82335 12.5417 6.3 12.5417C7.98 12.5417 9.56085 11.8884 10.7041 10.7567L14 7.83422L14.0059 7.84007L15.7675 6.27671L15.7616 6.27086L18.9058 3.48836C19.6525 2.74171 20.6441 2.33336 21.7 2.33336C23.8816 2.33336 25.655 4.10086 25.655 6.27086C25.655 8.44086 23.8816 10.2084 21.7 10.2084C20.6441 10.2084 19.6525 9.80001 18.8534 9.01251L17.5292 7.84001L15.7675 9.40337L17.2434 10.71C18.4334 11.8942 20.0142 12.5417 21.6942 12.5417C25.1766 12.5417 28 9.73001 28 6.27086C28 2.81171 25.1766 0 21.7 0Z" fill="#0266FF"/>
</svg>
