<svg width="22" height="20" viewBox="0 0 22 20" fill="none" xmlns="http://www.w3.org/2000/svg">
<path d="M19.5555 0H2.44446C1.09387 0 0 1.11879 0 2.50001V17.5C0 18.8812 1.09387 20 2.44446 20H19.5556C20.9061 20 22 18.8812 22 17.5V2.50001C22 1.11879 20.9061 0 19.5555 0ZM9.7778 8.75002H7.94446V8.125H5.5V11.875H7.94446V11.25H9.7778V12.5C9.7778 13.1874 9.23393 13.7499 8.55559 13.7499H4.88893C4.21054 13.75 3.66667 13.1875 3.66667 12.5V7.50004C3.66667 6.81251 4.21054 6.25001 4.88887 6.25001H8.55554C9.23387 6.25001 9.77774 6.81251 9.77774 7.49999V8.75002H9.7778ZM18.3333 8.75002H16.5V8.125H14.0555V11.875H16.5V11.25H18.3333V12.5C18.3333 13.1875 17.7895 13.75 17.1111 13.75H13.4445C12.7661 13.75 12.2223 13.1875 12.2223 12.5V7.50004C12.2223 6.81257 12.7661 6.25007 13.4445 6.25007H17.1111C17.7895 6.25007 18.3333 6.81257 18.3333 7.50004V8.75002Z" fill="#0266FF"/>
</svg>
