<svg width="40" height="40" viewBox="0 0 40 40" fill="none" xmlns="http://www.w3.org/2000/svg">
<g clip-path="url(#clip0_719_634)">
<path d="M31.4922 2H28.4922V1C28.4922 0.447715 28.0445 0 27.4922 0H13.4922C12.9399 0 12.4922 0.447715 12.4922 1V2H9.49219C6.73076 2 4.49219 4.23858 4.49219 7V35C4.49219 37.7614 6.73076 40 9.49219 40H31.4922C34.2536 40 36.4922 37.7614 36.4922 35V7C36.4922 4.23858 34.2536 2 31.4922 2ZM14.4922 2H26.4922V4H14.4922V2ZM34.4922 35C34.4922 36.6569 33.149 38 31.4922 38H9.49219C7.83533 38 6.49219 36.6569 6.49219 35V7C6.49219 5.34315 7.83533 4 9.49219 4H12.4922V5C12.4922 5.55228 12.9399 6 13.4922 6H27.4922C28.0445 6 28.4922 5.55228 28.4922 5V4H31.4922C33.149 4 34.4922 5.34315 34.4922 7V35Z" fill="#FF7F50"/>
<path d="M27.4922 11.9995H13.4922C12.9399 11.9995 12.4922 12.4472 12.4922 12.9995C12.4922 13.5518 12.9399 13.9995 13.4922 13.9995H27.4922C28.0445 13.9995 28.4922 13.5518 28.4922 12.9995C28.4922 12.4472 28.0445 11.9995 27.4922 11.9995Z" fill="#FF7F50"/>
<path d="M27.4922 18H13.4922C12.9399 18 12.4922 18.4477 12.4922 19C12.4922 19.5523 12.9399 20 13.4922 20H27.4922C28.0445 20 28.4922 19.5523 28.4922 19C28.4922 18.4477 28.0445 18 27.4922 18Z" fill="#FF7F50"/>
<path d="M27.4922 24H13.4922C12.9399 24 12.4922 24.4477 12.4922 25C12.4922 25.5523 12.9399 26 13.4922 26H27.4922C28.0445 26 28.4922 25.5523 28.4922 25C28.4922 24.4477 28.0445 24 27.4922 24Z" fill="#FF7F50"/>
<path d="M21.4922 30H13.4922C12.9399 30 12.4922 30.4477 12.4922 31C12.4922 31.5523 12.9399 32 13.4922 32H21.4922C22.0445 32 22.4922 31.5523 22.4922 31C22.4922 30.4477 22.0445 30 21.4922 30Z" fill="#FF7F50"/>
</g>
<defs>
<clipPath id="clip0_719_634">
<rect width="40" height="40" fill="white"/>
</clipPath>
</defs>
</svg>
