<svg width="40" height="40" viewBox="0 0 40 40" fill="none" xmlns="http://www.w3.org/2000/svg">
<path fill-rule="evenodd" clip-rule="evenodd" d="M5.86674 29.875L3.64844 36.327L10.1045 34.1049L5.86674 29.875Z" fill="#FF7F50"/>
<path fill-rule="evenodd" clip-rule="evenodd" d="M6.88281 27.9282L26.3346 8.48878L31.5028 13.6537L12.051 33.0931L6.88281 27.9282Z" fill="#FF7F50"/>
<path fill-rule="evenodd" clip-rule="evenodd" d="M27.8203 7.01074L31.3681 3.46521L36.5363 8.63008L32.9885 12.1756L27.8203 7.01074Z" fill="#FF7F50"/>
<path d="M39.1567 31.0543L30.1893 22.077C29.7805 21.6684 29.1176 21.6684 28.7087 22.077C28.2999 22.4856 28.2999 23.148 28.7087 23.5566L37.6761 32.534C37.9786 32.8396 37.9786 33.3316 37.6761 33.6372L33.6266 37.6788C33.3165 37.9703 32.8329 37.9703 32.5227 37.6788L30.43 35.5874L31.3246 34.6934C31.5891 34.429 31.6924 34.0438 31.5956 33.6827C31.4988 33.3217 31.2166 33.0396 30.8553 32.9429C30.494 32.8461 30.1085 32.9494 29.844 33.2137L28.9651 34.1025L26.3491 31.4883L28.5465 29.2923C28.8432 29.0346 28.9703 28.6325 28.8756 28.2512C28.7809 27.87 28.4804 27.5739 28.0976 27.4847C27.7148 27.3955 27.3143 27.5282 27.0607 27.8283L24.8633 30.0243L23.592 28.7485C23.3275 28.4842 22.942 28.381 22.5807 28.4777C22.2194 28.5745 21.9372 28.8565 21.8404 29.2176C21.7436 29.5786 21.8469 29.9639 22.1114 30.2282L31.0473 39.1585C31.5852 39.6975 32.3156 40.0004 33.0773 40.0004C33.839 40.0004 34.5694 39.6975 35.1073 39.1585L39.1567 35.1116C40.277 33.9909 40.277 32.1751 39.1567 31.0543Z" fill="#FF7F50"/>
<path d="M10.1655 17.8585C10.5906 17.861 10.975 17.6062 11.138 17.2138C11.301 16.8214 11.2103 16.3695 10.9085 16.0703L9.95626 15.124L12.1536 12.928C12.5625 12.5194 12.5625 11.8569 12.1536 11.4483C11.7448 11.0397 11.0819 11.0397 10.673 11.4483L8.46518 13.6443L5.84926 11.0301L6.74391 10.136C7.15277 9.72738 7.15277 9.06491 6.74391 8.65631C6.33505 8.24771 5.67215 8.24771 5.26329 8.65631L4.37911 9.52947L2.28638 7.43807C2.13874 7.2935 2.05554 7.09564 2.05554 6.88907C2.05554 6.68251 2.13874 6.48464 2.28638 6.34008L6.37245 2.31935C6.5178 2.17312 6.71553 2.09088 6.92179 2.09088C7.12804 2.09088 7.32577 2.17312 7.47113 2.31935L16.3129 11.1555C16.7218 11.5641 17.3847 11.5641 17.7936 11.1555C18.2024 10.7469 18.2024 10.0845 17.7936 9.67587L8.95174 0.839683C7.83029 -0.279894 6.01329 -0.279894 4.89183 0.839683L0.842387 4.88655C0.303092 5.4241 0 6.15402 0 6.91522C0 7.67642 0.303092 8.40633 0.842387 8.94388L9.42784 17.55C9.62317 17.7464 9.88846 17.8573 10.1655 17.8585Z" fill="#FF7F50"/>
<path d="M33.7222 14.3936L38.75 9.36896C39.1557 8.96109 39.1557 8.30238 38.75 7.89452L32.1003 1.24907C31.9041 1.05271 31.6377 0.942383 31.36 0.942383C31.0823 0.942383 30.816 1.05271 30.6197 1.24907L25.5972 6.26845L4.70641 27.1459C4.5955 27.2581 4.51144 27.394 4.46051 27.5433L0.970873 37.6709C0.861047 37.9903 0.91232 38.343 1.10854 38.618C1.30476 38.8929 1.62177 39.0565 1.95969 39.0565C2.07512 39.0574 2.18996 39.0398 2.29976 39.0042L12.4338 35.5168C12.5856 35.4651 12.7234 35.3792 12.8367 35.2658L33.7222 14.3936ZM31.3626 3.46596L36.5265 8.63174L32.9845 12.1767L27.8207 7.0109L31.3626 3.46596ZM5.84695 29.8752L10.1057 34.1051L3.64958 36.3272L5.84695 29.8752ZM12.031 33.096L6.89332 27.9302L26.3348 8.48534L31.483 13.6563L12.031 33.096Z" fill="#FF7F50"/>
</svg>
