<svg width="40" height="40" viewBox="0 0 40 40" fill="none" xmlns="http://www.w3.org/2000/svg">
<g clip-path="url(#clip0_719_657)">
<path d="M36.2423 6.20903C37.9783 6.19985 39.3538 7.71579 39.4544 9.56826L39.4602 9.76105V26.4615C39.4602 26.6259 39.4183 26.7869 39.3395 26.9296L39.2735 27.033L31.9277 37.0766L31.8648 37.2396L31.8055 37.4219C31.5982 38.1106 31.4949 39.1457 31.5688 40.5863L31.5873 40.9013L29.6556 41.0295C29.5344 39.2048 29.6578 37.8399 29.9517 36.8638C30.0818 36.4317 30.2299 36.1246 30.3489 35.9536L37.5239 26.1452L37.5242 9.76706C37.5188 8.89728 36.9787 8.22491 36.3688 8.15176L36.2538 8.14516C35.671 8.14895 35.1651 8.74545 35.1126 9.62145L35.1082 9.7889V18.3931H33.1722L33.1722 9.79491C33.1601 7.84796 34.4469 6.22087 36.2423 6.20903Z" fill="#FF7F50"/>
<path d="M30.6299 21.4178C32.133 19.7104 34.4485 19.1893 35.8177 20.5075C37.1066 21.7511 36.8715 24.0133 35.5153 25.6866L35.3658 25.8635L31.338 30.4325L29.8857 29.1522L33.9134 24.5834C34.7886 23.5903 34.9442 22.3549 34.4742 21.9014C34.058 21.5008 33.0522 21.7011 32.2197 22.5499L32.0827 22.6974L29.1984 25.9699L28.8633 26.3195L28.6213 26.5645C28.1811 27.0057 27.7174 27.4471 27.2494 27.8611C26.9356 28.1387 26.6299 28.395 26.3349 28.6256L26.0553 28.8381L25.744 29.06L25.6407 29.1265L25.491 29.2305L25.301 29.3706C24.9475 29.6384 24.5934 29.9492 24.2653 30.2961C23.4301 31.1788 22.922 32.1222 22.858 33.0845L22.8511 33.291L22.8422 41.0504L20.9062 41.0482L20.9151 33.2899C20.9151 31.6845 21.6549 30.2382 22.8589 28.9656C23.556 28.2286 24.2507 27.7022 24.6853 27.4403L24.9856 27.2211C25.0372 27.182 25.0895 27.1418 25.1426 27.1003C25.4046 26.8955 25.6806 26.6641 25.9666 26.4111C26.2565 26.1546 26.5467 25.8849 26.8305 25.6107L27.4465 24.9993L27.7637 24.6703L30.6299 21.4178Z" fill="#FF7F50"/>
<path d="M3.75023 6.20903C5.48472 6.22048 6.74496 7.74128 6.81615 9.59583L6.81924 9.78882L6.81987 18.393L4.88387 18.3931L4.88326 9.78288C4.88923 8.82233 4.35687 8.14918 3.73873 8.14516C3.12094 8.14183 2.5448 8.76284 2.47439 9.60134L2.46723 9.76101V26.1452L9.5608 35.8465C9.69913 36.0153 9.84819 36.2895 9.9829 36.6862L10.0397 36.8637C10.314 37.7748 10.4398 39.0245 10.3568 40.6707L10.3358 41.0295L8.40408 40.9013C8.51072 39.2953 8.40807 38.1598 8.18589 37.4219L8.15442 37.3217L8.10042 37.1714L8.05896 37.0786L8.03076 37.0315L0.718519 27.033C0.621498 26.9003 0.560257 26.7457 0.539637 26.584L0.531865 26.4616L0.53125 9.75504C0.543242 7.82215 1.95323 6.19952 3.75023 6.20903Z" fill="#FF7F50"/>
<path d="M4.18003 20.5062C5.5022 19.2324 7.71003 19.6769 9.21403 21.25L9.36704 21.4167L12.2149 24.6497L12.5202 24.9679L12.746 25.1963C13.1598 25.611 13.5954 26.0255 14.0304 26.4103C14.2208 26.5787 14.4069 26.7376 14.5873 26.8854L14.948 27.1719L15.2592 27.4051C15.7465 27.7014 16.4412 28.2279 17.1384 28.9648C18.2714 30.1626 18.9934 31.5142 19.0745 33.0065L19.0821 33.288L19.091 41.0475L17.155 41.0497L17.1461 33.2891C17.1461 32.2564 16.6267 31.2411 15.7319 30.2953C15.4038 29.9484 15.0497 29.6377 14.6962 29.3698L14.4694 29.2038L14.2005 29.0247C14.0259 28.9023 13.846 28.7684 13.6611 28.6238C13.3664 28.3935 13.0611 28.1376 12.7477 27.8604C12.2797 27.4464 11.8158 27.005 11.3756 26.5638L10.9343 26.1127L10.7803 25.9494L7.91433 22.6964C7.05823 21.7245 5.96191 21.4778 5.52352 21.9001C5.07729 22.3304 5.19329 23.4616 5.95085 24.4238L6.08306 24.5825L10.1109 29.1514L8.65861 30.4317L4.63071 25.8626C3.14358 24.1752 2.84401 21.7944 4.18003 20.5062Z" fill="#FF7F50"/>
<path d="M30.111 4.39218L19.9543 -1.05078L9.89062 4.39484V16.6018L19.9541 22.6809L30.111 16.6045V4.39218ZM19.9576 1.14765L28.1746 5.55065V15.5066L19.9586 20.4216L11.8266 15.5096V5.54765L19.9576 1.14765Z" fill="#FF7F50"/>
<path d="M25.5282 5.96927C25.9914 5.70237 26.5833 5.86152 26.8502 6.32474C27.0966 6.75233 26.9799 7.28954 26.5962 7.57959L26.4947 7.64674L20.4983 11.1018C20.0351 11.3687 19.4432 11.2096 19.1763 10.7463C18.9299 10.3188 19.0466 9.78154 19.4303 9.49149L19.5318 9.42434L25.5282 5.96927Z" fill="#FF7F50"/>
<path d="M13.1451 6.32474C13.3914 5.89715 13.9147 5.72865 14.3581 5.91519L14.4671 5.96927L20.4635 9.42434C20.9267 9.69124 21.0859 10.2831 20.819 10.7463C20.5726 11.1739 20.0493 11.3424 19.6059 11.1559L19.497 11.1018L13.5005 7.64674C13.0373 7.37984 12.8782 6.78796 13.1451 6.32474Z" fill="#FF7F50"/>
<path d="M19.9993 9.39844C20.4957 9.39844 20.9048 9.77212 20.9607 10.2535L20.9673 10.3664V17.6558C20.9673 18.1904 20.5339 18.6238 19.9993 18.6238C19.5028 18.6238 19.0937 18.2501 19.0378 17.7687L19.0312 17.6558V10.3664C19.0312 9.83183 19.4646 9.39844 19.9993 9.39844Z" fill="#FF7F50"/>
</g>
<defs>
<clipPath id="clip0_719_657">
<rect width="40" height="40" fill="white"/>
</clipPath>
</defs>
</svg>
